<?xml version="1.0" encoding="utf-8"?>
<svg xmlns="http://www.w3.org/2000/svg" xmlns:xlink="http://www.w3.org/1999/xlink" width="500" height="500" viewBox="0 0 2000 2000">
<defs>
  <clipPath id="clip220">
    <rect x="0" y="0" width="2000" height="2000"/>
  </clipPath>
</defs>
<path clip-path="url(#clip220)" d="
M0 2000 L2000 2000 L2000 0 L0 0  Z
  " fill="#ffffff" fill-rule="evenodd" fill-opacity="1"/>
<defs>
  <clipPath id="clip221">
    <rect x="400" y="200" width="1401" height="1401"/>
  </clipPath>
</defs>
<path clip-path="url(#clip220)" d="
M98.7402 1901.26 L1952.76 1901.26 L1952.76 62.9921 L98.7402 62.9921  Z
  " fill="#ffffff" fill-rule="evenodd" fill-opacity="1"/>
<defs>
  <clipPath id="clip222">
    <rect x="98" y="62" width="1855" height="1839"/>
  </clipPath>
</defs>
<polyline clip-path="url(#clip222)" style="stroke:#000000; stroke-width:2; stroke-opacity:0.1; fill:none" points="
  448.691,1901.26 448.691,62.9921 
  "/>
<polyline clip-path="url(#clip222)" style="stroke:#000000; stroke-width:2; stroke-opacity:0.1; fill:none" points="
  833.676,1901.26 833.676,62.9921 
  "/>
<polyline clip-path="url(#clip222)" style="stroke:#000000; stroke-width:2; stroke-opacity:0.1; fill:none" points="
  1218.66,1901.26 1218.66,62.9921 
  "/>
<polyline clip-path="url(#clip222)" style="stroke:#000000; stroke-width:2; stroke-opacity:0.1; fill:none" points="
  1603.65,1901.26 1603.65,62.9921 
  "/>
<polyline clip-path="url(#clip220)" style="stroke:#000000; stroke-width:4; stroke-opacity:1; fill:none" points="
  98.7402,1901.26 1952.76,1901.26 
  "/>
<polyline clip-path="url(#clip220)" style="stroke:#000000; stroke-width:4; stroke-opacity:1; fill:none" points="
  448.691,1901.26 448.691,1879.2 
  "/>
<polyline clip-path="url(#clip220)" style="stroke:#000000; stroke-width:4; stroke-opacity:1; fill:none" points="
  833.676,1901.26 833.676,1879.2 
  "/>
<polyline clip-path="url(#clip220)" style="stroke:#000000; stroke-width:4; stroke-opacity:1; fill:none" points="
  1218.66,1901.26 1218.66,1879.2 
  "/>
<polyline clip-path="url(#clip220)" style="stroke:#000000; stroke-width:4; stroke-opacity:1; fill:none" points="
  1603.65,1901.26 1603.65,1879.2 
  "/>
<path clip-path="url(#clip220)" d="M 0 0 M431.006 1927.25 Q427.395 1927.25 425.566 1930.82 Q423.761 1934.36 423.761 1941.49 Q423.761 1948.59 425.566 1952.16 Q427.395 1955.7 431.006 1955.7 Q434.64 1955.7 436.446 1952.16 Q438.274 1948.59 438.274 1941.49 Q438.274 1934.36 436.446 1930.82 Q434.64 1927.25 431.006 1927.25 M431.006 1923.55 Q436.816 1923.55 439.872 1928.15 Q442.95 1932.74 442.95 1941.49 Q442.95 1950.21 439.872 1954.82 Q436.816 1959.4 431.006 1959.4 Q425.196 1959.4 422.117 1954.82 Q419.061 1950.21 419.061 1941.49 Q419.061 1932.74 422.117 1928.15 Q425.196 1923.55 431.006 1923.55 Z" fill="#000000" fill-rule="evenodd" fill-opacity="1" /><path clip-path="url(#clip220)" d="M 0 0 M448.02 1952.85 L452.904 1952.85 L452.904 1958.73 L448.02 1958.73 L448.02 1952.85 Z" fill="#000000" fill-rule="evenodd" fill-opacity="1" /><path clip-path="url(#clip220)" d="M 0 0 M462.001 1954.8 L478.32 1954.8 L478.32 1958.73 L456.376 1958.73 L456.376 1954.8 Q459.038 1952.04 463.621 1947.41 Q468.228 1942.76 469.408 1941.42 Q471.654 1938.89 472.533 1937.16 Q473.436 1935.4 473.436 1933.71 Q473.436 1930.95 471.492 1929.22 Q469.57 1927.48 466.469 1927.48 Q464.27 1927.48 461.816 1928.25 Q459.385 1929.01 456.608 1930.56 L456.608 1925.84 Q459.432 1924.7 461.885 1924.13 Q464.339 1923.55 466.376 1923.55 Q471.746 1923.55 474.941 1926.23 Q478.135 1928.92 478.135 1933.41 Q478.135 1935.54 477.325 1937.46 Q476.538 1939.36 474.432 1941.95 Q473.853 1942.62 470.751 1945.84 Q467.649 1949.03 462.001 1954.8 Z" fill="#000000" fill-rule="evenodd" fill-opacity="1" /><path clip-path="url(#clip220)" d="M 0 0 M814.95 1927.25 Q811.339 1927.25 809.51 1930.82 Q807.704 1934.36 807.704 1941.49 Q807.704 1948.59 809.51 1952.16 Q811.339 1955.7 814.95 1955.7 Q818.584 1955.7 820.389 1952.16 Q822.218 1948.59 822.218 1941.49 Q822.218 1934.36 820.389 1930.82 Q818.584 1927.25 814.95 1927.25 M814.95 1923.55 Q820.76 1923.55 823.815 1928.15 Q826.894 1932.74 826.894 1941.49 Q826.894 1950.21 823.815 1954.82 Q820.76 1959.4 814.95 1959.4 Q809.14 1959.4 806.061 1954.82 Q803.005 1950.21 803.005 1941.49 Q803.005 1932.74 806.061 1928.15 Q809.14 1923.55 814.95 1923.55 Z" fill="#000000" fill-rule="evenodd" fill-opacity="1" /><path clip-path="url(#clip220)" d="M 0 0 M831.963 1952.85 L836.848 1952.85 L836.848 1958.73 L831.963 1958.73 L831.963 1952.85 Z" fill="#000000" fill-rule="evenodd" fill-opacity="1" /><path clip-path="url(#clip220)" d="M 0 0 M854.764 1928.25 L842.959 1946.69 L854.764 1946.69 L854.764 1928.25 M853.537 1924.17 L859.417 1924.17 L859.417 1946.69 L864.348 1946.69 L864.348 1950.58 L859.417 1950.58 L859.417 1958.73 L854.764 1958.73 L854.764 1950.58 L839.163 1950.58 L839.163 1946.07 L853.537 1924.17 Z" fill="#000000" fill-rule="evenodd" fill-opacity="1" /><path clip-path="url(#clip220)" d="M 0 0 M1200.1 1927.25 Q1196.49 1927.25 1194.66 1930.82 Q1192.85 1934.36 1192.85 1941.49 Q1192.85 1948.59 1194.66 1952.16 Q1196.49 1955.7 1200.1 1955.7 Q1203.73 1955.7 1205.54 1952.16 Q1207.37 1948.59 1207.37 1941.49 Q1207.37 1934.36 1205.54 1930.82 Q1203.73 1927.25 1200.1 1927.25 M1200.1 1923.55 Q1205.91 1923.55 1208.96 1928.15 Q1212.04 1932.74 1212.04 1941.49 Q1212.04 1950.21 1208.96 1954.82 Q1205.91 1959.4 1200.1 1959.4 Q1194.29 1959.4 1191.21 1954.82 Q1188.15 1950.21 1188.15 1941.49 Q1188.15 1932.74 1191.21 1928.15 Q1194.29 1923.55 1200.1 1923.55 Z" fill="#000000" fill-rule="evenodd" fill-opacity="1" /><path clip-path="url(#clip220)" d="M 0 0 M1217.11 1952.85 L1222 1952.85 L1222 1958.73 L1217.11 1958.73 L1217.11 1952.85 Z" fill="#000000" fill-rule="evenodd" fill-opacity="1" /><path clip-path="url(#clip220)" d="M 0 0 M1237.64 1939.59 Q1234.5 1939.59 1232.64 1941.74 Q1230.81 1943.89 1230.81 1947.64 Q1230.81 1951.37 1232.64 1953.55 Q1234.5 1955.7 1237.64 1955.7 Q1240.79 1955.7 1242.62 1953.55 Q1244.47 1951.37 1244.47 1947.64 Q1244.47 1943.89 1242.62 1941.74 Q1240.79 1939.59 1237.64 1939.59 M1246.93 1924.94 L1246.93 1929.19 Q1245.17 1928.36 1243.36 1927.92 Q1241.58 1927.48 1239.82 1927.48 Q1235.19 1927.48 1232.74 1930.61 Q1230.31 1933.73 1229.96 1940.05 Q1231.32 1938.04 1233.38 1936.97 Q1235.44 1935.88 1237.92 1935.88 Q1243.13 1935.88 1246.14 1939.06 Q1249.17 1942.2 1249.17 1947.64 Q1249.17 1952.97 1246.02 1956.19 Q1242.87 1959.4 1237.64 1959.4 Q1231.65 1959.4 1228.48 1954.82 Q1225.31 1950.21 1225.31 1941.49 Q1225.31 1933.29 1229.19 1928.43 Q1233.08 1923.55 1239.63 1923.55 Q1241.39 1923.55 1243.18 1923.89 Q1244.98 1924.24 1246.93 1924.94 Z" fill="#000000" fill-rule="evenodd" fill-opacity="1" /><path clip-path="url(#clip220)" d="M 0 0 M1585.21 1927.25 Q1581.6 1927.25 1579.77 1930.82 Q1577.96 1934.36 1577.96 1941.49 Q1577.96 1948.59 1579.77 1952.16 Q1581.6 1955.7 1585.21 1955.7 Q1588.84 1955.7 1590.65 1952.16 Q1592.48 1948.59 1592.48 1941.49 Q1592.48 1934.36 1590.65 1930.82 Q1588.84 1927.25 1585.21 1927.25 M1585.21 1923.55 Q1591.02 1923.55 1594.08 1928.15 Q1597.15 1932.74 1597.15 1941.49 Q1597.15 1950.21 1594.08 1954.82 Q1591.02 1959.4 1585.21 1959.4 Q1579.4 1959.4 1576.32 1954.82 Q1573.27 1950.21 1573.27 1941.49 Q1573.27 1932.74 1576.32 1928.15 Q1579.4 1923.55 1585.21 1923.55 Z" fill="#000000" fill-rule="evenodd" fill-opacity="1" /><path clip-path="url(#clip220)" d="M 0 0 M1602.22 1952.85 L1607.11 1952.85 L1607.11 1958.73 L1602.22 1958.73 L1602.22 1952.85 Z" fill="#000000" fill-rule="evenodd" fill-opacity="1" /><path clip-path="url(#clip220)" d="M 0 0 M1622.18 1942.32 Q1618.84 1942.32 1616.92 1944.1 Q1615.02 1945.88 1615.02 1949.01 Q1615.02 1952.13 1616.92 1953.92 Q1618.84 1955.7 1622.18 1955.7 Q1625.51 1955.7 1627.43 1953.92 Q1629.35 1952.11 1629.35 1949.01 Q1629.35 1945.88 1627.43 1944.1 Q1625.53 1942.32 1622.18 1942.32 M1617.5 1940.33 Q1614.49 1939.59 1612.8 1937.53 Q1611.14 1935.47 1611.14 1932.51 Q1611.14 1928.36 1614.08 1925.95 Q1617.04 1923.55 1622.18 1923.55 Q1627.34 1923.55 1630.28 1925.95 Q1633.22 1928.36 1633.22 1932.51 Q1633.22 1935.47 1631.53 1937.53 Q1629.86 1939.59 1626.88 1940.33 Q1630.26 1941.12 1632.13 1943.41 Q1634.03 1945.7 1634.03 1949.01 Q1634.03 1954.03 1630.95 1956.72 Q1627.89 1959.4 1622.18 1959.4 Q1616.46 1959.4 1613.38 1956.72 Q1610.33 1954.03 1610.33 1949.01 Q1610.33 1945.7 1612.22 1943.41 Q1614.12 1941.12 1617.5 1940.33 M1615.79 1932.94 Q1615.79 1935.63 1617.46 1937.13 Q1619.14 1938.64 1622.18 1938.64 Q1625.19 1938.64 1626.88 1937.13 Q1628.59 1935.63 1628.59 1932.94 Q1628.59 1930.26 1626.88 1928.76 Q1625.19 1927.25 1622.18 1927.25 Q1619.14 1927.25 1617.46 1928.76 Q1615.79 1930.26 1615.79 1932.94 Z" fill="#000000" fill-rule="evenodd" fill-opacity="1" /><path clip-path="url(#clip220)" d="M 0 0 M699.694 1986.54 L699.694 2002.78 L707.043 2002.78 Q711.123 2002.78 713.351 2000.66 Q715.579 1998.55 715.579 1994.64 Q715.579 1990.77 713.351 1988.66 Q711.123 1986.54 707.043 1986.54 L699.694 1986.54 M693.849 1981.74 L707.043 1981.74 Q714.306 1981.74 718.01 1985.04 Q721.742 1988.31 721.742 1994.64 Q721.742 2001.04 718.01 2004.31 Q714.306 2007.58 707.043 2007.58 L699.694 2007.58 L699.694 2024.94 L693.849 2024.94 L693.849 1981.74 Z" fill="#000000" fill-rule="evenodd" fill-opacity="1" /><path clip-path="url(#clip220)" d="M 0 0 M745.064 1997.51 Q744.167 1996.99 743.096 1996.76 Q742.055 1996.5 740.781 1996.5 Q736.268 1996.5 733.837 1999.45 Q731.435 2002.37 731.435 2007.87 L731.435 2024.94 L726.082 2024.94 L726.082 1992.53 L731.435 1992.53 L731.435 1997.57 Q733.114 1994.62 735.805 1993.2 Q738.496 1991.75 742.344 1991.75 Q742.894 1991.75 743.559 1991.84 Q744.225 1991.9 745.035 1992.04 L745.064 1997.51 Z" fill="#000000" fill-rule="evenodd" fill-opacity="1" /><path clip-path="url(#clip220)" d="M 0 0 M777.066 2007.41 L777.066 2010.01 L752.587 2010.01 Q752.934 2015.51 755.885 2018.4 Q758.866 2021.27 764.161 2021.27 Q767.228 2021.27 770.093 2020.51 Q772.986 2019.76 775.822 2018.26 L775.822 2023.29 Q772.957 2024.51 769.948 2025.14 Q766.939 2025.78 763.843 2025.78 Q756.088 2025.78 751.545 2021.27 Q747.031 2016.75 747.031 2009.05 Q747.031 2001.1 751.314 1996.44 Q755.625 1991.75 762.917 1991.75 Q769.456 1991.75 773.246 1995.98 Q777.066 2000.17 777.066 2007.41 M771.742 2005.84 Q771.684 2001.47 769.282 1998.87 Q766.91 1996.27 762.975 1996.27 Q758.519 1996.27 755.828 1998.78 Q753.166 2001.3 752.76 2005.87 L771.742 2005.84 Z" fill="#000000" fill-rule="evenodd" fill-opacity="1" /><path clip-path="url(#clip220)" d="M 0 0 M803.975 1997.45 L803.975 1979.92 L809.3 1979.92 L809.3 2024.94 L803.975 2024.94 L803.975 2020.08 Q802.297 2022.97 799.722 2024.39 Q797.176 2025.78 793.588 2025.78 Q787.714 2025.78 784.01 2021.09 Q780.336 2016.4 780.336 2008.77 Q780.336 2001.13 784.01 1996.44 Q787.714 1991.75 793.588 1991.75 Q797.176 1991.75 799.722 1993.17 Q802.297 1994.56 803.975 1997.45 M785.833 2008.77 Q785.833 2014.64 788.235 2018 Q790.665 2021.32 794.89 2021.32 Q799.114 2021.32 801.545 2018 Q803.975 2014.64 803.975 2008.77 Q803.975 2002.89 801.545 1999.56 Q799.114 1996.21 794.89 1996.21 Q790.665 1996.21 788.235 1999.56 Q785.833 2002.89 785.833 2008.77 Z" fill="#000000" fill-rule="evenodd" fill-opacity="1" /><path clip-path="url(#clip220)" d="M 0 0 M814.884 1992.53 L820.208 1992.53 L820.208 2024.94 L814.884 2024.94 L814.884 1992.53 M814.884 1979.92 L820.208 1979.92 L820.208 1986.66 L814.884 1986.66 L814.884 1979.92 Z" fill="#000000" fill-rule="evenodd" fill-opacity="1" /><path clip-path="url(#clip220)" d="M 0 0 M849.114 1993.78 L849.114 1998.75 Q846.857 1997.51 844.571 1996.9 Q842.314 1996.27 840 1996.27 Q834.82 1996.27 831.956 1999.56 Q829.091 2002.83 829.091 2008.77 Q829.091 2014.7 831.956 2018 Q834.82 2021.27 840 2021.27 Q842.314 2021.27 844.571 2020.66 Q846.857 2020.02 849.114 2018.78 L849.114 2023.7 Q846.886 2024.74 844.485 2025.26 Q842.112 2025.78 839.421 2025.78 Q832.1 2025.78 827.789 2021.18 Q823.478 2016.58 823.478 2008.77 Q823.478 2000.84 827.818 1996.29 Q832.187 1991.75 839.768 1991.75 Q842.228 1991.75 844.571 1992.27 Q846.915 1992.76 849.114 1993.78 Z" fill="#000000" fill-rule="evenodd" fill-opacity="1" /><path clip-path="url(#clip220)" d="M 0 0 M859.965 1983.33 L859.965 1992.53 L870.931 1992.53 L870.931 1996.67 L859.965 1996.67 L859.965 2014.26 Q859.965 2018.23 861.035 2019.36 Q862.135 2020.48 865.462 2020.48 L870.931 2020.48 L870.931 2024.94 L865.462 2024.94 Q859.299 2024.94 856.956 2022.65 Q854.612 2020.34 854.612 2014.26 L854.612 1996.67 L850.706 1996.67 L850.706 1992.53 L854.612 1992.53 L854.612 1983.33 L859.965 1983.33 Z" fill="#000000" fill-rule="evenodd" fill-opacity="1" /><path clip-path="url(#clip220)" d="M 0 0 M904.235 2007.41 L904.235 2010.01 L879.756 2010.01 Q880.104 2015.51 883.055 2018.4 Q886.035 2021.27 891.33 2021.27 Q894.397 2021.27 897.262 2020.51 Q900.156 2019.76 902.991 2018.26 L902.991 2023.29 Q900.127 2024.51 897.117 2025.14 Q894.108 2025.78 891.012 2025.78 Q883.257 2025.78 878.715 2021.27 Q874.201 2016.75 874.201 2009.05 Q874.201 2001.1 878.483 1996.44 Q882.795 1991.75 890.086 1991.75 Q896.625 1991.75 900.416 1995.98 Q904.235 2000.17 904.235 2007.41 M898.911 2005.84 Q898.853 2001.47 896.452 1998.87 Q894.079 1996.27 890.144 1996.27 Q885.688 1996.27 882.997 1998.78 Q880.335 2001.3 879.93 2005.87 L898.911 2005.84 Z" fill="#000000" fill-rule="evenodd" fill-opacity="1" /><path clip-path="url(#clip220)" d="M 0 0 M931.145 1997.45 L931.145 1979.92 L936.469 1979.92 L936.469 2024.94 L931.145 2024.94 L931.145 2020.08 Q929.467 2022.97 926.892 2024.39 Q924.345 2025.78 920.757 2025.78 Q914.883 2025.78 911.18 2021.09 Q907.505 2016.4 907.505 2008.77 Q907.505 2001.13 911.18 1996.44 Q914.883 1991.75 920.757 1991.75 Q924.345 1991.75 926.892 1993.17 Q929.467 1994.56 931.145 1997.45 M913.003 2008.77 Q913.003 2014.64 915.404 2018 Q917.835 2021.32 922.059 2021.32 Q926.284 2021.32 928.714 2018 Q931.145 2014.64 931.145 2008.77 Q931.145 2002.89 928.714 1999.56 Q926.284 1996.21 922.059 1996.21 Q917.835 1996.21 915.404 1999.56 Q913.003 2002.89 913.003 2008.77 Z" fill="#000000" fill-rule="evenodd" fill-opacity="1" /><path clip-path="url(#clip220)" d="M 0 0 M981.608 2004.69 Q983.488 2005.32 985.253 2007.41 Q987.047 2009.49 988.841 2013.13 L994.773 2024.94 L988.494 2024.94 L982.968 2013.86 Q980.826 2009.52 978.801 2008.1 Q976.804 2006.68 973.332 2006.68 L966.967 2006.68 L966.967 2024.94 L961.122 2024.94 L961.122 1981.74 L974.316 1981.74 Q981.723 1981.74 985.369 1984.84 Q989.015 1987.93 989.015 1994.18 Q989.015 1998.26 987.105 2000.95 Q985.225 2003.64 981.608 2004.69 M966.967 1986.54 L966.967 2001.88 L974.316 2001.88 Q978.541 2001.88 980.682 1999.94 Q982.852 1997.97 982.852 1994.18 Q982.852 1990.39 980.682 1988.48 Q978.541 1986.54 974.316 1986.54 L966.967 1986.54 Z" fill="#000000" fill-rule="evenodd" fill-opacity="1" /><path clip-path="url(#clip220)" d="M 0 0 M1025.42 2007.41 L1025.42 2010.01 L1000.94 2010.01 Q1001.28 2015.51 1004.23 2018.4 Q1007.22 2021.27 1012.51 2021.27 Q1015.58 2021.27 1018.44 2020.51 Q1021.34 2019.76 1024.17 2018.26 L1024.17 2023.29 Q1021.31 2024.51 1018.3 2025.14 Q1015.29 2025.78 1012.19 2025.78 Q1004.44 2025.78 999.895 2021.27 Q995.381 2016.75 995.381 2009.05 Q995.381 2001.1 999.663 1996.44 Q1003.97 1991.75 1011.27 1991.75 Q1017.81 1991.75 1021.6 1995.98 Q1025.42 2000.17 1025.42 2007.41 M1020.09 2005.84 Q1020.03 2001.47 1017.63 1998.87 Q1015.26 1996.27 1011.32 1996.27 Q1006.87 1996.27 1004.18 1998.78 Q1001.51 2001.3 1001.11 2005.87 L1020.09 2005.84 Z" fill="#000000" fill-rule="evenodd" fill-opacity="1" /><path clip-path="url(#clip220)" d="M 0 0 M1051.66 1993.49 L1051.66 1998.52 Q1049.4 1997.36 1046.97 1996.79 Q1044.54 1996.21 1041.94 1996.21 Q1037.97 1996.21 1035.98 1997.42 Q1034.01 1998.64 1034.01 2001.07 Q1034.01 2002.92 1035.43 2003.99 Q1036.84 2005.03 1041.13 2005.99 L1042.95 2006.39 Q1048.62 2007.61 1050.99 2009.84 Q1053.4 2012.03 1053.4 2016 Q1053.4 2020.51 1049.81 2023.15 Q1046.25 2025.78 1040 2025.78 Q1037.39 2025.78 1034.56 2025.26 Q1031.75 2024.77 1028.63 2023.75 L1028.63 2018.26 Q1031.58 2019.79 1034.44 2020.57 Q1037.31 2021.32 1040.11 2021.32 Q1043.88 2021.32 1045.9 2020.05 Q1047.93 2018.75 1047.93 2016.4 Q1047.93 2014.23 1046.45 2013.08 Q1045 2011.92 1040.06 2010.85 L1038.2 2010.41 Q1033.26 2009.37 1031.06 2007.23 Q1028.86 2005.06 1028.86 2001.3 Q1028.86 1996.73 1032.1 1994.24 Q1035.34 1991.75 1041.3 1991.75 Q1044.25 1991.75 1046.86 1992.19 Q1049.46 1992.62 1051.66 1993.49 Z" fill="#000000" fill-rule="evenodd" fill-opacity="1" /><path clip-path="url(#clip220)" d="M 0 0 M1064.13 2020.08 L1064.13 2037.27 L1058.78 2037.27 L1058.78 1992.53 L1064.13 1992.53 L1064.13 1997.45 Q1065.81 1994.56 1068.35 1993.17 Q1070.93 1991.75 1074.49 1991.75 Q1080.39 1991.75 1084.07 1996.44 Q1087.77 2001.13 1087.77 2008.77 Q1087.77 2016.4 1084.07 2021.09 Q1080.39 2025.78 1074.49 2025.78 Q1070.93 2025.78 1068.35 2024.39 Q1065.81 2022.97 1064.13 2020.08 M1082.24 2008.77 Q1082.24 2002.89 1079.81 1999.56 Q1077.41 1996.21 1073.19 1996.21 Q1068.96 1996.21 1066.53 1999.56 Q1064.13 2002.89 1064.13 2008.77 Q1064.13 2014.64 1066.53 2018 Q1068.96 2021.32 1073.19 2021.32 Q1077.41 2021.32 1079.81 2018 Q1082.24 2014.64 1082.24 2008.77 Z" fill="#000000" fill-rule="evenodd" fill-opacity="1" /><path clip-path="url(#clip220)" d="M 0 0 M1105.91 1996.27 Q1101.63 1996.27 1099.14 1999.62 Q1096.65 2002.95 1096.65 2008.77 Q1096.65 2014.58 1099.11 2017.94 Q1101.6 2021.27 1105.91 2021.27 Q1110.17 2021.27 1112.65 2017.91 Q1115.14 2014.55 1115.14 2008.77 Q1115.14 2003.01 1112.65 1999.65 Q1110.17 1996.27 1105.91 1996.27 M1105.91 1991.75 Q1112.86 1991.75 1116.82 1996.27 Q1120.79 2000.78 1120.79 2008.77 Q1120.79 2016.72 1116.82 2021.27 Q1112.86 2025.78 1105.91 2025.78 Q1098.94 2025.78 1094.98 2021.27 Q1091.04 2016.72 1091.04 2008.77 Q1091.04 2000.78 1094.98 1996.27 Q1098.94 1991.75 1105.91 1991.75 Z" fill="#000000" fill-rule="evenodd" fill-opacity="1" /><path clip-path="url(#clip220)" d="M 0 0 M1153.31 2005.38 L1153.31 2024.94 L1147.98 2024.94 L1147.98 2005.55 Q1147.98 2000.95 1146.19 1998.67 Q1144.4 1996.38 1140.81 1996.38 Q1136.5 1996.38 1134.01 1999.13 Q1131.52 2001.88 1131.52 2006.62 L1131.52 2024.94 L1126.17 2024.94 L1126.17 1992.53 L1131.52 1992.53 L1131.52 1997.57 Q1133.43 1994.64 1136 1993.2 Q1138.61 1991.75 1141.99 1991.75 Q1147.58 1991.75 1150.44 1995.22 Q1153.31 1998.67 1153.31 2005.38 Z" fill="#000000" fill-rule="evenodd" fill-opacity="1" /><path clip-path="url(#clip220)" d="M 0 0 M1179.55 1993.49 L1179.55 1998.52 Q1177.3 1997.36 1174.86 1996.79 Q1172.43 1996.21 1169.83 1996.21 Q1165.87 1996.21 1163.87 1997.42 Q1161.9 1998.64 1161.9 2001.07 Q1161.9 2002.92 1163.32 2003.99 Q1164.74 2005.03 1169.02 2005.99 L1170.84 2006.39 Q1176.51 2007.61 1178.89 2009.84 Q1181.29 2012.03 1181.29 2016 Q1181.29 2020.51 1177.7 2023.15 Q1174.14 2025.78 1167.89 2025.78 Q1165.29 2025.78 1162.45 2025.26 Q1159.64 2024.77 1156.52 2023.75 L1156.52 2018.26 Q1159.47 2019.79 1162.34 2020.57 Q1165.2 2021.32 1168.01 2021.32 Q1171.77 2021.32 1173.79 2020.05 Q1175.82 2018.75 1175.82 2016.4 Q1175.82 2014.23 1174.34 2013.08 Q1172.9 2011.92 1167.95 2010.85 L1166.1 2010.41 Q1161.15 2009.37 1158.95 2007.23 Q1156.75 2005.06 1156.75 2001.3 Q1156.75 1996.73 1159.99 1994.24 Q1163.23 1991.75 1169.19 1991.75 Q1172.14 1991.75 1174.75 1992.19 Q1177.35 1992.62 1179.55 1993.49 Z" fill="#000000" fill-rule="evenodd" fill-opacity="1" /><path clip-path="url(#clip220)" d="M 0 0 M1214.59 2007.41 L1214.59 2010.01 L1190.11 2010.01 Q1190.46 2015.51 1193.41 2018.4 Q1196.39 2021.27 1201.69 2021.27 Q1204.75 2021.27 1207.62 2020.51 Q1210.51 2019.76 1213.35 2018.26 L1213.35 2023.29 Q1210.48 2024.51 1207.47 2025.14 Q1204.47 2025.78 1201.37 2025.78 Q1193.61 2025.78 1189.07 2021.27 Q1184.56 2016.75 1184.56 2009.05 Q1184.56 2001.1 1188.84 1996.44 Q1193.15 1991.75 1200.44 1991.75 Q1206.98 1991.75 1210.77 1995.98 Q1214.59 2000.17 1214.59 2007.41 M1209.27 2005.84 Q1209.21 2001.47 1206.81 1998.87 Q1204.44 1996.27 1200.5 1996.27 Q1196.05 1996.27 1193.35 1998.78 Q1190.69 2001.3 1190.29 2005.87 L1209.27 2005.84 Z" fill="#000000" fill-rule="evenodd" fill-opacity="1" /><path clip-path="url(#clip220)" d="M 0 0 M1259.73 2004.69 Q1261.61 2005.32 1263.38 2007.41 Q1265.17 2009.49 1266.96 2013.13 L1272.9 2024.94 L1266.62 2024.94 L1261.09 2013.86 Q1258.95 2009.52 1256.92 2008.1 Q1254.93 2006.68 1251.46 2006.68 L1245.09 2006.68 L1245.09 2024.94 L1239.25 2024.94 L1239.25 1981.74 L1252.44 1981.74 Q1259.85 1981.74 1263.49 1984.84 Q1267.14 1987.93 1267.14 1994.18 Q1267.14 1998.26 1265.23 2000.95 Q1263.35 2003.64 1259.73 2004.69 M1245.09 1986.54 L1245.09 2001.88 L1252.44 2001.88 Q1256.66 2001.88 1258.81 1999.94 Q1260.98 1997.97 1260.98 1994.18 Q1260.98 1990.39 1258.81 1988.48 Q1256.66 1986.54 1252.44 1986.54 L1245.09 1986.54 Z" fill="#000000" fill-rule="evenodd" fill-opacity="1" /><path clip-path="url(#clip220)" d="M 0 0 M1291.91 2008.65 Q1285.45 2008.65 1282.97 2010.13 Q1280.48 2011.6 1280.48 2015.16 Q1280.48 2018 1282.33 2019.67 Q1284.21 2021.32 1287.42 2021.32 Q1291.85 2021.32 1294.51 2018.2 Q1297.2 2015.04 1297.2 2009.84 L1297.2 2008.65 L1291.91 2008.65 M1302.53 2006.45 L1302.53 2024.94 L1297.2 2024.94 L1297.2 2020.02 Q1295.38 2022.97 1292.66 2024.39 Q1289.94 2025.78 1286 2025.78 Q1281.03 2025.78 1278.08 2023 Q1275.15 2020.19 1275.15 2015.51 Q1275.15 2010.04 1278.8 2007.26 Q1282.47 2004.48 1289.74 2004.48 L1297.2 2004.48 L1297.2 2003.96 Q1297.2 2000.29 1294.77 1998.29 Q1292.37 1996.27 1288 1996.27 Q1285.22 1996.27 1282.59 1996.93 Q1279.96 1997.6 1277.53 1998.93 L1277.53 1994.01 Q1280.45 1992.88 1283.2 1992.33 Q1285.95 1991.75 1288.55 1991.75 Q1295.58 1991.75 1299.05 1995.4 Q1302.53 1999.04 1302.53 2006.45 Z" fill="#000000" fill-rule="evenodd" fill-opacity="1" /><path clip-path="url(#clip220)" d="M 0 0 M1313.38 1983.33 L1313.38 1992.53 L1324.34 1992.53 L1324.34 1996.67 L1313.38 1996.67 L1313.38 2014.26 Q1313.38 2018.23 1314.45 2019.36 Q1315.55 2020.48 1318.87 2020.48 L1324.34 2020.48 L1324.34 2024.94 L1318.87 2024.94 Q1312.71 2024.94 1310.37 2022.65 Q1308.02 2020.34 1308.02 2014.26 L1308.02 1996.67 L1304.12 1996.67 L1304.12 1992.53 L1308.02 1992.53 L1308.02 1983.33 L1313.38 1983.33 Z" fill="#000000" fill-rule="evenodd" fill-opacity="1" /><path clip-path="url(#clip220)" d="M 0 0 M1357.65 2007.41 L1357.65 2010.01 L1333.17 2010.01 Q1333.52 2015.51 1336.47 2018.4 Q1339.45 2021.27 1344.74 2021.27 Q1347.81 2021.27 1350.67 2020.51 Q1353.57 2019.76 1356.4 2018.26 L1356.4 2023.29 Q1353.54 2024.51 1350.53 2025.14 Q1347.52 2025.78 1344.42 2025.78 Q1336.67 2025.78 1332.13 2021.27 Q1327.61 2016.75 1327.61 2009.05 Q1327.61 2001.1 1331.9 1996.44 Q1336.21 1991.75 1343.5 1991.75 Q1350.04 1991.75 1353.83 1995.98 Q1357.65 2000.17 1357.65 2007.41 M1352.32 2005.84 Q1352.27 2001.47 1349.86 1998.87 Q1347.49 1996.27 1343.56 1996.27 Q1339.1 1996.27 1336.41 1998.78 Q1333.75 2001.3 1333.34 2005.87 L1352.32 2005.84 Z" fill="#000000" fill-rule="evenodd" fill-opacity="1" /><polyline clip-path="url(#clip222)" style="stroke:#000000; stroke-width:2; stroke-opacity:0.1; fill:none" points="
  98.7402,1559.18 1952.76,1559.18 
  "/>
<polyline clip-path="url(#clip222)" style="stroke:#000000; stroke-width:2; stroke-opacity:0.1; fill:none" points="
  98.7402,1174.2 1952.76,1174.2 
  "/>
<polyline clip-path="url(#clip222)" style="stroke:#000000; stroke-width:2; stroke-opacity:0.1; fill:none" points="
  98.7402,789.212 1952.76,789.212 
  "/>
<polyline clip-path="url(#clip222)" style="stroke:#000000; stroke-width:2; stroke-opacity:0.1; fill:none" points="
  98.7402,404.227 1952.76,404.227 
  "/>
<polyline clip-path="url(#clip220)" style="stroke:#000000; stroke-width:4; stroke-opacity:1; fill:none" points="
  98.7402,1901.26 98.7402,62.9921 
  "/>
<polyline clip-path="url(#clip220)" style="stroke:#000000; stroke-width:4; stroke-opacity:1; fill:none" points="
  98.7402,1559.18 120.988,1559.18 
  "/>
<polyline clip-path="url(#clip220)" style="stroke:#000000; stroke-width:4; stroke-opacity:1; fill:none" points="
  98.7402,1174.2 120.988,1174.2 
  "/>
<polyline clip-path="url(#clip220)" style="stroke:#000000; stroke-width:4; stroke-opacity:1; fill:none" points="
  98.7402,789.212 120.988,789.212 
  "/>
<polyline clip-path="url(#clip220)" style="stroke:#000000; stroke-width:4; stroke-opacity:1; fill:none" points="
  98.7402,404.227 120.988,404.227 
  "/>
<path clip-path="url(#clip220)" d="M 0 0 M21.4256 1544.98 Q17.8145 1544.98 15.9858 1548.55 Q14.1803 1552.09 14.1803 1559.22 Q14.1803 1566.32 15.9858 1569.89 Q17.8145 1573.43 21.4256 1573.43 Q25.0598 1573.43 26.8654 1569.89 Q28.6941 1566.32 28.6941 1559.22 Q28.6941 1552.09 26.8654 1548.55 Q25.0598 1544.98 21.4256 1544.98 M21.4256 1541.28 Q27.2358 1541.28 30.2913 1545.88 Q33.37 1550.47 33.37 1559.22 Q33.37 1567.94 30.2913 1572.55 Q27.2358 1577.13 21.4256 1577.13 Q15.6154 1577.13 12.5368 1572.55 Q9.48122 1567.94 9.48122 1559.22 Q9.48122 1550.47 12.5368 1545.88 Q15.6154 1541.28 21.4256 1541.28 Z" fill="#000000" fill-rule="evenodd" fill-opacity="1" /><path clip-path="url(#clip220)" d="M 0 0 M38.4394 1570.58 L43.3236 1570.58 L43.3236 1576.46 L38.4394 1576.46 L38.4394 1570.58 Z" fill="#000000" fill-rule="evenodd" fill-opacity="1" /><path clip-path="url(#clip220)" d="M 0 0 M52.4208 1572.53 L68.7402 1572.53 L68.7402 1576.46 L46.7958 1576.46 L46.7958 1572.53 Q49.4579 1569.77 54.0412 1565.14 Q58.6476 1560.49 59.8282 1559.15 Q62.0735 1556.63 62.9532 1554.89 Q63.8559 1553.13 63.8559 1551.44 Q63.8559 1548.69 61.9115 1546.95 Q59.9902 1545.21 56.8884 1545.21 Q54.6893 1545.21 52.2356 1545.98 Q49.8051 1546.74 47.0273 1548.29 L47.0273 1543.57 Q49.8514 1542.44 52.3051 1541.86 Q54.7588 1541.28 56.7958 1541.28 Q62.1661 1541.28 65.3605 1543.96 Q68.555 1546.65 68.555 1551.14 Q68.555 1553.27 67.7448 1555.19 Q66.9578 1557.09 64.8513 1559.68 Q64.2726 1560.35 61.1708 1563.57 Q58.0689 1566.76 52.4208 1572.53 Z" fill="#000000" fill-rule="evenodd" fill-opacity="1" /><path clip-path="url(#clip220)" d="M 0 0 M19.3423 1160 Q15.7312 1160 13.9025 1163.56 Q12.0969 1167.1 12.0969 1174.23 Q12.0969 1181.34 13.9025 1184.9 Q15.7312 1188.45 19.3423 1188.45 Q22.9765 1188.45 24.7821 1184.9 Q26.6108 1181.34 26.6108 1174.23 Q26.6108 1167.1 24.7821 1163.56 Q22.9765 1160 19.3423 1160 M19.3423 1156.29 Q25.1524 1156.29 28.208 1160.9 Q31.2867 1165.48 31.2867 1174.23 Q31.2867 1182.96 28.208 1187.57 Q25.1524 1192.15 19.3423 1192.15 Q13.5321 1192.15 10.4534 1187.57 Q7.39789 1182.96 7.39789 1174.23 Q7.39789 1165.48 10.4534 1160.9 Q13.5321 1156.29 19.3423 1156.29 Z" fill="#000000" fill-rule="evenodd" fill-opacity="1" /><path clip-path="url(#clip220)" d="M 0 0 M36.3561 1185.6 L41.2403 1185.6 L41.2403 1191.48 L36.3561 1191.48 L36.3561 1185.6 Z" fill="#000000" fill-rule="evenodd" fill-opacity="1" /><path clip-path="url(#clip220)" d="M 0 0 M59.1569 1160.99 L47.3514 1179.44 L59.1569 1179.44 L59.1569 1160.99 M57.93 1156.92 L63.8096 1156.92 L63.8096 1179.44 L68.7402 1179.44 L68.7402 1183.33 L63.8096 1183.33 L63.8096 1191.48 L59.1569 1191.48 L59.1569 1183.33 L43.5551 1183.33 L43.5551 1178.82 L57.93 1156.92 Z" fill="#000000" fill-rule="evenodd" fill-opacity="1" /><path clip-path="url(#clip220)" d="M 0 0 M19.6663 775.011 Q16.0553 775.011 14.2266 778.576 Q12.421 782.117 12.421 789.247 Q12.421 796.353 14.2266 799.918 Q16.0553 803.46 19.6663 803.46 Q23.3006 803.46 25.1061 799.918 Q26.9348 796.353 26.9348 789.247 Q26.9348 782.117 25.1061 778.576 Q23.3006 775.011 19.6663 775.011 M19.6663 771.307 Q25.4765 771.307 28.532 775.914 Q31.6107 780.497 31.6107 789.247 Q31.6107 797.974 28.532 802.58 Q25.4765 807.163 19.6663 807.163 Q13.8562 807.163 10.7775 802.58 Q7.72197 797.974 7.72197 789.247 Q7.72197 780.497 10.7775 775.914 Q13.8562 771.307 19.6663 771.307 Z" fill="#000000" fill-rule="evenodd" fill-opacity="1" /><path clip-path="url(#clip220)" d="M 0 0 M36.6801 800.613 L41.5644 800.613 L41.5644 806.492 L36.6801 806.492 L36.6801 800.613 Z" fill="#000000" fill-rule="evenodd" fill-opacity="1" /><path clip-path="url(#clip220)" d="M 0 0 M57.2124 787.349 Q54.0643 787.349 52.2125 789.501 Q50.3838 791.654 50.3838 795.404 Q50.3838 799.131 52.2125 801.307 Q54.0643 803.46 57.2124 803.46 Q60.3606 803.46 62.1893 801.307 Q64.0411 799.131 64.0411 795.404 Q64.0411 791.654 62.1893 789.501 Q60.3606 787.349 57.2124 787.349 M66.4948 772.696 L66.4948 776.955 Q64.7355 776.122 62.93 775.682 Q61.1476 775.242 59.3884 775.242 Q54.7588 775.242 52.3051 778.367 Q49.8745 781.492 49.5273 787.812 Q50.893 785.798 52.9532 784.733 Q55.0134 783.645 57.4902 783.645 Q62.6985 783.645 65.7078 786.816 Q68.7402 789.964 68.7402 795.404 Q68.7402 800.728 65.592 803.946 Q62.4439 807.163 57.2124 807.163 Q51.2171 807.163 48.0458 802.58 Q44.8745 797.974 44.8745 789.247 Q44.8745 781.052 48.7634 776.191 Q52.6523 771.307 59.2032 771.307 Q60.9624 771.307 62.7448 771.654 Q64.5504 772.002 66.4948 772.696 Z" fill="#000000" fill-rule="evenodd" fill-opacity="1" /><path clip-path="url(#clip220)" d="M 0 0 M19.921 390.025 Q16.3099 390.025 14.4812 393.59 Q12.6756 397.132 12.6756 404.261 Q12.6756 411.368 14.4812 414.933 Q16.3099 418.474 19.921 418.474 Q23.5552 418.474 25.3608 414.933 Q27.1895 411.368 27.1895 404.261 Q27.1895 397.132 25.3608 393.59 Q23.5552 390.025 19.921 390.025 M19.921 386.322 Q25.7311 386.322 28.7867 390.928 Q31.8654 395.511 31.8654 404.261 Q31.8654 412.988 28.7867 417.595 Q25.7311 422.178 19.921 422.178 Q14.1108 422.178 11.0321 417.595 Q7.97659 412.988 7.97659 404.261 Q7.97659 395.511 11.0321 390.928 Q14.1108 386.322 19.921 386.322 Z" fill="#000000" fill-rule="evenodd" fill-opacity="1" /><path clip-path="url(#clip220)" d="M 0 0 M36.9348 415.627 L41.819 415.627 L41.819 421.507 L36.9348 421.507 L36.9348 415.627 Z" fill="#000000" fill-rule="evenodd" fill-opacity="1" /><path clip-path="url(#clip220)" d="M 0 0 M56.8884 405.095 Q53.5551 405.095 51.6338 406.877 Q49.7356 408.66 49.7356 411.785 Q49.7356 414.91 51.6338 416.692 Q53.5551 418.474 56.8884 418.474 Q60.2217 418.474 62.143 416.692 Q64.0643 414.886 64.0643 411.785 Q64.0643 408.66 62.143 406.877 Q60.2448 405.095 56.8884 405.095 M52.2125 403.104 Q49.2032 402.363 47.5134 400.303 Q45.8468 398.243 45.8468 395.28 Q45.8468 391.136 48.7866 388.729 Q51.7495 386.322 56.8884 386.322 Q62.0504 386.322 64.9902 388.729 Q67.93 391.136 67.93 395.28 Q67.93 398.243 66.2402 400.303 Q64.5735 402.363 61.5874 403.104 Q64.967 403.891 66.842 406.183 Q68.7402 408.474 68.7402 411.785 Q68.7402 416.808 65.6615 419.493 Q62.6059 422.178 56.8884 422.178 Q51.1708 422.178 48.0921 419.493 Q45.0366 416.808 45.0366 411.785 Q45.0366 408.474 46.9347 406.183 Q48.8329 403.891 52.2125 403.104 M50.4995 395.72 Q50.4995 398.405 52.1662 399.91 Q53.856 401.414 56.8884 401.414 Q59.8976 401.414 61.5874 399.91 Q63.3004 398.405 63.3004 395.72 Q63.3004 393.035 61.5874 391.53 Q59.8976 390.025 56.8884 390.025 Q53.856 390.025 52.1662 391.53 Q50.4995 393.035 50.4995 395.72 Z" fill="#000000" fill-rule="evenodd" fill-opacity="1" /><path clip-path="url(#clip220)" d="M 0 0 M-54.798 1302.12 Q-54.798 1308.48 -50.0527 1312.25 Q-45.3073 1315.98 -37.1187 1315.98 Q-28.959 1315.98 -24.2137 1312.25 Q-19.4683 1308.48 -19.4683 1302.12 Q-19.4683 1295.75 -24.2137 1292.05 Q-28.959 1288.32 -37.1187 1288.32 Q-45.3073 1288.32 -50.0527 1292.05 Q-54.798 1295.75 -54.798 1302.12 M-59.5434 1302.12 Q-59.5434 1293.03 -53.4381 1287.59 Q-47.3617 1282.15 -37.1187 1282.15 Q-26.9046 1282.15 -20.7993 1287.59 Q-14.723 1293.03 -14.723 1302.12 Q-14.723 1311.23 -20.7993 1316.7 Q-26.8757 1322.14 -37.1187 1322.14 Q-47.3617 1322.14 -53.4381 1316.7 Q-59.5434 1311.23 -59.5434 1302.12 Z" fill="#000000" fill-rule="evenodd" fill-opacity="1" /><path clip-path="url(#clip220)" d="M 0 0 M-31.7368 1253.31 Q-37.6106 1253.31 -40.9381 1255.74 Q-44.2946 1258.14 -44.2946 1262.36 Q-44.2946 1266.59 -40.9381 1269.02 Q-37.6106 1271.42 -31.7368 1271.42 Q-25.863 1271.42 -22.5065 1269.02 Q-19.179 1266.59 -19.179 1262.36 Q-19.179 1258.14 -22.5065 1255.74 Q-25.863 1253.31 -31.7368 1253.31 M-43.0504 1271.42 Q-45.9439 1269.74 -47.3328 1267.19 Q-48.7506 1264.62 -48.7506 1261.06 Q-48.7506 1255.16 -44.0631 1251.48 Q-39.3756 1247.78 -31.7368 1247.78 Q-24.0979 1247.78 -19.4105 1251.48 Q-14.723 1255.16 -14.723 1261.06 Q-14.723 1264.62 -16.1119 1267.19 Q-17.5297 1269.74 -20.4232 1271.42 L-15.5621 1271.42 L-15.5621 1276.77 L-60.585 1276.77 L-60.585 1271.42 L-43.0504 1271.42 Z" fill="#000000" fill-rule="evenodd" fill-opacity="1" /><path clip-path="url(#clip220)" d="M 0 0 M-47.0145 1221.53 L-41.9798 1221.53 Q-43.1372 1223.79 -43.7159 1226.22 Q-44.2946 1228.65 -44.2946 1231.26 Q-44.2946 1235.22 -43.0793 1237.22 Q-41.864 1239.18 -39.4335 1239.18 Q-37.5817 1239.18 -36.5111 1237.77 Q-35.4694 1236.35 -34.5146 1232.07 L-34.1095 1230.24 Q-32.8942 1224.57 -30.6662 1222.2 Q-28.4671 1219.8 -24.503 1219.8 Q-19.9892 1219.8 -17.3561 1223.39 Q-14.723 1226.95 -14.723 1233.2 Q-14.723 1235.8 -15.2438 1238.64 Q-15.7357 1241.44 -16.7484 1244.57 L-22.2461 1244.57 Q-20.7125 1241.62 -19.9313 1238.75 Q-19.179 1235.89 -19.179 1233.08 Q-19.179 1229.32 -20.4521 1227.29 Q-21.7542 1225.27 -24.0979 1225.27 Q-26.2681 1225.27 -27.4255 1226.74 Q-28.5829 1228.19 -29.6535 1233.14 L-30.0875 1234.99 Q-31.1292 1239.94 -33.2703 1242.14 Q-35.4405 1244.34 -39.202 1244.34 Q-43.7738 1244.34 -46.2622 1241.09 Q-48.7506 1237.85 -48.7506 1231.89 Q-48.7506 1228.94 -48.3166 1226.34 Q-47.8825 1223.73 -47.0145 1221.53 Z" fill="#000000" fill-rule="evenodd" fill-opacity="1" /><path clip-path="url(#clip220)" d="M 0 0 M-33.0967 1186.49 L-30.4926 1186.49 L-30.4926 1210.97 Q-24.9949 1210.63 -22.1014 1207.67 Q-19.2369 1204.69 -19.2369 1199.4 Q-19.2369 1196.33 -19.9892 1193.47 Q-20.7415 1190.57 -22.2461 1187.74 L-17.2114 1187.74 Q-15.9961 1190.6 -15.3596 1193.61 Q-14.723 1196.62 -14.723 1199.72 Q-14.723 1207.47 -19.2369 1212.01 Q-23.7507 1216.53 -31.4474 1216.53 Q-39.4046 1216.53 -44.0631 1212.25 Q-48.7506 1207.93 -48.7506 1200.64 Q-48.7506 1194.1 -44.5261 1190.31 Q-40.3305 1186.49 -33.0967 1186.49 M-34.6592 1191.82 Q-39.0284 1191.88 -41.6326 1194.28 Q-44.2367 1196.65 -44.2367 1200.59 Q-44.2367 1205.04 -41.7194 1207.73 Q-39.202 1210.39 -34.6303 1210.8 L-34.6592 1191.82 Z" fill="#000000" fill-rule="evenodd" fill-opacity="1" /><path clip-path="url(#clip220)" d="M 0 0 M-42.9925 1162.13 Q-43.5133 1163.03 -43.7448 1164.1 Q-44.0052 1165.14 -44.0052 1166.41 Q-44.0052 1170.93 -41.0539 1173.36 Q-38.1314 1175.76 -32.6338 1175.76 L-15.5621 1175.76 L-15.5621 1181.11 L-47.9693 1181.11 L-47.9693 1175.76 L-42.9346 1175.76 Q-45.886 1174.08 -47.3038 1171.39 Q-48.7506 1168.7 -48.7506 1164.85 Q-48.7506 1164.3 -48.6638 1163.64 Q-48.6059 1162.97 -48.4612 1162.16 L-42.9925 1162.13 Z" fill="#000000" fill-rule="evenodd" fill-opacity="1" /><path clip-path="url(#clip220)" d="M 0 0 M-47.9693 1160.37 L-47.9693 1154.72 L-20.7704 1144.6 L-47.9693 1134.47 L-47.9693 1128.83 L-15.5621 1140.98 L-15.5621 1148.21 L-47.9693 1160.37 Z" fill="#000000" fill-rule="evenodd" fill-opacity="1" /><path clip-path="url(#clip220)" d="M 0 0 M-33.0967 1095.52 L-30.4926 1095.52 L-30.4926 1120 Q-24.9949 1119.65 -22.1014 1116.7 Q-19.2369 1113.72 -19.2369 1108.43 Q-19.2369 1105.36 -19.9892 1102.5 Q-20.7415 1099.6 -22.2461 1096.77 L-17.2114 1096.77 Q-15.9961 1099.63 -15.3596 1102.64 Q-14.723 1105.65 -14.723 1108.75 Q-14.723 1116.5 -19.2369 1121.04 Q-23.7507 1125.56 -31.4474 1125.56 Q-39.4046 1125.56 -44.0631 1121.27 Q-48.7506 1116.96 -48.7506 1109.67 Q-48.7506 1103.13 -44.5261 1099.34 Q-40.3305 1095.52 -33.0967 1095.52 M-34.6592 1100.85 Q-39.0284 1100.9 -41.6326 1103.31 Q-44.2367 1105.68 -44.2367 1109.61 Q-44.2367 1114.07 -41.7194 1116.76 Q-39.202 1119.42 -34.6303 1119.83 L-34.6592 1100.85 Z" fill="#000000" fill-rule="evenodd" fill-opacity="1" /><path clip-path="url(#clip220)" d="M 0 0 M-43.0504 1068.61 L-60.585 1068.61 L-60.585 1063.29 L-15.5621 1063.29 L-15.5621 1068.61 L-20.4232 1068.61 Q-17.5297 1070.29 -16.1119 1072.87 Q-14.723 1075.41 -14.723 1079 Q-14.723 1084.87 -19.4105 1088.58 Q-24.0979 1092.25 -31.7368 1092.25 Q-39.3756 1092.25 -44.0631 1088.58 Q-48.7506 1084.87 -48.7506 1079 Q-48.7506 1075.41 -47.3328 1072.87 Q-45.9439 1070.29 -43.0504 1068.61 M-31.7368 1086.76 Q-25.863 1086.76 -22.5065 1084.35 Q-19.179 1081.92 -19.179 1077.7 Q-19.179 1073.47 -22.5065 1071.04 Q-25.863 1068.61 -31.7368 1068.61 Q-37.6106 1068.61 -40.9381 1071.04 Q-44.2946 1073.47 -44.2946 1077.7 Q-44.2946 1081.92 -40.9381 1084.35 Q-37.6106 1086.76 -31.7368 1086.76 Z" fill="#000000" fill-rule="evenodd" fill-opacity="1" /><path clip-path="url(#clip220)" d="M 0 0 M-35.8166 1018.15 Q-35.1801 1016.27 -33.0967 1014.5 Q-31.0134 1012.71 -27.3676 1010.92 L-15.5621 1004.98 L-15.5621 1011.26 L-26.6442 1016.79 Q-30.9845 1018.93 -32.4023 1020.96 Q-33.8201 1022.95 -33.8201 1026.43 L-33.8201 1032.79 L-15.5621 1032.79 L-15.5621 1038.64 L-58.7621 1038.64 L-58.7621 1025.44 Q-58.7621 1018.03 -55.6661 1014.39 Q-52.57 1010.74 -46.32 1010.74 Q-42.2402 1010.74 -39.5492 1012.65 Q-36.8583 1014.53 -35.8166 1018.15 M-53.9589 1032.79 L-38.6233 1032.79 L-38.6233 1025.44 Q-38.6233 1021.22 -40.562 1019.08 Q-42.5296 1016.91 -46.32 1016.91 Q-50.1105 1016.91 -52.0202 1019.08 Q-53.9589 1021.22 -53.9589 1025.44 L-53.9589 1032.79 Z" fill="#000000" fill-rule="evenodd" fill-opacity="1" /><path clip-path="url(#clip220)" d="M 0 0 M-33.0967 974.342 L-30.4926 974.342 L-30.4926 998.821 Q-24.9949 998.474 -22.1014 995.523 Q-19.2369 992.543 -19.2369 987.247 Q-19.2369 984.18 -19.9892 981.316 Q-20.7415 978.422 -22.2461 975.587 L-17.2114 975.587 Q-15.9961 978.451 -15.3596 981.46 Q-14.723 984.47 -14.723 987.566 Q-14.723 995.32 -19.2369 999.863 Q-23.7507 1004.38 -31.4474 1004.38 Q-39.4046 1004.38 -44.0631 1000.09 Q-48.7506 995.783 -48.7506 988.492 Q-48.7506 981.952 -44.5261 978.162 Q-40.3305 974.342 -33.0967 974.342 M-34.6592 979.667 Q-39.0284 979.724 -41.6326 982.126 Q-44.2367 984.499 -44.2367 988.434 Q-44.2367 992.89 -41.7194 995.581 Q-39.202 998.243 -34.6303 998.648 L-34.6592 979.667 Z" fill="#000000" fill-rule="evenodd" fill-opacity="1" /><path clip-path="url(#clip220)" d="M 0 0 M-47.0145 948.098 L-41.9798 948.098 Q-43.1372 950.355 -43.7159 952.786 Q-44.2946 955.216 -44.2946 957.821 Q-44.2946 961.785 -43.0793 963.781 Q-41.864 965.749 -39.4335 965.749 Q-37.5817 965.749 -36.5111 964.331 Q-35.4694 962.913 -34.5146 958.631 L-34.1095 956.808 Q-32.8942 951.137 -30.6662 948.764 Q-28.4671 946.362 -24.503 946.362 Q-19.9892 946.362 -17.3561 949.95 Q-14.723 953.509 -14.723 959.759 Q-14.723 962.363 -15.2438 965.199 Q-15.7357 968.006 -16.7484 971.131 L-22.2461 971.131 Q-20.7125 968.179 -19.9313 965.315 Q-19.179 962.45 -19.179 959.643 Q-19.179 955.882 -20.4521 953.856 Q-21.7542 951.831 -24.0979 951.831 Q-26.2681 951.831 -27.4255 953.307 Q-28.5829 954.753 -29.6535 959.701 L-30.0875 961.553 Q-31.1292 966.501 -33.2703 968.7 Q-35.4405 970.899 -39.202 970.899 Q-43.7738 970.899 -46.2622 967.658 Q-48.7506 964.418 -48.7506 958.457 Q-48.7506 955.506 -48.3166 952.902 Q-47.8825 950.297 -47.0145 948.098 Z" fill="#000000" fill-rule="evenodd" fill-opacity="1" /><path clip-path="url(#clip220)" d="M 0 0 M-20.4232 935.627 L-3.23578 935.627 L-3.23578 940.98 L-47.9693 940.98 L-47.9693 935.627 L-43.0504 935.627 Q-45.9439 933.949 -47.3328 931.403 Q-48.7506 928.828 -48.7506 925.269 Q-48.7506 919.366 -44.0631 915.691 Q-39.3756 911.987 -31.7368 911.987 Q-24.0979 911.987 -19.4105 915.691 Q-14.723 919.366 -14.723 925.269 Q-14.723 928.828 -16.1119 931.403 Q-17.5297 933.949 -20.4232 935.627 M-31.7368 917.514 Q-37.6106 917.514 -40.9381 919.945 Q-44.2946 922.346 -44.2946 926.571 Q-44.2946 930.795 -40.9381 933.226 Q-37.6106 935.627 -31.7368 935.627 Q-25.863 935.627 -22.5065 933.226 Q-19.179 930.795 -19.179 926.571 Q-19.179 922.346 -22.5065 919.945 Q-25.863 917.514 -31.7368 917.514 Z" fill="#000000" fill-rule="evenodd" fill-opacity="1" /><path clip-path="url(#clip220)" d="M 0 0 M-44.2367 893.845 Q-44.2367 898.128 -40.8803 900.616 Q-37.5527 903.104 -31.7368 903.104 Q-25.9208 903.104 -22.5644 900.645 Q-19.2369 898.157 -19.2369 893.845 Q-19.2369 889.592 -22.5933 887.103 Q-25.9498 884.615 -31.7368 884.615 Q-37.4949 884.615 -40.8513 887.103 Q-44.2367 889.592 -44.2367 893.845 M-48.7506 893.845 Q-48.7506 886.901 -44.2367 882.937 Q-39.7229 878.973 -31.7368 878.973 Q-23.7797 878.973 -19.2369 882.937 Q-14.723 886.901 -14.723 893.845 Q-14.723 900.819 -19.2369 904.783 Q-23.7797 908.718 -31.7368 908.718 Q-39.7229 908.718 -44.2367 904.783 Q-48.7506 900.819 -48.7506 893.845 Z" fill="#000000" fill-rule="evenodd" fill-opacity="1" /><path clip-path="url(#clip220)" d="M 0 0 M-35.1222 846.45 L-15.5621 846.45 L-15.5621 851.774 L-34.9486 851.774 Q-39.5492 851.774 -41.8351 853.568 Q-44.121 855.362 -44.121 858.95 Q-44.121 863.261 -41.3722 865.749 Q-38.6233 868.238 -33.878 868.238 L-15.5621 868.238 L-15.5621 873.591 L-47.9693 873.591 L-47.9693 868.238 L-42.9346 868.238 Q-45.8571 866.328 -47.3038 863.753 Q-48.7506 861.149 -48.7506 857.763 Q-48.7506 852.179 -45.2784 849.314 Q-41.8351 846.45 -35.1222 846.45 Z" fill="#000000" fill-rule="evenodd" fill-opacity="1" /><path clip-path="url(#clip220)" d="M 0 0 M-47.0145 820.206 L-41.9798 820.206 Q-43.1372 822.462 -43.7159 824.893 Q-44.2946 827.324 -44.2946 829.928 Q-44.2946 833.892 -43.0793 835.888 Q-41.864 837.856 -39.4335 837.856 Q-37.5817 837.856 -36.5111 836.438 Q-35.4694 835.02 -34.5146 830.738 L-34.1095 828.915 Q-32.8942 823.244 -30.6662 820.871 Q-28.4671 818.469 -24.503 818.469 Q-19.9892 818.469 -17.3561 822.057 Q-14.723 825.616 -14.723 831.866 Q-14.723 834.471 -15.2438 837.306 Q-15.7357 840.113 -16.7484 843.238 L-22.2461 843.238 Q-20.7125 840.286 -19.9313 837.422 Q-19.179 834.557 -19.179 831.751 Q-19.179 827.989 -20.4521 825.964 Q-21.7542 823.938 -24.0979 823.938 Q-26.2681 823.938 -27.4255 825.414 Q-28.5829 826.861 -29.6535 831.809 L-30.0875 833.66 Q-31.1292 838.608 -33.2703 840.807 Q-35.4405 843.006 -39.202 843.006 Q-43.7738 843.006 -46.2622 839.766 Q-48.7506 836.525 -48.7506 830.564 Q-48.7506 827.613 -48.3166 825.009 Q-47.8825 822.405 -47.0145 820.206 Z" fill="#000000" fill-rule="evenodd" fill-opacity="1" /><path clip-path="url(#clip220)" d="M 0 0 M-33.0967 785.165 L-30.4926 785.165 L-30.4926 809.644 Q-24.9949 809.297 -22.1014 806.346 Q-19.2369 803.365 -19.2369 798.07 Q-19.2369 795.003 -19.9892 792.139 Q-20.7415 789.245 -22.2461 786.409 L-17.2114 786.409 Q-15.9961 789.274 -15.3596 792.283 Q-14.723 795.292 -14.723 798.389 Q-14.723 806.143 -19.2369 810.686 Q-23.7507 815.2 -31.4474 815.2 Q-39.4046 815.2 -44.0631 810.917 Q-48.7506 806.606 -48.7506 799.314 Q-48.7506 792.775 -44.5261 788.985 Q-40.3305 785.165 -33.0967 785.165 M-34.6592 790.489 Q-39.0284 790.547 -41.6326 792.949 Q-44.2367 795.321 -44.2367 799.257 Q-44.2367 803.713 -41.7194 806.404 Q-39.202 809.066 -34.6303 809.471 L-34.6592 790.489 Z" fill="#000000" fill-rule="evenodd" fill-opacity="1" /><path clip-path="url(#clip220)" d="M 0 0 M-35.8166 740.027 Q-35.1801 738.146 -33.0967 736.381 Q-31.0134 734.587 -27.3676 732.793 L-15.5621 726.861 L-15.5621 733.14 L-26.6442 738.667 Q-30.9845 740.808 -32.4023 742.833 Q-33.8201 744.83 -33.8201 748.302 L-33.8201 754.668 L-15.5621 754.668 L-15.5621 760.513 L-58.7621 760.513 L-58.7621 747.318 Q-58.7621 739.911 -55.6661 736.265 Q-52.57 732.619 -46.32 732.619 Q-42.2402 732.619 -39.5492 734.529 Q-36.8583 736.41 -35.8166 740.027 M-53.9589 754.668 L-38.6233 754.668 L-38.6233 747.318 Q-38.6233 743.094 -40.562 740.953 Q-42.5296 738.782 -46.32 738.782 Q-50.1105 738.782 -52.0202 740.953 Q-53.9589 743.094 -53.9589 747.318 L-53.9589 754.668 Z" fill="#000000" fill-rule="evenodd" fill-opacity="1" /><path clip-path="url(#clip220)" d="M 0 0 M-31.8525 707.851 Q-31.8525 714.303 -30.3768 716.792 Q-28.9012 719.28 -25.3421 719.28 Q-22.5065 719.28 -20.8283 717.428 Q-19.179 715.548 -19.179 712.336 Q-19.179 707.909 -22.304 705.247 Q-25.4579 702.556 -30.6662 702.556 L-31.8525 702.556 L-31.8525 707.851 M-34.0516 697.232 L-15.5621 697.232 L-15.5621 702.556 L-20.4811 702.556 Q-17.5297 704.379 -16.1119 707.099 Q-14.723 709.818 -14.723 713.754 Q-14.723 718.73 -17.5008 721.682 Q-20.3075 724.604 -24.9949 724.604 Q-30.4636 724.604 -33.2414 720.958 Q-36.0192 717.284 -36.0192 710.021 L-36.0192 702.556 L-36.54 702.556 Q-40.2148 702.556 -42.2113 704.986 Q-44.2367 707.388 -44.2367 711.757 Q-44.2367 714.535 -43.5712 717.168 Q-42.9057 719.801 -41.5747 722.232 L-46.4937 722.232 Q-47.6221 719.309 -48.1719 716.56 Q-48.7506 713.811 -48.7506 711.207 Q-48.7506 704.176 -45.1048 700.704 Q-41.459 697.232 -34.0516 697.232 Z" fill="#000000" fill-rule="evenodd" fill-opacity="1" /><path clip-path="url(#clip220)" d="M 0 0 M-57.1707 686.381 L-47.9693 686.381 L-47.9693 675.415 L-43.8316 675.415 L-43.8316 686.381 L-26.2391 686.381 Q-22.275 686.381 -21.1466 685.31 Q-20.0181 684.211 -20.0181 680.883 L-20.0181 675.415 L-15.5621 675.415 L-15.5621 680.883 Q-15.5621 687.047 -17.848 689.39 Q-20.1628 691.734 -26.2391 691.734 L-43.8316 691.734 L-43.8316 695.64 L-47.9693 695.64 L-47.9693 691.734 L-57.1707 691.734 L-57.1707 686.381 Z" fill="#000000" fill-rule="evenodd" fill-opacity="1" /><path clip-path="url(#clip220)" d="M 0 0 M-33.0967 642.11 L-30.4926 642.11 L-30.4926 666.589 Q-24.9949 666.242 -22.1014 663.291 Q-19.2369 660.311 -19.2369 655.015 Q-19.2369 651.948 -19.9892 649.084 Q-20.7415 646.19 -22.2461 643.355 L-17.2114 643.355 Q-15.9961 646.219 -15.3596 649.228 Q-14.723 652.238 -14.723 655.334 Q-14.723 663.088 -19.2369 667.631 Q-23.7507 672.145 -31.4474 672.145 Q-39.4046 672.145 -44.0631 667.863 Q-48.7506 663.551 -48.7506 656.26 Q-48.7506 649.72 -44.5261 645.93 Q-40.3305 642.11 -33.0967 642.11 M-34.6592 647.434 Q-39.0284 647.492 -41.6326 649.894 Q-44.2367 652.267 -44.2367 656.202 Q-44.2367 660.658 -41.7194 663.349 Q-39.202 666.011 -34.6303 666.416 L-34.6592 647.434 Z" fill="#000000" fill-rule="evenodd" fill-opacity="1" /><path clip-path="url(#clip220)" d="M 0 0 M679.931 9.504 L689.511 9.504 L701.638 41.8418 L713.828 9.504 L723.409 9.504 L723.409 57.024 L717.139 57.024 L717.139 15.2968 L704.885 47.8892 L698.423 47.8892 L686.169 15.2968 L686.169 57.024 L679.931 57.024 L679.931 9.504 Z" fill="#000000" fill-rule="evenodd" fill-opacity="1" /><path clip-path="url(#clip220)" d="M 0 0 M743.365 25.4819 Q738.655 25.4819 735.917 29.174 Q733.18 32.8343 733.18 39.2318 Q733.18 45.6294 735.886 49.3215 Q738.623 52.9818 743.365 52.9818 Q748.044 52.9818 750.781 49.2897 Q753.519 45.5976 753.519 39.2318 Q753.519 32.898 750.781 29.2059 Q748.044 25.4819 743.365 25.4819 M743.365 20.5167 Q751.004 20.5167 755.365 25.4819 Q759.725 30.4472 759.725 39.2318 Q759.725 47.9847 755.365 52.9818 Q751.004 57.947 743.365 57.947 Q735.695 57.947 731.334 52.9818 Q727.005 47.9847 727.005 39.2318 Q727.005 30.4472 731.334 25.4819 Q735.695 20.5167 743.365 20.5167 Z" fill="#000000" fill-rule="evenodd" fill-opacity="1" /><path clip-path="url(#clip220)" d="M 0 0 M789.326 26.7869 L789.326 7.4988 L795.182 7.4988 L795.182 57.024 L789.326 57.024 L789.326 51.6768 Q787.48 54.8597 784.647 56.4193 Q781.846 57.947 777.899 57.947 Q771.438 57.947 767.364 52.7908 Q763.322 47.6346 763.322 39.2318 Q763.322 30.8291 767.364 25.6729 Q771.438 20.5167 777.899 20.5167 Q781.846 20.5167 784.647 22.0763 Q787.48 23.604 789.326 26.7869 M769.369 39.2318 Q769.369 45.693 772.011 49.3852 Q774.685 53.0454 779.332 53.0454 Q783.978 53.0454 786.652 49.3852 Q789.326 45.693 789.326 39.2318 Q789.326 32.7707 786.652 29.1104 Q783.978 25.4183 779.332 25.4183 Q774.685 25.4183 772.011 29.1104 Q769.369 32.7707 769.369 39.2318 Z" fill="#000000" fill-rule="evenodd" fill-opacity="1" /><path clip-path="url(#clip220)" d="M 0 0 M831.817 37.7359 L831.817 40.6005 L804.89 40.6005 Q805.272 46.6479 808.518 49.8308 Q811.797 52.9818 817.621 52.9818 Q820.995 52.9818 824.146 52.1542 Q827.329 51.3267 830.448 49.6716 L830.448 55.2098 Q827.297 56.5466 823.987 57.2468 Q820.677 57.947 817.271 57.947 Q808.741 57.947 803.744 52.9818 Q798.779 48.0165 798.779 39.5501 Q798.779 30.7973 803.489 25.6729 Q808.232 20.5167 816.253 20.5167 Q823.446 20.5167 827.615 25.1636 Q831.817 29.7788 831.817 37.7359 M825.96 36.0172 Q825.897 31.2111 823.255 28.3465 Q820.645 25.4819 816.316 25.4819 Q811.415 25.4819 808.455 28.251 Q805.526 31.0201 805.081 36.049 L825.96 36.0172 Z" fill="#000000" fill-rule="evenodd" fill-opacity="1" /><path clip-path="url(#clip220)" d="M 0 0 M837.96 7.4988 L843.816 7.4988 L843.816 57.024 L837.96 57.024 L837.96 7.4988 Z" fill="#000000" fill-rule="evenodd" fill-opacity="1" /><path clip-path="url(#clip220)" d="M 0 0 M906.518 13.1643 L906.518 19.9438 Q903.272 16.92 899.58 15.4241 Q895.919 13.9282 891.782 13.9282 Q883.634 13.9282 879.305 18.9252 Q874.976 23.8905 874.976 33.3117 Q874.976 42.7012 879.305 47.6982 Q883.634 52.6635 891.782 52.6635 Q895.919 52.6635 899.58 51.1675 Q903.272 49.6716 906.518 46.6479 L906.518 53.3637 Q903.145 55.6554 899.357 56.8012 Q895.601 57.947 891.4 57.947 Q880.61 57.947 874.403 51.3585 Q868.197 44.7382 868.197 33.3117 Q868.197 21.8535 874.403 15.265 Q880.61 8.64463 891.4 8.64463 Q895.665 8.64463 899.421 9.79046 Q903.208 10.9045 906.518 13.1643 Z" fill="#000000" fill-rule="evenodd" fill-opacity="1" /><path clip-path="url(#clip220)" d="M 0 0 M928.862 39.1045 Q921.764 39.1045 919.027 40.7278 Q916.29 42.351 916.29 46.266 Q916.29 49.3852 918.327 51.2312 Q920.396 53.0454 923.929 53.0454 Q928.798 53.0454 931.727 49.608 Q934.687 46.1386 934.687 40.4095 L934.687 39.1045 L928.862 39.1045 M940.543 36.6856 L940.543 57.024 L934.687 57.024 L934.687 51.6131 Q932.681 54.8597 929.69 56.4193 Q926.698 57.947 922.369 57.947 Q916.894 57.947 913.648 54.8915 Q910.433 51.8041 910.433 46.6479 Q910.433 40.6323 914.444 37.5768 Q918.486 34.5212 926.475 34.5212 L934.687 34.5212 L934.687 33.9483 Q934.687 29.9061 932.013 27.7099 Q929.371 25.4819 924.565 25.4819 Q921.51 25.4819 918.613 26.214 Q915.717 26.946 913.043 28.4101 L913.043 22.9993 Q916.258 21.758 919.282 21.1532 Q922.305 20.5167 925.17 20.5167 Q932.904 20.5167 936.724 24.5271 Q940.543 28.5375 940.543 36.6856 Z" fill="#000000" fill-rule="evenodd" fill-opacity="1" /><path clip-path="url(#clip220)" d="M 0 0 M946.686 7.4988 L952.542 7.4988 L952.542 57.024 L946.686 57.024 L946.686 7.4988 Z" fill="#000000" fill-rule="evenodd" fill-opacity="1" /><path clip-path="url(#clip220)" d="M 0 0 M958.685 21.376 L964.542 21.376 L964.542 57.024 L958.685 57.024 L958.685 21.376 M958.685 7.4988 L964.542 7.4988 L964.542 14.9149 L958.685 14.9149 L958.685 7.4988 Z" fill="#000000" fill-rule="evenodd" fill-opacity="1" /><path clip-path="url(#clip220)" d="M 0 0 M996.275 39.2318 Q996.275 32.7707 993.601 29.1104 Q990.959 25.4183 986.312 25.4183 Q981.666 25.4183 978.992 29.1104 Q976.35 32.7707 976.35 39.2318 Q976.35 45.693 978.992 49.3852 Q981.666 53.0454 986.312 53.0454 Q990.959 53.0454 993.601 49.3852 Q996.275 45.693 996.275 39.2318 M976.35 26.7869 Q978.196 23.604 980.997 22.0763 Q983.83 20.5167 987.745 20.5167 Q994.238 20.5167 998.28 25.6729 Q1002.35 30.8291 1002.35 39.2318 Q1002.35 47.6346 998.28 52.7908 Q994.238 57.947 987.745 57.947 Q983.83 57.947 980.997 56.4193 Q978.196 54.8597 976.35 51.6768 L976.35 57.024 L970.462 57.024 L970.462 7.4988 L976.35 7.4988 L976.35 26.7869 Z" fill="#000000" fill-rule="evenodd" fill-opacity="1" /><path clip-path="url(#clip220)" d="M 0 0 M1029.15 26.8506 Q1028.17 26.2776 1026.99 26.023 Q1025.84 25.7366 1024.44 25.7366 Q1019.48 25.7366 1016.8 28.9831 Q1014.16 32.1977 1014.16 38.2452 L1014.16 57.024 L1008.27 57.024 L1008.27 21.376 L1014.16 21.376 L1014.16 26.9142 Q1016.01 23.6677 1018.97 22.1081 Q1021.93 20.5167 1026.16 20.5167 Q1026.77 20.5167 1027.5 20.6122 Q1028.23 20.6758 1029.12 20.835 L1029.15 26.8506 Z" fill="#000000" fill-rule="evenodd" fill-opacity="1" /><path clip-path="url(#clip220)" d="M 0 0 M1051.5 39.1045 Q1044.4 39.1045 1041.66 40.7278 Q1038.93 42.351 1038.93 46.266 Q1038.93 49.3852 1040.96 51.2312 Q1043.03 53.0454 1046.56 53.0454 Q1051.43 53.0454 1054.36 49.608 Q1057.32 46.1386 1057.32 40.4095 L1057.32 39.1045 L1051.5 39.1045 M1063.18 36.6856 L1063.18 57.024 L1057.32 57.024 L1057.32 51.6131 Q1055.32 54.8597 1052.32 56.4193 Q1049.33 57.947 1045 57.947 Q1039.53 57.947 1036.28 54.8915 Q1033.07 51.8041 1033.07 46.6479 Q1033.07 40.6323 1037.08 37.5768 Q1041.12 34.5212 1049.11 34.5212 L1057.32 34.5212 L1057.32 33.9483 Q1057.32 29.9061 1054.65 27.7099 Q1052.01 25.4819 1047.2 25.4819 Q1044.14 25.4819 1041.25 26.214 Q1038.35 26.946 1035.68 28.4101 L1035.68 22.9993 Q1038.89 21.758 1041.92 21.1532 Q1044.94 20.5167 1047.81 20.5167 Q1055.54 20.5167 1059.36 24.5271 Q1063.18 28.5375 1063.18 36.6856 Z" fill="#000000" fill-rule="evenodd" fill-opacity="1" /><path clip-path="url(#clip220)" d="M 0 0 M1075.11 11.2546 L1075.11 21.376 L1087.18 21.376 L1087.18 25.9275 L1075.11 25.9275 L1075.11 45.2793 Q1075.11 49.6398 1076.29 50.8811 Q1077.5 52.1224 1081.16 52.1224 L1087.18 52.1224 L1087.18 57.024 L1081.16 57.024 Q1074.38 57.024 1071.8 54.5095 Q1069.23 51.9633 1069.23 45.2793 L1069.23 25.9275 L1064.93 25.9275 L1064.93 21.376 L1069.23 21.376 L1069.23 11.2546 L1075.11 11.2546 Z" fill="#000000" fill-rule="evenodd" fill-opacity="1" /><path clip-path="url(#clip220)" d="M 0 0 M1093.32 21.376 L1099.18 21.376 L1099.18 57.024 L1093.32 57.024 L1093.32 21.376 M1093.32 7.4988 L1099.18 7.4988 L1099.18 14.9149 L1093.32 14.9149 L1093.32 7.4988 Z" fill="#000000" fill-rule="evenodd" fill-opacity="1" /><path clip-path="url(#clip220)" d="M 0 0 M1119.13 25.4819 Q1114.42 25.4819 1111.69 29.174 Q1108.95 32.8343 1108.95 39.2318 Q1108.95 45.6294 1111.65 49.3215 Q1114.39 52.9818 1119.13 52.9818 Q1123.81 52.9818 1126.55 49.2897 Q1129.29 45.5976 1129.29 39.2318 Q1129.29 32.898 1126.55 29.2059 Q1123.81 25.4819 1119.13 25.4819 M1119.13 20.5167 Q1126.77 20.5167 1131.13 25.4819 Q1135.49 30.4472 1135.49 39.2318 Q1135.49 47.9847 1131.13 52.9818 Q1126.77 57.947 1119.13 57.947 Q1111.46 57.947 1107.1 52.9818 Q1102.77 47.9847 1102.77 39.2318 Q1102.77 30.4472 1107.1 25.4819 Q1111.46 20.5167 1119.13 20.5167 Z" fill="#000000" fill-rule="evenodd" fill-opacity="1" /><path clip-path="url(#clip220)" d="M 0 0 M1171.27 35.5079 L1171.27 57.024 L1165.41 57.024 L1165.41 35.6989 Q1165.41 30.6381 1163.44 28.1237 Q1161.46 25.6092 1157.52 25.6092 Q1152.78 25.6092 1150.04 28.6329 Q1147.3 31.6567 1147.3 36.8765 L1147.3 57.024 L1141.41 57.024 L1141.41 21.376 L1147.3 21.376 L1147.3 26.9142 Q1149.4 23.6995 1152.23 22.1081 Q1155.1 20.5167 1158.82 20.5167 Q1164.97 20.5167 1168.12 24.3361 Q1171.27 28.1237 1171.27 35.5079 Z" fill="#000000" fill-rule="evenodd" fill-opacity="1" /><path clip-path="url(#clip220)" d="M 0 0 M1230.79 50.2445 L1230.79 37.4813 L1220.28 37.4813 L1220.28 32.1977 L1237.15 32.1977 L1237.15 52.5998 Q1233.43 55.2416 1228.94 56.6102 Q1224.45 57.947 1219.36 57.947 Q1208.22 57.947 1201.92 51.454 Q1195.65 44.9292 1195.65 33.3117 Q1195.65 21.6625 1201.92 15.1695 Q1208.22 8.64463 1219.36 8.64463 Q1224.01 8.64463 1228.18 9.79046 Q1232.38 10.9363 1235.91 13.1643 L1235.91 20.0074 Q1232.35 16.9837 1228.34 15.4559 Q1224.33 13.9282 1219.9 13.9282 Q1211.18 13.9282 1206.79 18.7979 Q1202.43 23.6677 1202.43 33.3117 Q1202.43 42.924 1206.79 47.7937 Q1211.18 52.6635 1219.9 52.6635 Q1223.31 52.6635 1225.98 52.0906 Q1228.65 51.4858 1230.79 50.2445 Z" fill="#000000" fill-rule="evenodd" fill-opacity="1" /><path clip-path="url(#clip220)" d="M 0 0 M1263.95 26.8506 Q1262.97 26.2776 1261.79 26.023 Q1260.64 25.7366 1259.24 25.7366 Q1254.28 25.7366 1251.6 28.9831 Q1248.96 32.1977 1248.96 38.2452 L1248.96 57.024 L1243.07 57.024 L1243.07 21.376 L1248.96 21.376 L1248.96 26.9142 Q1250.81 23.6677 1253.77 22.1081 Q1256.73 20.5167 1260.96 20.5167 Q1261.57 20.5167 1262.3 20.6122 Q1263.03 20.6758 1263.92 20.835 L1263.95 26.8506 Z" fill="#000000" fill-rule="evenodd" fill-opacity="1" /><path clip-path="url(#clip220)" d="M 0 0 M1286.3 39.1045 Q1279.2 39.1045 1276.46 40.7278 Q1273.72 42.351 1273.72 46.266 Q1273.72 49.3852 1275.76 51.2312 Q1277.83 53.0454 1281.36 53.0454 Q1286.23 53.0454 1289.16 49.608 Q1292.12 46.1386 1292.12 40.4095 L1292.12 39.1045 L1286.3 39.1045 M1297.98 36.6856 L1297.98 57.024 L1292.12 57.024 L1292.12 51.6131 Q1290.12 54.8597 1287.12 56.4193 Q1284.13 57.947 1279.8 57.947 Q1274.33 57.947 1271.08 54.8915 Q1267.87 51.8041 1267.87 46.6479 Q1267.87 40.6323 1271.88 37.5768 Q1275.92 34.5212 1283.91 34.5212 L1292.12 34.5212 L1292.12 33.9483 Q1292.12 29.9061 1289.45 27.7099 Q1286.81 25.4819 1282 25.4819 Q1278.94 25.4819 1276.05 26.214 Q1273.15 26.946 1270.48 28.4101 L1270.48 22.9993 Q1273.69 21.758 1276.72 21.1532 Q1279.74 20.5167 1282.6 20.5167 Q1290.34 20.5167 1294.16 24.5271 Q1297.98 28.5375 1297.98 36.6856 Z" fill="#000000" fill-rule="evenodd" fill-opacity="1" /><path clip-path="url(#clip220)" d="M 0 0 M1309.79 51.6768 L1309.79 70.583 L1303.9 70.583 L1303.9 21.376 L1309.79 21.376 L1309.79 26.7869 Q1311.63 23.604 1314.43 22.0763 Q1317.27 20.5167 1321.18 20.5167 Q1327.67 20.5167 1331.72 25.6729 Q1335.79 30.8291 1335.79 39.2318 Q1335.79 47.6346 1331.72 52.7908 Q1327.67 57.947 1321.18 57.947 Q1317.27 57.947 1314.43 56.4193 Q1311.63 54.8597 1309.79 51.6768 M1329.71 39.2318 Q1329.71 32.7707 1327.04 29.1104 Q1324.4 25.4183 1319.75 25.4183 Q1315.1 25.4183 1312.43 29.1104 Q1309.79 32.7707 1309.79 39.2318 Q1309.79 45.693 1312.43 49.3852 Q1315.1 53.0454 1319.75 53.0454 Q1324.4 53.0454 1327.04 49.3852 Q1329.71 45.693 1329.71 39.2318 Z" fill="#000000" fill-rule="evenodd" fill-opacity="1" /><path clip-path="url(#clip220)" d="M 0 0 M1371.57 35.5079 L1371.57 57.024 L1365.71 57.024 L1365.71 35.6989 Q1365.71 30.6381 1363.74 28.1237 Q1361.76 25.6092 1357.82 25.6092 Q1353.07 25.6092 1350.34 28.6329 Q1347.6 31.6567 1347.6 36.8765 L1347.6 57.024 L1341.71 57.024 L1341.71 7.4988 L1347.6 7.4988 L1347.6 26.9142 Q1349.7 23.6995 1352.53 22.1081 Q1355.4 20.5167 1359.12 20.5167 Q1365.26 20.5167 1368.41 24.3361 Q1371.57 28.1237 1371.57 35.5079 Z" fill="#000000" fill-rule="evenodd" fill-opacity="1" /><polyline clip-path="url(#clip222)" style="stroke:#0000ff; stroke-width:4; stroke-opacity:1; fill:none" points="
  1892.86,138.587 1887.33,127.037 1881.38,132.812 1875.42,130.887 1869.02,146.286 1862.17,132.812 1854.72,173.235 1846.99,144.362 1838.82,179.01 1830.21,171.31 
  1821.24,207.884 1811.91,159.761 1802.42,234.833 1791.75,254.082 1781.23,261.782 1770.11,238.683 1758.33,265.632 1745.82,265.632 1732.68,277.181 1719.45,277.181 
  1705.48,302.206 1690.67,279.106 1675.01,346.479 1659.45,352.254 1642.11,367.653 1625.29,383.052 1607.94,369.578 1589.11,381.128 1570.06,373.428 1550.75,442.725 
  1530.52,504.323 1510.61,490.848 1488.73,512.023 1466.46,565.921 1443.93,527.422 1420.54,544.746 1396.28,592.87 1371.73,627.518 1347.34,625.593 1321.3,673.717 
  1296.06,712.215 1269.83,727.614 1243.05,810.386 1215.15,791.137 1187.33,846.96 1158.68,850.81 1130.7,887.383 1102.71,920.107 1074.66,920.107 1044.72,927.807 
  1014.73,1054.85 985.158,1029.83 957.488,1043.3 927.286,1074.1 898.571,1102.98 871.557,1106.83 842.508,1164.57 814.358,1133.77 787.451,1272.37 759.527,1283.92 
  732.573,1305.09 706.642,1316.64 681.076,1332.04 656.135,1328.19 632.174,1389.79 608.503,1407.11 585.364,1445.61 562.138,1478.34 540.348,1434.06 519.553,1505.29 
  498.908,1487.96 479.068,1528.38 459.153,1503.36 440.667,1566.88 423.052,1564.96 404.9,1605.38 388.648,1630.41 373.229,1640.03 359.01,1640.03 344.648,1668.9 
  330.579,1732.43 317.152,1697.78 303.786,1695.85 291.274,1699.7 279.575,1743.98 268.302,1761.3 257.896,1790.17 247.787,1745.9 238.38,1734.35 229.615,1790.17 
  220.713,1807.5 212.363,1795.95 204.352,1817.12 197.076,1778.62 189.936,1817.12 182.92,1807.5 176.33,1838.3 170.075,1824.82 164.166,1847.92 158.641,1834.45 
  
  "/>
<polyline clip-path="url(#clip222)" style="stroke:#000000; stroke-width:2; stroke-opacity:1; fill:none" points="
  158.641,1849.23 1892.86,115.019 
  "/>
</svg>
