<?xml version="1.0" encoding="utf-8"?>
<svg xmlns="http://www.w3.org/2000/svg" xmlns:xlink="http://www.w3.org/1999/xlink" width="600" height="400" viewBox="0 0 2400 1600">
<defs>
  <clipPath id="clip130">
    <rect x="0" y="0" width="2400" height="1600"/>
  </clipPath>
</defs>
<path clip-path="url(#clip130)" d="
M0 1600 L2400 1600 L2400 0 L0 0  Z
  " fill="#ffffff" fill-rule="evenodd" fill-opacity="1"/>
<defs>
  <clipPath id="clip131">
    <rect x="480" y="0" width="1681" height="1600"/>
  </clipPath>
</defs>
<path clip-path="url(#clip130)" d="
M86.9921 1521.01 L2352.76 1521.01 L2352.76 47.2441 L86.9921 47.2441  Z
  " fill="#ffffff" fill-rule="evenodd" fill-opacity="1"/>
<defs>
  <clipPath id="clip132">
    <rect x="86" y="47" width="2267" height="1475"/>
  </clipPath>
</defs>
<polyline clip-path="url(#clip132)" style="stroke:#000000; stroke-width:2; stroke-opacity:0.1; fill:none" points="
  314.098,1521.01 314.098,47.2441 
  "/>
<polyline clip-path="url(#clip132)" style="stroke:#000000; stroke-width:2; stroke-opacity:0.1; fill:none" points="
  773.976,1521.01 773.976,47.2441 
  "/>
<polyline clip-path="url(#clip132)" style="stroke:#000000; stroke-width:2; stroke-opacity:0.1; fill:none" points="
  1233.85,1521.01 1233.85,47.2441 
  "/>
<polyline clip-path="url(#clip132)" style="stroke:#000000; stroke-width:2; stroke-opacity:0.1; fill:none" points="
  1693.73,1521.01 1693.73,47.2441 
  "/>
<polyline clip-path="url(#clip132)" style="stroke:#000000; stroke-width:2; stroke-opacity:0.1; fill:none" points="
  2153.61,1521.01 2153.61,47.2441 
  "/>
<polyline clip-path="url(#clip130)" style="stroke:#000000; stroke-width:4; stroke-opacity:1; fill:none" points="
  86.9921,1521.01 2352.76,1521.01 
  "/>
<polyline clip-path="url(#clip130)" style="stroke:#000000; stroke-width:4; stroke-opacity:1; fill:none" points="
  314.098,1521.01 314.098,1503.32 
  "/>
<polyline clip-path="url(#clip130)" style="stroke:#000000; stroke-width:4; stroke-opacity:1; fill:none" points="
  773.976,1521.01 773.976,1503.32 
  "/>
<polyline clip-path="url(#clip130)" style="stroke:#000000; stroke-width:4; stroke-opacity:1; fill:none" points="
  1233.85,1521.01 1233.85,1503.32 
  "/>
<polyline clip-path="url(#clip130)" style="stroke:#000000; stroke-width:4; stroke-opacity:1; fill:none" points="
  1693.73,1521.01 1693.73,1503.32 
  "/>
<polyline clip-path="url(#clip130)" style="stroke:#000000; stroke-width:4; stroke-opacity:1; fill:none" points="
  2153.61,1521.01 2153.61,1503.32 
  "/>
<path clip-path="url(#clip130)" d="M 0 0 M289.978 1547.12 L312.2 1547.12 L312.2 1549.11 L299.654 1581.68 L294.77 1581.68 L306.575 1551.06 L289.978 1551.06 L289.978 1547.12 Z" fill="#000000" fill-rule="evenodd" fill-opacity="1" /><path clip-path="url(#clip130)" d="M 0 0 M317.316 1547.12 L335.672 1547.12 L335.672 1551.06 L321.598 1551.06 L321.598 1559.53 Q322.617 1559.18 323.635 1559.02 Q324.654 1558.83 325.672 1558.83 Q331.459 1558.83 334.839 1562 Q338.219 1565.18 338.219 1570.59 Q338.219 1576.17 334.746 1579.27 Q331.274 1582.35 324.955 1582.35 Q322.779 1582.35 320.51 1581.98 Q318.265 1581.61 315.858 1580.87 L315.858 1576.17 Q317.941 1577.3 320.163 1577.86 Q322.385 1578.42 324.862 1578.42 Q328.867 1578.42 331.205 1576.31 Q333.543 1574.2 333.543 1570.59 Q333.543 1566.98 331.205 1564.87 Q328.867 1562.77 324.862 1562.77 Q322.987 1562.77 321.112 1563.18 Q319.26 1563.6 317.316 1564.48 L317.316 1547.12 Z" fill="#000000" fill-rule="evenodd" fill-opacity="1" /><path clip-path="url(#clip130)" d="M 0 0 M737.345 1577.74 L744.983 1577.74 L744.983 1551.38 L736.673 1553.05 L736.673 1548.79 L744.937 1547.12 L749.613 1547.12 L749.613 1577.74 L757.252 1577.74 L757.252 1581.68 L737.345 1581.68 L737.345 1577.74 Z" fill="#000000" fill-rule="evenodd" fill-opacity="1" /><path clip-path="url(#clip130)" d="M 0 0 M772.321 1550.2 Q768.71 1550.2 766.881 1553.76 Q765.076 1557.31 765.076 1564.43 Q765.076 1571.54 766.881 1575.11 Q768.71 1578.65 772.321 1578.65 Q775.955 1578.65 777.761 1575.11 Q779.59 1571.54 779.59 1564.43 Q779.59 1557.31 777.761 1553.76 Q775.955 1550.2 772.321 1550.2 M772.321 1546.49 Q778.131 1546.49 781.187 1551.1 Q784.266 1555.68 784.266 1564.43 Q784.266 1573.16 781.187 1577.77 Q778.131 1582.35 772.321 1582.35 Q766.511 1582.35 763.432 1577.77 Q760.377 1573.16 760.377 1564.43 Q760.377 1555.68 763.432 1551.1 Q766.511 1546.49 772.321 1546.49 Z" fill="#000000" fill-rule="evenodd" fill-opacity="1" /><path clip-path="url(#clip130)" d="M 0 0 M799.335 1550.2 Q795.724 1550.2 793.895 1553.76 Q792.09 1557.31 792.09 1564.43 Q792.09 1571.54 793.895 1575.11 Q795.724 1578.65 799.335 1578.65 Q802.969 1578.65 804.775 1575.11 Q806.603 1571.54 806.603 1564.43 Q806.603 1557.31 804.775 1553.76 Q802.969 1550.2 799.335 1550.2 M799.335 1546.49 Q805.145 1546.49 808.201 1551.1 Q811.279 1555.68 811.279 1564.43 Q811.279 1573.16 808.201 1577.77 Q805.145 1582.35 799.335 1582.35 Q793.525 1582.35 790.446 1577.77 Q787.391 1573.16 787.391 1564.43 Q787.391 1555.68 790.446 1551.1 Q793.525 1546.49 799.335 1546.49 Z" fill="#000000" fill-rule="evenodd" fill-opacity="1" /><path clip-path="url(#clip130)" d="M 0 0 M1198.52 1577.74 L1206.16 1577.74 L1206.16 1551.38 L1197.85 1553.05 L1197.85 1548.79 L1206.11 1547.12 L1210.79 1547.12 L1210.79 1577.74 L1218.43 1577.74 L1218.43 1581.68 L1198.52 1581.68 L1198.52 1577.74 Z" fill="#000000" fill-rule="evenodd" fill-opacity="1" /><path clip-path="url(#clip130)" d="M 0 0 M1227.52 1577.74 L1243.84 1577.74 L1243.84 1581.68 L1221.9 1581.68 L1221.9 1577.74 Q1224.56 1574.99 1229.14 1570.36 Q1233.75 1565.71 1234.93 1564.37 Q1237.18 1561.84 1238.06 1560.11 Q1238.96 1558.35 1238.96 1556.66 Q1238.96 1553.9 1237.01 1552.17 Q1235.09 1550.43 1231.99 1550.43 Q1229.79 1550.43 1227.34 1551.19 Q1224.91 1551.96 1222.13 1553.51 L1222.13 1548.79 Q1224.95 1547.65 1227.41 1547.07 Q1229.86 1546.49 1231.9 1546.49 Q1237.27 1546.49 1240.46 1549.18 Q1243.66 1551.87 1243.66 1556.36 Q1243.66 1558.49 1242.85 1560.41 Q1242.06 1562.3 1239.95 1564.9 Q1239.38 1565.57 1236.27 1568.79 Q1233.17 1571.98 1227.52 1577.74 Z" fill="#000000" fill-rule="evenodd" fill-opacity="1" /><path clip-path="url(#clip130)" d="M 0 0 M1248.96 1547.12 L1267.31 1547.12 L1267.31 1551.06 L1253.24 1551.06 L1253.24 1559.53 Q1254.26 1559.18 1255.28 1559.02 Q1256.3 1558.83 1257.31 1558.83 Q1263.1 1558.83 1266.48 1562 Q1269.86 1565.18 1269.86 1570.59 Q1269.86 1576.17 1266.39 1579.27 Q1262.92 1582.35 1256.6 1582.35 Q1254.42 1582.35 1252.15 1581.98 Q1249.91 1581.61 1247.5 1580.87 L1247.5 1576.17 Q1249.58 1577.3 1251.81 1577.86 Q1254.03 1578.42 1256.5 1578.42 Q1260.51 1578.42 1262.85 1576.31 Q1265.19 1574.2 1265.19 1570.59 Q1265.19 1566.98 1262.85 1564.87 Q1260.51 1562.77 1256.5 1562.77 Q1254.63 1562.77 1252.75 1563.18 Q1250.9 1563.6 1248.96 1564.48 L1248.96 1547.12 Z" fill="#000000" fill-rule="evenodd" fill-opacity="1" /><path clip-path="url(#clip130)" d="M 0 0 M1657.6 1577.74 L1665.24 1577.74 L1665.24 1551.38 L1656.93 1553.05 L1656.93 1548.79 L1665.19 1547.12 L1669.87 1547.12 L1669.87 1577.74 L1677.51 1577.74 L1677.51 1581.68 L1657.6 1581.68 L1657.6 1577.74 Z" fill="#000000" fill-rule="evenodd" fill-opacity="1" /><path clip-path="url(#clip130)" d="M 0 0 M1682.62 1547.12 L1700.98 1547.12 L1700.98 1551.06 L1686.9 1551.06 L1686.9 1559.53 Q1687.92 1559.18 1688.94 1559.02 Q1689.96 1558.83 1690.98 1558.83 Q1696.76 1558.83 1700.14 1562 Q1703.52 1565.18 1703.52 1570.59 Q1703.52 1576.17 1700.05 1579.27 Q1696.58 1582.35 1690.26 1582.35 Q1688.08 1582.35 1685.82 1581.98 Q1683.57 1581.61 1681.16 1580.87 L1681.16 1576.17 Q1683.25 1577.3 1685.47 1577.86 Q1687.69 1578.42 1690.17 1578.42 Q1694.17 1578.42 1696.51 1576.31 Q1698.85 1574.2 1698.85 1570.59 Q1698.85 1566.98 1696.51 1564.87 Q1694.17 1562.77 1690.17 1562.77 Q1688.29 1562.77 1686.42 1563.18 Q1684.57 1563.6 1682.62 1564.48 L1682.62 1547.12 Z" fill="#000000" fill-rule="evenodd" fill-opacity="1" /><path clip-path="url(#clip130)" d="M 0 0 M1718.59 1550.2 Q1714.98 1550.2 1713.15 1553.76 Q1711.35 1557.31 1711.35 1564.43 Q1711.35 1571.54 1713.15 1575.11 Q1714.98 1578.65 1718.59 1578.65 Q1722.23 1578.65 1724.03 1575.11 Q1725.86 1571.54 1725.86 1564.43 Q1725.86 1557.31 1724.03 1553.76 Q1722.23 1550.2 1718.59 1550.2 M1718.59 1546.49 Q1724.4 1546.49 1727.46 1551.1 Q1730.54 1555.68 1730.54 1564.43 Q1730.54 1573.16 1727.46 1577.77 Q1724.4 1582.35 1718.59 1582.35 Q1712.78 1582.35 1709.7 1577.77 Q1706.65 1573.16 1706.65 1564.43 Q1706.65 1555.68 1709.7 1551.1 Q1712.78 1546.49 1718.59 1546.49 Z" fill="#000000" fill-rule="evenodd" fill-opacity="1" /><path clip-path="url(#clip130)" d="M 0 0 M2117.93 1577.74 L2125.57 1577.74 L2125.57 1551.38 L2117.26 1553.05 L2117.26 1548.79 L2125.52 1547.12 L2130.2 1547.12 L2130.2 1577.74 L2137.83 1577.74 L2137.83 1581.68 L2117.93 1581.68 L2117.93 1577.74 Z" fill="#000000" fill-rule="evenodd" fill-opacity="1" /><path clip-path="url(#clip130)" d="M 0 0 M2141.72 1547.12 L2163.95 1547.12 L2163.95 1549.11 L2151.4 1581.68 L2146.52 1581.68 L2158.32 1551.06 L2141.72 1551.06 L2141.72 1547.12 Z" fill="#000000" fill-rule="evenodd" fill-opacity="1" /><path clip-path="url(#clip130)" d="M 0 0 M2169.06 1547.12 L2187.42 1547.12 L2187.42 1551.06 L2173.34 1551.06 L2173.34 1559.53 Q2174.36 1559.18 2175.38 1559.02 Q2176.4 1558.83 2177.42 1558.83 Q2183.21 1558.83 2186.58 1562 Q2189.96 1565.18 2189.96 1570.59 Q2189.96 1576.17 2186.49 1579.27 Q2183.02 1582.35 2176.7 1582.35 Q2174.52 1582.35 2172.26 1581.98 Q2170.01 1581.61 2167.6 1580.87 L2167.6 1576.17 Q2169.69 1577.3 2171.91 1577.86 Q2174.13 1578.42 2176.61 1578.42 Q2180.61 1578.42 2182.95 1576.31 Q2185.29 1574.2 2185.29 1570.59 Q2185.29 1566.98 2182.95 1564.87 Q2180.61 1562.77 2176.61 1562.77 Q2174.73 1562.77 2172.86 1563.18 Q2171.01 1563.6 2169.06 1564.48 L2169.06 1547.12 Z" fill="#000000" fill-rule="evenodd" fill-opacity="1" /><polyline clip-path="url(#clip132)" style="stroke:#000000; stroke-width:2; stroke-opacity:0.1; fill:none" points="
  86.9921,1479.3 2352.76,1479.3 
  "/>
<polyline clip-path="url(#clip132)" style="stroke:#000000; stroke-width:2; stroke-opacity:0.1; fill:none" points="
  86.9921,1180.3 2352.76,1180.3 
  "/>
<polyline clip-path="url(#clip132)" style="stroke:#000000; stroke-width:2; stroke-opacity:0.1; fill:none" points="
  86.9921,881.301 2352.76,881.301 
  "/>
<polyline clip-path="url(#clip132)" style="stroke:#000000; stroke-width:2; stroke-opacity:0.1; fill:none" points="
  86.9921,582.302 2352.76,582.302 
  "/>
<polyline clip-path="url(#clip132)" style="stroke:#000000; stroke-width:2; stroke-opacity:0.1; fill:none" points="
  86.9921,283.303 2352.76,283.303 
  "/>
<polyline clip-path="url(#clip130)" style="stroke:#000000; stroke-width:4; stroke-opacity:1; fill:none" points="
  86.9921,1521.01 86.9921,47.2441 
  "/>
<polyline clip-path="url(#clip130)" style="stroke:#000000; stroke-width:4; stroke-opacity:1; fill:none" points="
  86.9921,1479.3 114.181,1479.3 
  "/>
<polyline clip-path="url(#clip130)" style="stroke:#000000; stroke-width:4; stroke-opacity:1; fill:none" points="
  86.9921,1180.3 114.181,1180.3 
  "/>
<polyline clip-path="url(#clip130)" style="stroke:#000000; stroke-width:4; stroke-opacity:1; fill:none" points="
  86.9921,881.301 114.181,881.301 
  "/>
<polyline clip-path="url(#clip130)" style="stroke:#000000; stroke-width:4; stroke-opacity:1; fill:none" points="
  86.9921,582.302 114.181,582.302 
  "/>
<polyline clip-path="url(#clip130)" style="stroke:#000000; stroke-width:4; stroke-opacity:1; fill:none" points="
  86.9921,283.303 114.181,283.303 
  "/>
<path clip-path="url(#clip130)" d="M 0 0 M39.0477 1465.1 Q35.4367 1465.1 33.608 1468.66 Q31.8024 1472.2 31.8024 1479.33 Q31.8024 1486.44 33.608 1490 Q35.4367 1493.55 39.0477 1493.55 Q42.682 1493.55 44.4875 1490 Q46.3162 1486.44 46.3162 1479.33 Q46.3162 1472.2 44.4875 1468.66 Q42.682 1465.1 39.0477 1465.1 M39.0477 1461.39 Q44.8579 1461.39 47.9134 1466 Q50.9921 1470.58 50.9921 1479.33 Q50.9921 1488.06 47.9134 1492.67 Q44.8579 1497.25 39.0477 1497.25 Q33.2376 1497.25 30.1589 1492.67 Q27.1034 1488.06 27.1034 1479.33 Q27.1034 1470.58 30.1589 1466 Q33.2376 1461.39 39.0477 1461.39 Z" fill="#000000" fill-rule="evenodd" fill-opacity="1" /><path clip-path="url(#clip130)" d="M 0 0 M7.65902 1193.64 L23.9784 1193.64 L23.9784 1197.58 L2.03405 1197.58 L2.03405 1193.64 Q4.69608 1190.89 9.27939 1186.26 Q13.8858 1181.61 15.0664 1180.26 Q17.3118 1177.74 18.1914 1176.01 Q19.0941 1174.25 19.0941 1172.56 Q19.0941 1169.8 17.1497 1168.07 Q15.2284 1166.33 12.1266 1166.33 Q9.92753 1166.33 7.47384 1167.09 Q5.0433 1167.86 2.26554 1169.41 L2.26554 1164.69 Q5.08959 1163.55 7.54328 1162.97 Q9.99698 1162.39 12.034 1162.39 Q17.4043 1162.39 20.5988 1165.08 Q23.7932 1167.76 23.7932 1172.26 Q23.7932 1174.38 22.983 1176.31 Q22.196 1178.2 20.0895 1180.8 Q19.5108 1181.47 16.409 1184.69 Q13.3071 1187.88 7.65902 1193.64 Z" fill="#000000" fill-rule="evenodd" fill-opacity="1" /><path clip-path="url(#clip130)" d="M 0 0 M39.0477 1166.1 Q35.4367 1166.1 33.608 1169.66 Q31.8024 1173.2 31.8024 1180.33 Q31.8024 1187.44 33.608 1191.01 Q35.4367 1194.55 39.0477 1194.55 Q42.682 1194.55 44.4875 1191.01 Q46.3162 1187.44 46.3162 1180.33 Q46.3162 1173.2 44.4875 1169.66 Q42.682 1166.1 39.0477 1166.1 M39.0477 1162.39 Q44.8579 1162.39 47.9134 1167 Q50.9921 1171.58 50.9921 1180.33 Q50.9921 1189.06 47.9134 1193.67 Q44.8579 1198.25 39.0477 1198.25 Q33.2376 1198.25 30.1589 1193.67 Q27.1034 1189.06 27.1034 1180.33 Q27.1034 1171.58 30.1589 1167 Q33.2376 1162.39 39.0477 1162.39 Z" fill="#000000" fill-rule="evenodd" fill-opacity="1" /><path clip-path="url(#clip130)" d="M 0 0 M14.3951 868.095 L2.58961 886.544 L14.3951 886.544 L14.3951 868.095 M13.1683 864.021 L19.0479 864.021 L19.0479 886.544 L23.9784 886.544 L23.9784 890.432 L19.0479 890.432 L19.0479 898.581 L14.3951 898.581 L14.3951 890.432 L-1.20667 890.432 L-1.20667 885.919 L13.1683 864.021 Z" fill="#000000" fill-rule="evenodd" fill-opacity="1" /><path clip-path="url(#clip130)" d="M 0 0 M39.0477 867.099 Q35.4367 867.099 33.608 870.664 Q31.8024 874.206 31.8024 881.335 Q31.8024 888.442 33.608 892.006 Q35.4367 895.548 39.0477 895.548 Q42.682 895.548 44.4875 892.006 Q46.3162 888.442 46.3162 881.335 Q46.3162 874.206 44.4875 870.664 Q42.682 867.099 39.0477 867.099 M39.0477 863.396 Q44.8579 863.396 47.9134 868.002 Q50.9921 872.585 50.9921 881.335 Q50.9921 890.062 47.9134 894.668 Q44.8579 899.252 39.0477 899.252 Q33.2376 899.252 30.1589 894.668 Q27.1034 890.062 27.1034 881.335 Q27.1034 872.585 30.1589 868.002 Q33.2376 863.396 39.0477 863.396 Z" fill="#000000" fill-rule="evenodd" fill-opacity="1" /><path clip-path="url(#clip130)" d="M 0 0 M12.4507 580.439 Q9.30253 580.439 7.45069 582.591 Q5.622 584.744 5.622 588.494 Q5.622 592.221 7.45069 594.397 Q9.30253 596.55 12.4507 596.55 Q15.5988 596.55 17.4275 594.397 Q19.2793 592.221 19.2793 588.494 Q19.2793 584.744 17.4275 582.591 Q15.5988 580.439 12.4507 580.439 M21.733 565.786 L21.733 570.045 Q19.9738 569.212 18.1682 568.772 Q16.3858 568.332 14.6266 568.332 Q9.99698 568.332 7.54328 571.457 Q5.11274 574.582 4.76552 580.902 Q6.13126 578.888 8.19143 577.823 Q10.2516 576.735 12.7284 576.735 Q17.9367 576.735 20.946 579.906 Q23.9784 583.054 23.9784 588.494 Q23.9784 593.818 20.8303 597.036 Q17.6821 600.253 12.4507 600.253 Q6.45533 600.253 3.28405 595.67 Q0.112769 591.064 0.112769 582.337 Q0.112769 574.142 4.00164 569.281 Q7.89051 564.397 14.4414 564.397 Q16.2006 564.397 17.983 564.744 Q19.7886 565.091 21.733 565.786 Z" fill="#000000" fill-rule="evenodd" fill-opacity="1" /><path clip-path="url(#clip130)" d="M 0 0 M39.0477 568.101 Q35.4367 568.101 33.608 571.665 Q31.8024 575.207 31.8024 582.337 Q31.8024 589.443 33.608 593.008 Q35.4367 596.55 39.0477 596.55 Q42.682 596.55 44.4875 593.008 Q46.3162 589.443 46.3162 582.337 Q46.3162 575.207 44.4875 571.665 Q42.682 568.101 39.0477 568.101 M39.0477 564.397 Q44.8579 564.397 47.9134 569.003 Q50.9921 573.587 50.9921 582.337 Q50.9921 591.064 47.9134 595.67 Q44.8579 600.253 39.0477 600.253 Q33.2376 600.253 30.1589 595.67 Q27.1034 591.064 27.1034 582.337 Q27.1034 573.587 30.1589 569.003 Q33.2376 564.397 39.0477 564.397 Z" fill="#000000" fill-rule="evenodd" fill-opacity="1" /><path clip-path="url(#clip130)" d="M 0 0 M12.1266 284.171 Q8.79328 284.171 6.87199 285.954 Q4.97385 287.736 4.97385 290.861 Q4.97385 293.986 6.87199 295.769 Q8.79328 297.551 12.1266 297.551 Q15.4599 297.551 17.3812 295.769 Q19.3025 293.963 19.3025 290.861 Q19.3025 287.736 17.3812 285.954 Q15.4831 284.171 12.1266 284.171 M7.45069 282.181 Q4.44145 281.44 2.75164 279.38 Q1.08499 277.32 1.08499 274.357 Q1.08499 270.213 4.02479 267.806 Q6.98773 265.398 12.1266 265.398 Q17.2886 265.398 20.2284 267.806 Q23.1682 270.213 23.1682 274.357 Q23.1682 277.32 21.4784 279.38 Q19.8117 281.44 16.8256 282.181 Q20.2053 282.968 22.0802 285.259 Q23.9784 287.551 23.9784 290.861 Q23.9784 295.884 20.8997 298.57 Q17.8442 301.255 12.1266 301.255 Q6.40903 301.255 3.33034 298.57 Q0.274805 295.884 0.274805 290.861 Q0.274805 287.551 2.17294 285.259 Q4.07108 282.968 7.45069 282.181 M5.73774 274.797 Q5.73774 277.482 7.4044 278.986 Q9.0942 280.491 12.1266 280.491 Q15.1358 280.491 16.8256 278.986 Q18.5386 277.482 18.5386 274.797 Q18.5386 272.111 16.8256 270.607 Q15.1358 269.102 12.1266 269.102 Q9.0942 269.102 7.4044 270.607 Q5.73774 272.111 5.73774 274.797 Z" fill="#000000" fill-rule="evenodd" fill-opacity="1" /><path clip-path="url(#clip130)" d="M 0 0 M39.0477 269.102 Q35.4367 269.102 33.608 272.667 Q31.8024 276.209 31.8024 283.338 Q31.8024 290.445 33.608 294.009 Q35.4367 297.551 39.0477 297.551 Q42.682 297.551 44.4875 294.009 Q46.3162 290.445 46.3162 283.338 Q46.3162 276.209 44.4875 272.667 Q42.682 269.102 39.0477 269.102 M39.0477 265.398 Q44.8579 265.398 47.9134 270.005 Q50.9921 274.588 50.9921 283.338 Q50.9921 292.065 47.9134 296.671 Q44.8579 301.255 39.0477 301.255 Q33.2376 301.255 30.1589 296.671 Q27.1034 292.065 27.1034 283.338 Q27.1034 274.588 30.1589 270.005 Q33.2376 265.398 39.0477 265.398 Z" fill="#000000" fill-rule="evenodd" fill-opacity="1" /><path clip-path="url(#clip132)" d="
M185.332 1464.35 L185.332 1479.3 L222.123 1479.3 L222.123 1464.35 L185.332 1464.35 L185.332 1464.35  Z
  " fill="#009af9" fill-rule="evenodd" fill-opacity="0.3"/>
<polyline clip-path="url(#clip132)" style="stroke:#000000; stroke-width:4; stroke-opacity:0.3; fill:none" points="
  185.332,1464.35 185.332,1479.3 222.123,1479.3 222.123,1464.35 185.332,1464.35 
  "/>
<path clip-path="url(#clip132)" d="
M222.123 1449.4 L222.123 1479.3 L258.913 1479.3 L258.913 1449.4 L222.123 1449.4 L222.123 1449.4  Z
  " fill="#009af9" fill-rule="evenodd" fill-opacity="0.3"/>
<polyline clip-path="url(#clip132)" style="stroke:#000000; stroke-width:4; stroke-opacity:0.3; fill:none" points="
  222.123,1449.4 222.123,1479.3 258.913,1479.3 258.913,1449.4 222.123,1449.4 
  "/>
<path clip-path="url(#clip132)" d="
M258.913 1419.5 L258.913 1479.3 L295.703 1479.3 L295.703 1419.5 L258.913 1419.5 L258.913 1419.5  Z
  " fill="#009af9" fill-rule="evenodd" fill-opacity="0.3"/>
<polyline clip-path="url(#clip132)" style="stroke:#000000; stroke-width:4; stroke-opacity:0.3; fill:none" points="
  258.913,1419.5 258.913,1479.3 295.703,1479.3 295.703,1419.5 258.913,1419.5 
  "/>
<path clip-path="url(#clip132)" d="
M295.703 1449.4 L295.703 1479.3 L332.493 1479.3 L332.493 1449.4 L295.703 1449.4 L295.703 1449.4  Z
  " fill="#009af9" fill-rule="evenodd" fill-opacity="0.3"/>
<polyline clip-path="url(#clip132)" style="stroke:#000000; stroke-width:4; stroke-opacity:0.3; fill:none" points="
  295.703,1449.4 295.703,1479.3 332.493,1479.3 332.493,1449.4 295.703,1449.4 
  "/>
<path clip-path="url(#clip132)" d="
M332.493 1419.5 L332.493 1479.3 L369.284 1479.3 L369.284 1419.5 L332.493 1419.5 L332.493 1419.5  Z
  " fill="#009af9" fill-rule="evenodd" fill-opacity="0.3"/>
<polyline clip-path="url(#clip132)" style="stroke:#000000; stroke-width:4; stroke-opacity:0.3; fill:none" points="
  332.493,1419.5 332.493,1479.3 369.284,1479.3 369.284,1419.5 332.493,1419.5 
  "/>
<path clip-path="url(#clip132)" d="
M369.284 1434.45 L369.284 1479.3 L406.074 1479.3 L406.074 1434.45 L369.284 1434.45 L369.284 1434.45  Z
  " fill="#009af9" fill-rule="evenodd" fill-opacity="0.3"/>
<polyline clip-path="url(#clip132)" style="stroke:#000000; stroke-width:4; stroke-opacity:0.3; fill:none" points="
  369.284,1434.45 369.284,1479.3 406.074,1479.3 406.074,1434.45 369.284,1434.45 
  "/>
<path clip-path="url(#clip132)" d="
M406.074 1359.7 L406.074 1479.3 L442.864 1479.3 L442.864 1359.7 L406.074 1359.7 L406.074 1359.7  Z
  " fill="#009af9" fill-rule="evenodd" fill-opacity="0.3"/>
<polyline clip-path="url(#clip132)" style="stroke:#000000; stroke-width:4; stroke-opacity:0.3; fill:none" points="
  406.074,1359.7 406.074,1479.3 442.864,1479.3 442.864,1359.7 406.074,1359.7 
  "/>
<path clip-path="url(#clip132)" d="
M442.864 1240.1 L442.864 1479.3 L479.654 1479.3 L479.654 1240.1 L442.864 1240.1 L442.864 1240.1  Z
  " fill="#009af9" fill-rule="evenodd" fill-opacity="0.3"/>
<polyline clip-path="url(#clip132)" style="stroke:#000000; stroke-width:4; stroke-opacity:0.3; fill:none" points="
  442.864,1240.1 442.864,1479.3 479.654,1479.3 479.654,1240.1 442.864,1240.1 
  "/>
<path clip-path="url(#clip132)" d="
M479.654 1000.9 L479.654 1479.3 L516.445 1479.3 L516.445 1000.9 L479.654 1000.9 L479.654 1000.9  Z
  " fill="#009af9" fill-rule="evenodd" fill-opacity="0.3"/>
<polyline clip-path="url(#clip132)" style="stroke:#000000; stroke-width:4; stroke-opacity:0.3; fill:none" points="
  479.654,1000.9 479.654,1479.3 516.445,1479.3 516.445,1000.9 479.654,1000.9 
  "/>
<path clip-path="url(#clip132)" d="
M516.445 1015.85 L516.445 1479.3 L553.235 1479.3 L553.235 1015.85 L516.445 1015.85 L516.445 1015.85  Z
  " fill="#009af9" fill-rule="evenodd" fill-opacity="0.3"/>
<polyline clip-path="url(#clip132)" style="stroke:#000000; stroke-width:4; stroke-opacity:0.3; fill:none" points="
  516.445,1015.85 516.445,1479.3 553.235,1479.3 553.235,1015.85 516.445,1015.85 
  "/>
<path clip-path="url(#clip132)" d="
M553.235 672.002 L553.235 1479.3 L590.025 1479.3 L590.025 672.002 L553.235 672.002 L553.235 672.002  Z
  " fill="#009af9" fill-rule="evenodd" fill-opacity="0.3"/>
<polyline clip-path="url(#clip132)" style="stroke:#000000; stroke-width:4; stroke-opacity:0.3; fill:none" points="
  553.235,672.002 553.235,1479.3 590.025,1479.3 590.025,672.002 553.235,672.002 
  "/>
<path clip-path="url(#clip132)" d="
M590.025 597.252 L590.025 1479.3 L626.815 1479.3 L626.815 597.252 L590.025 597.252 L590.025 597.252  Z
  " fill="#009af9" fill-rule="evenodd" fill-opacity="0.3"/>
<polyline clip-path="url(#clip132)" style="stroke:#000000; stroke-width:4; stroke-opacity:0.3; fill:none" points="
  590.025,597.252 590.025,1479.3 626.815,1479.3 626.815,597.252 590.025,597.252 
  "/>
<path clip-path="url(#clip132)" d="
M626.815 507.552 L626.815 1479.3 L663.606 1479.3 L663.606 507.552 L626.815 507.552 L626.815 507.552  Z
  " fill="#009af9" fill-rule="evenodd" fill-opacity="0.3"/>
<polyline clip-path="url(#clip132)" style="stroke:#000000; stroke-width:4; stroke-opacity:0.3; fill:none" points="
  626.815,507.552 626.815,1479.3 663.606,1479.3 663.606,507.552 626.815,507.552 
  "/>
<path clip-path="url(#clip132)" d="
M663.606 537.452 L663.606 1479.3 L700.396 1479.3 L700.396 537.452 L663.606 537.452 L663.606 537.452  Z
  " fill="#009af9" fill-rule="evenodd" fill-opacity="0.3"/>
<polyline clip-path="url(#clip132)" style="stroke:#000000; stroke-width:4; stroke-opacity:0.3; fill:none" points="
  663.606,537.452 663.606,1479.3 700.396,1479.3 700.396,537.452 663.606,537.452 
  "/>
<path clip-path="url(#clip132)" d="
M700.396 268.354 L700.396 1479.3 L737.186 1479.3 L737.186 268.354 L700.396 268.354 L700.396 268.354  Z
  " fill="#009af9" fill-rule="evenodd" fill-opacity="0.3"/>
<polyline clip-path="url(#clip132)" style="stroke:#000000; stroke-width:4; stroke-opacity:0.3; fill:none" points="
  700.396,268.354 700.396,1479.3 737.186,1479.3 737.186,268.354 700.396,268.354 
  "/>
<path clip-path="url(#clip132)" d="
M737.186 417.853 L737.186 1479.3 L773.976 1479.3 L773.976 417.853 L737.186 417.853 L737.186 417.853  Z
  " fill="#009af9" fill-rule="evenodd" fill-opacity="0.3"/>
<polyline clip-path="url(#clip132)" style="stroke:#000000; stroke-width:4; stroke-opacity:0.3; fill:none" points="
  737.186,417.853 737.186,1479.3 773.976,1479.3 773.976,417.853 737.186,417.853 
  "/>
<path clip-path="url(#clip132)" d="
M773.976 417.853 L773.976 1479.3 L810.767 1479.3 L810.767 417.853 L773.976 417.853 L773.976 417.853  Z
  " fill="#009af9" fill-rule="evenodd" fill-opacity="0.3"/>
<polyline clip-path="url(#clip132)" style="stroke:#000000; stroke-width:4; stroke-opacity:0.3; fill:none" points="
  773.976,417.853 773.976,1479.3 810.767,1479.3 810.767,417.853 773.976,417.853 
  "/>
<path clip-path="url(#clip132)" d="
M810.767 163.704 L810.767 1479.3 L847.557 1479.3 L847.557 163.704 L810.767 163.704 L810.767 163.704  Z
  " fill="#009af9" fill-rule="evenodd" fill-opacity="0.3"/>
<polyline clip-path="url(#clip132)" style="stroke:#000000; stroke-width:4; stroke-opacity:0.3; fill:none" points="
  810.767,163.704 810.767,1479.3 847.557,1479.3 847.557,163.704 810.767,163.704 
  "/>
<path clip-path="url(#clip132)" d="
M847.557 492.602 L847.557 1479.3 L884.347 1479.3 L884.347 492.602 L847.557 492.602 L847.557 492.602  Z
  " fill="#009af9" fill-rule="evenodd" fill-opacity="0.3"/>
<polyline clip-path="url(#clip132)" style="stroke:#000000; stroke-width:4; stroke-opacity:0.3; fill:none" points="
  847.557,492.602 847.557,1479.3 884.347,1479.3 884.347,492.602 847.557,492.602 
  "/>
<path clip-path="url(#clip132)" d="
M884.347 642.102 L884.347 1479.3 L921.137 1479.3 L921.137 642.102 L884.347 642.102 L884.347 642.102  Z
  " fill="#009af9" fill-rule="evenodd" fill-opacity="0.3"/>
<polyline clip-path="url(#clip132)" style="stroke:#000000; stroke-width:4; stroke-opacity:0.3; fill:none" points="
  884.347,642.102 884.347,1479.3 921.137,1479.3 921.137,642.102 884.347,642.102 
  "/>
<path clip-path="url(#clip132)" d="
M921.137 746.751 L921.137 1479.3 L957.928 1479.3 L957.928 746.751 L921.137 746.751 L921.137 746.751  Z
  " fill="#009af9" fill-rule="evenodd" fill-opacity="0.3"/>
<polyline clip-path="url(#clip132)" style="stroke:#000000; stroke-width:4; stroke-opacity:0.3; fill:none" points="
  921.137,746.751 921.137,1479.3 957.928,1479.3 957.928,746.751 921.137,746.751 
  "/>
<path clip-path="url(#clip132)" d="
M957.928 627.152 L957.928 1479.3 L994.718 1479.3 L994.718 627.152 L957.928 627.152 L957.928 627.152  Z
  " fill="#009af9" fill-rule="evenodd" fill-opacity="0.3"/>
<polyline clip-path="url(#clip132)" style="stroke:#000000; stroke-width:4; stroke-opacity:0.3; fill:none" points="
  957.928,627.152 957.928,1479.3 994.718,1479.3 994.718,627.152 957.928,627.152 
  "/>
<path clip-path="url(#clip132)" d="
M994.718 1165.35 L994.718 1479.3 L1031.51 1479.3 L1031.51 1165.35 L994.718 1165.35 L994.718 1165.35  Z
  " fill="#009af9" fill-rule="evenodd" fill-opacity="0.3"/>
<polyline clip-path="url(#clip132)" style="stroke:#000000; stroke-width:4; stroke-opacity:0.3; fill:none" points="
  994.718,1165.35 994.718,1479.3 1031.51,1479.3 1031.51,1165.35 994.718,1165.35 
  "/>
<path clip-path="url(#clip132)" d="
M1031.51 1030.8 L1031.51 1479.3 L1068.3 1479.3 L1068.3 1030.8 L1031.51 1030.8 L1031.51 1030.8  Z
  " fill="#009af9" fill-rule="evenodd" fill-opacity="0.3"/>
<polyline clip-path="url(#clip132)" style="stroke:#000000; stroke-width:4; stroke-opacity:0.3; fill:none" points="
  1031.51,1030.8 1031.51,1479.3 1068.3,1479.3 1068.3,1030.8 1031.51,1030.8 
  "/>
<path clip-path="url(#clip132)" d="
M1068.3 1075.65 L1068.3 1479.3 L1105.09 1479.3 L1105.09 1075.65 L1068.3 1075.65 L1068.3 1075.65  Z
  " fill="#009af9" fill-rule="evenodd" fill-opacity="0.3"/>
<polyline clip-path="url(#clip132)" style="stroke:#000000; stroke-width:4; stroke-opacity:0.3; fill:none" points="
  1068.3,1075.65 1068.3,1479.3 1105.09,1479.3 1105.09,1075.65 1068.3,1075.65 
  "/>
<path clip-path="url(#clip132)" d="
M1105.09 1374.65 L1105.09 1479.3 L1141.88 1479.3 L1141.88 1374.65 L1105.09 1374.65 L1105.09 1374.65  Z
  " fill="#009af9" fill-rule="evenodd" fill-opacity="0.3"/>
<polyline clip-path="url(#clip132)" style="stroke:#000000; stroke-width:4; stroke-opacity:0.3; fill:none" points="
  1105.09,1374.65 1105.09,1479.3 1141.88,1479.3 1141.88,1374.65 1105.09,1374.65 
  "/>
<path clip-path="url(#clip132)" d="
M1141.88 1299.9 L1141.88 1479.3 L1178.67 1479.3 L1178.67 1299.9 L1141.88 1299.9 L1141.88 1299.9  Z
  " fill="#009af9" fill-rule="evenodd" fill-opacity="0.3"/>
<polyline clip-path="url(#clip132)" style="stroke:#000000; stroke-width:4; stroke-opacity:0.3; fill:none" points="
  1141.88,1299.9 1141.88,1479.3 1178.67,1479.3 1178.67,1299.9 1141.88,1299.9 
  "/>
<path clip-path="url(#clip132)" d="
M1178.67 1329.8 L1178.67 1479.3 L1215.46 1479.3 L1215.46 1329.8 L1178.67 1329.8 L1178.67 1329.8  Z
  " fill="#009af9" fill-rule="evenodd" fill-opacity="0.3"/>
<polyline clip-path="url(#clip132)" style="stroke:#000000; stroke-width:4; stroke-opacity:0.3; fill:none" points="
  1178.67,1329.8 1178.67,1479.3 1215.46,1479.3 1215.46,1329.8 1178.67,1329.8 
  "/>
<path clip-path="url(#clip132)" d="
M1215.46 1434.45 L1215.46 1479.3 L1252.25 1479.3 L1252.25 1434.45 L1215.46 1434.45 L1215.46 1434.45  Z
  " fill="#009af9" fill-rule="evenodd" fill-opacity="0.3"/>
<polyline clip-path="url(#clip132)" style="stroke:#000000; stroke-width:4; stroke-opacity:0.3; fill:none" points="
  1215.46,1434.45 1215.46,1479.3 1252.25,1479.3 1252.25,1434.45 1215.46,1434.45 
  "/>
<path clip-path="url(#clip132)" d="
M1252.25 1389.6 L1252.25 1479.3 L1289.04 1479.3 L1289.04 1389.6 L1252.25 1389.6 L1252.25 1389.6  Z
  " fill="#009af9" fill-rule="evenodd" fill-opacity="0.3"/>
<polyline clip-path="url(#clip132)" style="stroke:#000000; stroke-width:4; stroke-opacity:0.3; fill:none" points="
  1252.25,1389.6 1252.25,1479.3 1289.04,1479.3 1289.04,1389.6 1252.25,1389.6 
  "/>
<path clip-path="url(#clip132)" d="
M1289.04 1464.35 L1289.04 1479.3 L1325.83 1479.3 L1325.83 1464.35 L1289.04 1464.35 L1289.04 1464.35  Z
  " fill="#009af9" fill-rule="evenodd" fill-opacity="0.3"/>
<polyline clip-path="url(#clip132)" style="stroke:#000000; stroke-width:4; stroke-opacity:0.3; fill:none" points="
  1289.04,1464.35 1289.04,1479.3 1325.83,1479.3 1325.83,1464.35 1289.04,1464.35 
  "/>
<path clip-path="url(#clip132)" d="
M810.767 1464.35 L810.767 1479.3 L847.557 1479.3 L847.557 1464.35 L810.767 1464.35 L810.767 1464.35  Z
  " fill="#e26f46" fill-rule="evenodd" fill-opacity="0.3"/>
<polyline clip-path="url(#clip132)" style="stroke:#000000; stroke-width:4; stroke-opacity:0.3; fill:none" points="
  810.767,1464.35 810.767,1479.3 847.557,1479.3 847.557,1464.35 810.767,1464.35 
  "/>
<path clip-path="url(#clip132)" d="
M847.557 1479.3 L847.557 1479.3 L884.347 1479.3 L884.347 1479.3 L847.557 1479.3 L847.557 1479.3  Z
  " fill="#e26f46" fill-rule="evenodd" fill-opacity="0.3"/>
<polyline clip-path="url(#clip132)" style="stroke:#000000; stroke-width:4; stroke-opacity:0.3; fill:none" points="
  847.557,1479.3 847.557,1479.3 884.347,1479.3 847.557,1479.3 
  "/>
<path clip-path="url(#clip132)" d="
M884.347 1479.3 L884.347 1479.3 L921.137 1479.3 L921.137 1479.3 L884.347 1479.3 L884.347 1479.3  Z
  " fill="#e26f46" fill-rule="evenodd" fill-opacity="0.3"/>
<polyline clip-path="url(#clip132)" style="stroke:#000000; stroke-width:4; stroke-opacity:0.3; fill:none" points="
  884.347,1479.3 884.347,1479.3 921.137,1479.3 884.347,1479.3 
  "/>
<path clip-path="url(#clip132)" d="
M921.137 1479.3 L921.137 1479.3 L957.928 1479.3 L957.928 1479.3 L921.137 1479.3 L921.137 1479.3  Z
  " fill="#e26f46" fill-rule="evenodd" fill-opacity="0.3"/>
<polyline clip-path="url(#clip132)" style="stroke:#000000; stroke-width:4; stroke-opacity:0.3; fill:none" points="
  921.137,1479.3 921.137,1479.3 957.928,1479.3 921.137,1479.3 
  "/>
<path clip-path="url(#clip132)" d="
M957.928 1464.35 L957.928 1479.3 L994.718 1479.3 L994.718 1464.35 L957.928 1464.35 L957.928 1464.35  Z
  " fill="#e26f46" fill-rule="evenodd" fill-opacity="0.3"/>
<polyline clip-path="url(#clip132)" style="stroke:#000000; stroke-width:4; stroke-opacity:0.3; fill:none" points="
  957.928,1464.35 957.928,1479.3 994.718,1479.3 994.718,1464.35 957.928,1464.35 
  "/>
<path clip-path="url(#clip132)" d="
M994.718 1449.4 L994.718 1479.3 L1031.51 1479.3 L1031.51 1449.4 L994.718 1449.4 L994.718 1449.4  Z
  " fill="#e26f46" fill-rule="evenodd" fill-opacity="0.3"/>
<polyline clip-path="url(#clip132)" style="stroke:#000000; stroke-width:4; stroke-opacity:0.3; fill:none" points="
  994.718,1449.4 994.718,1479.3 1031.51,1479.3 1031.51,1449.4 994.718,1449.4 
  "/>
<path clip-path="url(#clip132)" d="
M1031.51 1404.55 L1031.51 1479.3 L1068.3 1479.3 L1068.3 1404.55 L1031.51 1404.55 L1031.51 1404.55  Z
  " fill="#e26f46" fill-rule="evenodd" fill-opacity="0.3"/>
<polyline clip-path="url(#clip132)" style="stroke:#000000; stroke-width:4; stroke-opacity:0.3; fill:none" points="
  1031.51,1404.55 1031.51,1479.3 1068.3,1479.3 1068.3,1404.55 1031.51,1404.55 
  "/>
<path clip-path="url(#clip132)" d="
M1068.3 1389.6 L1068.3 1479.3 L1105.09 1479.3 L1105.09 1389.6 L1068.3 1389.6 L1068.3 1389.6  Z
  " fill="#e26f46" fill-rule="evenodd" fill-opacity="0.3"/>
<polyline clip-path="url(#clip132)" style="stroke:#000000; stroke-width:4; stroke-opacity:0.3; fill:none" points="
  1068.3,1389.6 1068.3,1479.3 1105.09,1479.3 1105.09,1389.6 1068.3,1389.6 
  "/>
<path clip-path="url(#clip132)" d="
M1105.09 1359.7 L1105.09 1479.3 L1141.88 1479.3 L1141.88 1359.7 L1105.09 1359.7 L1105.09 1359.7  Z
  " fill="#e26f46" fill-rule="evenodd" fill-opacity="0.3"/>
<polyline clip-path="url(#clip132)" style="stroke:#000000; stroke-width:4; stroke-opacity:0.3; fill:none" points="
  1105.09,1359.7 1105.09,1479.3 1141.88,1479.3 1141.88,1359.7 1105.09,1359.7 
  "/>
<path clip-path="url(#clip132)" d="
M1141.88 1284.95 L1141.88 1479.3 L1178.67 1479.3 L1178.67 1284.95 L1141.88 1284.95 L1141.88 1284.95  Z
  " fill="#e26f46" fill-rule="evenodd" fill-opacity="0.3"/>
<polyline clip-path="url(#clip132)" style="stroke:#000000; stroke-width:4; stroke-opacity:0.3; fill:none" points="
  1141.88,1284.95 1141.88,1479.3 1178.67,1479.3 1178.67,1284.95 1141.88,1284.95 
  "/>
<path clip-path="url(#clip132)" d="
M1178.67 1210.2 L1178.67 1479.3 L1215.46 1479.3 L1215.46 1210.2 L1178.67 1210.2 L1178.67 1210.2  Z
  " fill="#e26f46" fill-rule="evenodd" fill-opacity="0.3"/>
<polyline clip-path="url(#clip132)" style="stroke:#000000; stroke-width:4; stroke-opacity:0.3; fill:none" points="
  1178.67,1210.2 1178.67,1479.3 1215.46,1479.3 1215.46,1210.2 1178.67,1210.2 
  "/>
<path clip-path="url(#clip132)" d="
M1215.46 1105.55 L1215.46 1479.3 L1252.25 1479.3 L1252.25 1105.55 L1215.46 1105.55 L1215.46 1105.55  Z
  " fill="#e26f46" fill-rule="evenodd" fill-opacity="0.3"/>
<polyline clip-path="url(#clip132)" style="stroke:#000000; stroke-width:4; stroke-opacity:0.3; fill:none" points="
  1215.46,1105.55 1215.46,1479.3 1252.25,1479.3 1252.25,1105.55 1215.46,1105.55 
  "/>
<path clip-path="url(#clip132)" d="
M1252.25 881.301 L1252.25 1479.3 L1289.04 1479.3 L1289.04 881.301 L1252.25 881.301 L1252.25 881.301  Z
  " fill="#e26f46" fill-rule="evenodd" fill-opacity="0.3"/>
<polyline clip-path="url(#clip132)" style="stroke:#000000; stroke-width:4; stroke-opacity:0.3; fill:none" points="
  1252.25,881.301 1252.25,1479.3 1289.04,1479.3 1289.04,881.301 1252.25,881.301 
  "/>
<path clip-path="url(#clip132)" d="
M1289.04 926.15 L1289.04 1479.3 L1325.83 1479.3 L1325.83 926.15 L1289.04 926.15 L1289.04 926.15  Z
  " fill="#e26f46" fill-rule="evenodd" fill-opacity="0.3"/>
<polyline clip-path="url(#clip132)" style="stroke:#000000; stroke-width:4; stroke-opacity:0.3; fill:none" points="
  1289.04,926.15 1289.04,1479.3 1325.83,1479.3 1325.83,926.15 1289.04,926.15 
  "/>
<path clip-path="url(#clip132)" d="
M1325.83 657.052 L1325.83 1479.3 L1362.62 1479.3 L1362.62 657.052 L1325.83 657.052 L1325.83 657.052  Z
  " fill="#e26f46" fill-rule="evenodd" fill-opacity="0.3"/>
<polyline clip-path="url(#clip132)" style="stroke:#000000; stroke-width:4; stroke-opacity:0.3; fill:none" points="
  1325.83,657.052 1325.83,1479.3 1362.62,1479.3 1362.62,657.052 1325.83,657.052 
  "/>
<path clip-path="url(#clip132)" d="
M1362.62 597.252 L1362.62 1479.3 L1399.41 1479.3 L1399.41 597.252 L1362.62 597.252 L1362.62 597.252  Z
  " fill="#e26f46" fill-rule="evenodd" fill-opacity="0.3"/>
<polyline clip-path="url(#clip132)" style="stroke:#000000; stroke-width:4; stroke-opacity:0.3; fill:none" points="
  1362.62,597.252 1362.62,1479.3 1399.41,1479.3 1399.41,597.252 1362.62,597.252 
  "/>
<path clip-path="url(#clip132)" d="
M1399.41 477.652 L1399.41 1479.3 L1436.2 1479.3 L1436.2 477.652 L1399.41 477.652 L1399.41 477.652  Z
  " fill="#e26f46" fill-rule="evenodd" fill-opacity="0.3"/>
<polyline clip-path="url(#clip132)" style="stroke:#000000; stroke-width:4; stroke-opacity:0.3; fill:none" points="
  1399.41,477.652 1399.41,1479.3 1436.2,1479.3 1436.2,477.652 1399.41,477.652 
  "/>
<path clip-path="url(#clip132)" d="
M1436.2 283.303 L1436.2 1479.3 L1472.99 1479.3 L1472.99 283.303 L1436.2 283.303 L1436.2 283.303  Z
  " fill="#e26f46" fill-rule="evenodd" fill-opacity="0.3"/>
<polyline clip-path="url(#clip132)" style="stroke:#000000; stroke-width:4; stroke-opacity:0.3; fill:none" points="
  1436.2,283.303 1436.2,1479.3 1472.99,1479.3 1472.99,283.303 1436.2,283.303 
  "/>
<path clip-path="url(#clip132)" d="
M1472.99 88.9544 L1472.99 1479.3 L1509.78 1479.3 L1509.78 88.9544 L1472.99 88.9544 L1472.99 88.9544  Z
  " fill="#e26f46" fill-rule="evenodd" fill-opacity="0.3"/>
<polyline clip-path="url(#clip132)" style="stroke:#000000; stroke-width:4; stroke-opacity:0.3; fill:none" points="
  1472.99,88.9544 1472.99,1479.3 1509.78,1479.3 1509.78,88.9544 1472.99,88.9544 
  "/>
<path clip-path="url(#clip132)" d="
M1509.78 358.053 L1509.78 1479.3 L1546.57 1479.3 L1546.57 358.053 L1509.78 358.053 L1509.78 358.053  Z
  " fill="#e26f46" fill-rule="evenodd" fill-opacity="0.3"/>
<polyline clip-path="url(#clip132)" style="stroke:#000000; stroke-width:4; stroke-opacity:0.3; fill:none" points="
  1509.78,358.053 1509.78,1479.3 1546.57,1479.3 1546.57,358.053 1509.78,358.053 
  "/>
<path clip-path="url(#clip132)" d="
M1546.57 716.851 L1546.57 1479.3 L1583.36 1479.3 L1583.36 716.851 L1546.57 716.851 L1546.57 716.851  Z
  " fill="#e26f46" fill-rule="evenodd" fill-opacity="0.3"/>
<polyline clip-path="url(#clip132)" style="stroke:#000000; stroke-width:4; stroke-opacity:0.3; fill:none" points="
  1546.57,716.851 1546.57,1479.3 1583.36,1479.3 1583.36,716.851 1546.57,716.851 
  "/>
<path clip-path="url(#clip132)" d="
M1583.36 253.404 L1583.36 1479.3 L1620.15 1479.3 L1620.15 253.404 L1583.36 253.404 L1583.36 253.404  Z
  " fill="#e26f46" fill-rule="evenodd" fill-opacity="0.3"/>
<polyline clip-path="url(#clip132)" style="stroke:#000000; stroke-width:4; stroke-opacity:0.3; fill:none" points="
  1583.36,253.404 1583.36,1479.3 1620.15,1479.3 1620.15,253.404 1583.36,253.404 
  "/>
<path clip-path="url(#clip132)" d="
M1620.15 582.302 L1620.15 1479.3 L1656.94 1479.3 L1656.94 582.302 L1620.15 582.302 L1620.15 582.302  Z
  " fill="#e26f46" fill-rule="evenodd" fill-opacity="0.3"/>
<polyline clip-path="url(#clip132)" style="stroke:#000000; stroke-width:4; stroke-opacity:0.3; fill:none" points="
  1620.15,582.302 1620.15,1479.3 1656.94,1479.3 1656.94,582.302 1620.15,582.302 
  "/>
<path clip-path="url(#clip132)" d="
M1656.94 686.951 L1656.94 1479.3 L1693.73 1479.3 L1693.73 686.951 L1656.94 686.951 L1656.94 686.951  Z
  " fill="#e26f46" fill-rule="evenodd" fill-opacity="0.3"/>
<polyline clip-path="url(#clip132)" style="stroke:#000000; stroke-width:4; stroke-opacity:0.3; fill:none" points="
  1656.94,686.951 1656.94,1479.3 1693.73,1479.3 1693.73,686.951 1656.94,686.951 
  "/>
<path clip-path="url(#clip132)" d="
M1693.73 836.451 L1693.73 1479.3 L1730.52 1479.3 L1730.52 836.451 L1693.73 836.451 L1693.73 836.451  Z
  " fill="#e26f46" fill-rule="evenodd" fill-opacity="0.3"/>
<polyline clip-path="url(#clip132)" style="stroke:#000000; stroke-width:4; stroke-opacity:0.3; fill:none" points="
  1693.73,836.451 1693.73,1479.3 1730.52,1479.3 1730.52,836.451 1693.73,836.451 
  "/>
<path clip-path="url(#clip132)" d="
M1730.52 851.401 L1730.52 1479.3 L1767.31 1479.3 L1767.31 851.401 L1730.52 851.401 L1730.52 851.401  Z
  " fill="#e26f46" fill-rule="evenodd" fill-opacity="0.3"/>
<polyline clip-path="url(#clip132)" style="stroke:#000000; stroke-width:4; stroke-opacity:0.3; fill:none" points="
  1730.52,851.401 1730.52,1479.3 1767.31,1479.3 1767.31,851.401 1730.52,851.401 
  "/>
<path clip-path="url(#clip132)" d="
M1767.31 985.95 L1767.31 1479.3 L1804.1 1479.3 L1804.1 985.95 L1767.31 985.95 L1767.31 985.95  Z
  " fill="#e26f46" fill-rule="evenodd" fill-opacity="0.3"/>
<polyline clip-path="url(#clip132)" style="stroke:#000000; stroke-width:4; stroke-opacity:0.3; fill:none" points="
  1767.31,985.95 1767.31,1479.3 1804.1,1479.3 1804.1,985.95 1767.31,985.95 
  "/>
<path clip-path="url(#clip132)" d="
M1804.1 1270 L1804.1 1479.3 L1840.89 1479.3 L1840.89 1270 L1804.1 1270 L1804.1 1270  Z
  " fill="#e26f46" fill-rule="evenodd" fill-opacity="0.3"/>
<polyline clip-path="url(#clip132)" style="stroke:#000000; stroke-width:4; stroke-opacity:0.3; fill:none" points="
  1804.1,1270 1804.1,1479.3 1840.89,1479.3 1840.89,1270 1804.1,1270 
  "/>
<path clip-path="url(#clip132)" d="
M1840.89 1284.95 L1840.89 1479.3 L1877.68 1479.3 L1877.68 1284.95 L1840.89 1284.95 L1840.89 1284.95  Z
  " fill="#e26f46" fill-rule="evenodd" fill-opacity="0.3"/>
<polyline clip-path="url(#clip132)" style="stroke:#000000; stroke-width:4; stroke-opacity:0.3; fill:none" points="
  1840.89,1284.95 1840.89,1479.3 1877.68,1479.3 1877.68,1284.95 1840.89,1284.95 
  "/>
<path clip-path="url(#clip132)" d="
M1877.68 1359.7 L1877.68 1479.3 L1914.47 1479.3 L1914.47 1359.7 L1877.68 1359.7 L1877.68 1359.7  Z
  " fill="#e26f46" fill-rule="evenodd" fill-opacity="0.3"/>
<polyline clip-path="url(#clip132)" style="stroke:#000000; stroke-width:4; stroke-opacity:0.3; fill:none" points="
  1877.68,1359.7 1877.68,1479.3 1914.47,1479.3 1914.47,1359.7 1877.68,1359.7 
  "/>
<path clip-path="url(#clip132)" d="
M1914.47 1374.65 L1914.47 1479.3 L1951.26 1479.3 L1951.26 1374.65 L1914.47 1374.65 L1914.47 1374.65  Z
  " fill="#e26f46" fill-rule="evenodd" fill-opacity="0.3"/>
<polyline clip-path="url(#clip132)" style="stroke:#000000; stroke-width:4; stroke-opacity:0.3; fill:none" points="
  1914.47,1374.65 1914.47,1479.3 1951.26,1479.3 1951.26,1374.65 1914.47,1374.65 
  "/>
<path clip-path="url(#clip132)" d="
M1951.26 1449.4 L1951.26 1479.3 L1988.05 1479.3 L1988.05 1449.4 L1951.26 1449.4 L1951.26 1449.4  Z
  " fill="#e26f46" fill-rule="evenodd" fill-opacity="0.3"/>
<polyline clip-path="url(#clip132)" style="stroke:#000000; stroke-width:4; stroke-opacity:0.3; fill:none" points="
  1951.26,1449.4 1951.26,1479.3 1988.05,1479.3 1988.05,1449.4 1951.26,1449.4 
  "/>
<path clip-path="url(#clip132)" d="
M1988.05 1449.4 L1988.05 1479.3 L2024.84 1479.3 L2024.84 1449.4 L1988.05 1449.4 L1988.05 1449.4  Z
  " fill="#e26f46" fill-rule="evenodd" fill-opacity="0.3"/>
<polyline clip-path="url(#clip132)" style="stroke:#000000; stroke-width:4; stroke-opacity:0.3; fill:none" points="
  1988.05,1449.4 1988.05,1479.3 2024.84,1479.3 2024.84,1449.4 1988.05,1449.4 
  "/>
<path clip-path="url(#clip132)" d="
M2024.84 1449.4 L2024.84 1479.3 L2061.63 1479.3 L2061.63 1449.4 L2024.84 1449.4 L2024.84 1449.4  Z
  " fill="#e26f46" fill-rule="evenodd" fill-opacity="0.3"/>
<polyline clip-path="url(#clip132)" style="stroke:#000000; stroke-width:4; stroke-opacity:0.3; fill:none" points="
  2024.84,1449.4 2024.84,1479.3 2061.63,1479.3 2061.63,1449.4 2024.84,1449.4 
  "/>
<path clip-path="url(#clip132)" d="
M2061.63 1464.35 L2061.63 1479.3 L2098.42 1479.3 L2098.42 1464.35 L2061.63 1464.35 L2061.63 1464.35  Z
  " fill="#e26f46" fill-rule="evenodd" fill-opacity="0.3"/>
<polyline clip-path="url(#clip132)" style="stroke:#000000; stroke-width:4; stroke-opacity:0.3; fill:none" points="
  2061.63,1464.35 2061.63,1479.3 2098.42,1479.3 2098.42,1464.35 2061.63,1464.35 
  "/>
<path clip-path="url(#clip132)" d="
M2098.42 1464.35 L2098.42 1479.3 L2135.22 1479.3 L2135.22 1464.35 L2098.42 1464.35 L2098.42 1464.35  Z
  " fill="#e26f46" fill-rule="evenodd" fill-opacity="0.3"/>
<polyline clip-path="url(#clip132)" style="stroke:#000000; stroke-width:4; stroke-opacity:0.3; fill:none" points="
  2098.42,1464.35 2098.42,1479.3 2135.22,1479.3 2135.22,1464.35 2098.42,1464.35 
  "/>
<path clip-path="url(#clip132)" d="
M2135.22 1479.3 L2135.22 1479.3 L2172.01 1479.3 L2172.01 1479.3 L2135.22 1479.3 L2135.22 1479.3  Z
  " fill="#e26f46" fill-rule="evenodd" fill-opacity="0.3"/>
<polyline clip-path="url(#clip132)" style="stroke:#000000; stroke-width:4; stroke-opacity:0.3; fill:none" points="
  2135.22,1479.3 2135.22,1479.3 2172.01,1479.3 2135.22,1479.3 
  "/>
<path clip-path="url(#clip132)" d="
M2172.01 1479.3 L2172.01 1479.3 L2208.8 1479.3 L2208.8 1479.3 L2172.01 1479.3 L2172.01 1479.3  Z
  " fill="#e26f46" fill-rule="evenodd" fill-opacity="0.3"/>
<polyline clip-path="url(#clip132)" style="stroke:#000000; stroke-width:4; stroke-opacity:0.3; fill:none" points="
  2172.01,1479.3 2172.01,1479.3 2208.8,1479.3 2172.01,1479.3 
  "/>
<path clip-path="url(#clip132)" d="
M2208.8 1464.35 L2208.8 1479.3 L2245.59 1479.3 L2245.59 1464.35 L2208.8 1464.35 L2208.8 1464.35  Z
  " fill="#e26f46" fill-rule="evenodd" fill-opacity="0.3"/>
<polyline clip-path="url(#clip132)" style="stroke:#000000; stroke-width:4; stroke-opacity:0.3; fill:none" points="
  2208.8,1464.35 2208.8,1479.3 2245.59,1479.3 2245.59,1464.35 2208.8,1464.35 
  "/>
</svg>
