<?xml version="1.0" encoding="utf-8"?>
<svg xmlns="http://www.w3.org/2000/svg" xmlns:xlink="http://www.w3.org/1999/xlink" width="600" height="400" viewBox="0 0 2400 1600">
<defs>
  <clipPath id="clip070">
    <rect x="0" y="0" width="2400" height="1600"/>
  </clipPath>
</defs>
<path clip-path="url(#clip070)" d="
M0 1600 L2400 1600 L2400 0 L0 0  Z
  " fill="#ffffff" fill-rule="evenodd" fill-opacity="1"/>
<defs>
  <clipPath id="clip071">
    <rect x="480" y="0" width="1681" height="1600"/>
  </clipPath>
</defs>
<path clip-path="url(#clip070)" d="
M86.9921 1521.01 L2352.76 1521.01 L2352.76 47.2441 L86.9921 47.2441  Z
  " fill="#ffffff" fill-rule="evenodd" fill-opacity="1"/>
<defs>
  <clipPath id="clip072">
    <rect x="86" y="47" width="2267" height="1475"/>
  </clipPath>
</defs>
<polyline clip-path="url(#clip072)" style="stroke:#000000; stroke-width:2; stroke-opacity:0.1; fill:none" points="
  274.629,1521.01 274.629,47.2441 
  "/>
<polyline clip-path="url(#clip072)" style="stroke:#000000; stroke-width:2; stroke-opacity:0.1; fill:none" points="
  589.711,1521.01 589.711,47.2441 
  "/>
<polyline clip-path="url(#clip072)" style="stroke:#000000; stroke-width:2; stroke-opacity:0.1; fill:none" points="
  904.793,1521.01 904.793,47.2441 
  "/>
<polyline clip-path="url(#clip072)" style="stroke:#000000; stroke-width:2; stroke-opacity:0.1; fill:none" points="
  1219.87,1521.01 1219.87,47.2441 
  "/>
<polyline clip-path="url(#clip072)" style="stroke:#000000; stroke-width:2; stroke-opacity:0.1; fill:none" points="
  1534.96,1521.01 1534.96,47.2441 
  "/>
<polyline clip-path="url(#clip072)" style="stroke:#000000; stroke-width:2; stroke-opacity:0.1; fill:none" points="
  1850.04,1521.01 1850.04,47.2441 
  "/>
<polyline clip-path="url(#clip072)" style="stroke:#000000; stroke-width:2; stroke-opacity:0.1; fill:none" points="
  2165.12,1521.01 2165.12,47.2441 
  "/>
<polyline clip-path="url(#clip070)" style="stroke:#000000; stroke-width:4; stroke-opacity:1; fill:none" points="
  86.9921,1521.01 2352.76,1521.01 
  "/>
<polyline clip-path="url(#clip070)" style="stroke:#000000; stroke-width:4; stroke-opacity:1; fill:none" points="
  274.629,1521.01 274.629,1503.32 
  "/>
<polyline clip-path="url(#clip070)" style="stroke:#000000; stroke-width:4; stroke-opacity:1; fill:none" points="
  589.711,1521.01 589.711,1503.32 
  "/>
<polyline clip-path="url(#clip070)" style="stroke:#000000; stroke-width:4; stroke-opacity:1; fill:none" points="
  904.793,1521.01 904.793,1503.32 
  "/>
<polyline clip-path="url(#clip070)" style="stroke:#000000; stroke-width:4; stroke-opacity:1; fill:none" points="
  1219.87,1521.01 1219.87,1503.32 
  "/>
<polyline clip-path="url(#clip070)" style="stroke:#000000; stroke-width:4; stroke-opacity:1; fill:none" points="
  1534.96,1521.01 1534.96,1503.32 
  "/>
<polyline clip-path="url(#clip070)" style="stroke:#000000; stroke-width:4; stroke-opacity:1; fill:none" points="
  1850.04,1521.01 1850.04,1503.32 
  "/>
<polyline clip-path="url(#clip070)" style="stroke:#000000; stroke-width:4; stroke-opacity:1; fill:none" points="
  2165.12,1521.01 2165.12,1503.32 
  "/>
<path clip-path="url(#clip070)" d="M 0 0 M250.012 1547.12 L272.234 1547.12 L272.234 1549.11 L259.687 1581.68 L254.803 1581.68 L266.609 1551.06 L250.012 1551.06 L250.012 1547.12 Z" fill="#000000" fill-rule="evenodd" fill-opacity="1" /><path clip-path="url(#clip070)" d="M 0 0 M287.303 1550.2 Q283.692 1550.2 281.863 1553.76 Q280.058 1557.31 280.058 1564.43 Q280.058 1571.54 281.863 1575.11 Q283.692 1578.65 287.303 1578.65 Q290.937 1578.65 292.743 1575.11 Q294.571 1571.54 294.571 1564.43 Q294.571 1557.31 292.743 1553.76 Q290.937 1550.2 287.303 1550.2 M287.303 1546.49 Q293.113 1546.49 296.169 1551.1 Q299.247 1555.68 299.247 1564.43 Q299.247 1573.16 296.169 1577.77 Q293.113 1582.35 287.303 1582.35 Q281.493 1582.35 278.414 1577.77 Q275.359 1573.16 275.359 1564.43 Q275.359 1555.68 278.414 1551.1 Q281.493 1546.49 287.303 1546.49 Z" fill="#000000" fill-rule="evenodd" fill-opacity="1" /><path clip-path="url(#clip070)" d="M 0 0 M576.204 1565.27 Q572.871 1565.27 570.95 1567.05 Q569.051 1568.83 569.051 1571.96 Q569.051 1575.08 570.95 1576.87 Q572.871 1578.65 576.204 1578.65 Q579.537 1578.65 581.459 1576.87 Q583.38 1575.06 583.38 1571.96 Q583.38 1568.83 581.459 1567.05 Q579.561 1565.27 576.204 1565.27 M571.528 1563.28 Q568.519 1562.54 566.829 1560.48 Q565.163 1558.42 565.163 1555.45 Q565.163 1551.31 568.102 1548.9 Q571.065 1546.49 576.204 1546.49 Q581.366 1546.49 584.306 1548.9 Q587.246 1551.31 587.246 1555.45 Q587.246 1558.42 585.556 1560.48 Q583.889 1562.54 580.903 1563.28 Q584.283 1564.06 586.158 1566.36 Q588.056 1568.65 588.056 1571.96 Q588.056 1576.98 584.977 1579.67 Q581.922 1582.35 576.204 1582.35 Q570.487 1582.35 567.408 1579.67 Q564.352 1576.98 564.352 1571.96 Q564.352 1568.65 566.25 1566.36 Q568.149 1564.06 571.528 1563.28 M569.815 1555.89 Q569.815 1558.58 571.482 1560.08 Q573.172 1561.59 576.204 1561.59 Q579.213 1561.59 580.903 1560.08 Q582.616 1558.58 582.616 1555.89 Q582.616 1553.21 580.903 1551.7 Q579.213 1550.2 576.204 1550.2 Q573.172 1550.2 571.482 1551.7 Q569.815 1553.21 569.815 1555.89 Z" fill="#000000" fill-rule="evenodd" fill-opacity="1" /><path clip-path="url(#clip070)" d="M 0 0 M603.125 1550.2 Q599.514 1550.2 597.685 1553.76 Q595.88 1557.31 595.88 1564.43 Q595.88 1571.54 597.685 1575.11 Q599.514 1578.65 603.125 1578.65 Q606.76 1578.65 608.565 1575.11 Q610.394 1571.54 610.394 1564.43 Q610.394 1557.31 608.565 1553.76 Q606.76 1550.2 603.125 1550.2 M603.125 1546.49 Q608.935 1546.49 611.991 1551.1 Q615.07 1555.68 615.07 1564.43 Q615.07 1573.16 611.991 1577.77 Q608.935 1582.35 603.125 1582.35 Q597.315 1582.35 594.236 1577.77 Q591.181 1573.16 591.181 1564.43 Q591.181 1555.68 594.236 1551.1 Q597.315 1546.49 603.125 1546.49 Z" fill="#000000" fill-rule="evenodd" fill-opacity="1" /><path clip-path="url(#clip070)" d="M 0 0 M881.587 1580.96 L881.587 1576.7 Q883.346 1577.54 885.151 1577.98 Q886.957 1578.42 888.693 1578.42 Q893.323 1578.42 895.753 1575.31 Q898.207 1572.19 898.554 1565.85 Q897.212 1567.84 895.151 1568.9 Q893.091 1569.97 890.591 1569.97 Q885.406 1569.97 882.374 1566.84 Q879.364 1563.69 879.364 1558.25 Q879.364 1552.93 882.513 1549.71 Q885.661 1546.49 890.892 1546.49 Q896.887 1546.49 900.036 1551.1 Q903.207 1555.68 903.207 1564.43 Q903.207 1572.61 899.318 1577.49 Q895.452 1582.35 888.901 1582.35 Q887.142 1582.35 885.337 1582 Q883.531 1581.66 881.587 1580.96 M890.892 1566.31 Q894.04 1566.31 895.869 1564.16 Q897.721 1562 897.721 1558.25 Q897.721 1554.53 895.869 1552.37 Q894.04 1550.2 890.892 1550.2 Q887.744 1550.2 885.892 1552.37 Q884.063 1554.53 884.063 1558.25 Q884.063 1562 885.892 1564.16 Q887.744 1566.31 890.892 1566.31 Z" fill="#000000" fill-rule="evenodd" fill-opacity="1" /><path clip-path="url(#clip070)" d="M 0 0 M918.276 1550.2 Q914.665 1550.2 912.836 1553.76 Q911.031 1557.31 911.031 1564.43 Q911.031 1571.54 912.836 1575.11 Q914.665 1578.65 918.276 1578.65 Q921.91 1578.65 923.716 1575.11 Q925.545 1571.54 925.545 1564.43 Q925.545 1557.31 923.716 1553.76 Q921.91 1550.2 918.276 1550.2 M918.276 1546.49 Q924.086 1546.49 927.142 1551.1 Q930.221 1555.68 930.221 1564.43 Q930.221 1573.16 927.142 1577.77 Q924.086 1582.35 918.276 1582.35 Q912.466 1582.35 909.387 1577.77 Q906.332 1573.16 906.332 1564.43 Q906.332 1555.68 909.387 1551.1 Q912.466 1546.49 918.276 1546.49 Z" fill="#000000" fill-rule="evenodd" fill-opacity="1" /><path clip-path="url(#clip070)" d="M 0 0 M1183.24 1577.74 L1190.88 1577.74 L1190.88 1551.38 L1182.57 1553.05 L1182.57 1548.79 L1190.83 1547.12 L1195.51 1547.12 L1195.51 1577.74 L1203.15 1577.74 L1203.15 1581.68 L1183.24 1581.68 L1183.24 1577.74 Z" fill="#000000" fill-rule="evenodd" fill-opacity="1" /><path clip-path="url(#clip070)" d="M 0 0 M1218.22 1550.2 Q1214.61 1550.2 1212.78 1553.76 Q1210.97 1557.31 1210.97 1564.43 Q1210.97 1571.54 1212.78 1575.11 Q1214.61 1578.65 1218.22 1578.65 Q1221.85 1578.65 1223.66 1575.11 Q1225.49 1571.54 1225.49 1564.43 Q1225.49 1557.31 1223.66 1553.76 Q1221.85 1550.2 1218.22 1550.2 M1218.22 1546.49 Q1224.03 1546.49 1227.08 1551.1 Q1230.16 1555.68 1230.16 1564.43 Q1230.16 1573.16 1227.08 1577.77 Q1224.03 1582.35 1218.22 1582.35 Q1212.41 1582.35 1209.33 1577.77 Q1206.27 1573.16 1206.27 1564.43 Q1206.27 1555.68 1209.33 1551.1 Q1212.41 1546.49 1218.22 1546.49 Z" fill="#000000" fill-rule="evenodd" fill-opacity="1" /><path clip-path="url(#clip070)" d="M 0 0 M1245.23 1550.2 Q1241.62 1550.2 1239.79 1553.76 Q1237.99 1557.31 1237.99 1564.43 Q1237.99 1571.54 1239.79 1575.11 Q1241.62 1578.65 1245.23 1578.65 Q1248.87 1578.65 1250.67 1575.11 Q1252.5 1571.54 1252.5 1564.43 Q1252.5 1557.31 1250.67 1553.76 Q1248.87 1550.2 1245.23 1550.2 M1245.23 1546.49 Q1251.04 1546.49 1254.1 1551.1 Q1257.18 1555.68 1257.18 1564.43 Q1257.18 1573.16 1254.1 1577.77 Q1251.04 1582.35 1245.23 1582.35 Q1239.42 1582.35 1236.34 1577.77 Q1233.29 1573.16 1233.29 1564.43 Q1233.29 1555.68 1236.34 1551.1 Q1239.42 1546.49 1245.23 1546.49 Z" fill="#000000" fill-rule="evenodd" fill-opacity="1" /><path clip-path="url(#clip070)" d="M 0 0 M1498.94 1577.74 L1506.58 1577.74 L1506.58 1551.38 L1498.27 1553.05 L1498.27 1548.79 L1506.53 1547.12 L1511.21 1547.12 L1511.21 1577.74 L1518.84 1577.74 L1518.84 1581.68 L1498.94 1581.68 L1498.94 1577.74 Z" fill="#000000" fill-rule="evenodd" fill-opacity="1" /><path clip-path="url(#clip070)" d="M 0 0 M1524.72 1577.74 L1532.36 1577.74 L1532.36 1551.38 L1524.05 1553.05 L1524.05 1548.79 L1532.32 1547.12 L1536.99 1547.12 L1536.99 1577.74 L1544.63 1577.74 L1544.63 1581.68 L1524.72 1581.68 L1524.72 1577.74 Z" fill="#000000" fill-rule="evenodd" fill-opacity="1" /><path clip-path="url(#clip070)" d="M 0 0 M1559.7 1550.2 Q1556.09 1550.2 1554.26 1553.76 Q1552.46 1557.31 1552.46 1564.43 Q1552.46 1571.54 1554.26 1575.11 Q1556.09 1578.65 1559.7 1578.65 Q1563.34 1578.65 1565.14 1575.11 Q1566.97 1571.54 1566.97 1564.43 Q1566.97 1557.31 1565.14 1553.76 Q1563.34 1550.2 1559.7 1550.2 M1559.7 1546.49 Q1565.51 1546.49 1568.57 1551.1 Q1571.65 1555.68 1571.65 1564.43 Q1571.65 1573.16 1568.57 1577.77 Q1565.51 1582.35 1559.7 1582.35 Q1553.89 1582.35 1550.81 1577.77 Q1547.76 1573.16 1547.76 1564.43 Q1547.76 1555.68 1550.81 1551.1 Q1553.89 1546.49 1559.7 1546.49 Z" fill="#000000" fill-rule="evenodd" fill-opacity="1" /><path clip-path="url(#clip070)" d="M 0 0 M1814.2 1577.74 L1821.84 1577.74 L1821.84 1551.38 L1813.53 1553.05 L1813.53 1548.79 L1821.8 1547.12 L1826.47 1547.12 L1826.47 1577.74 L1834.11 1577.74 L1834.11 1581.68 L1814.2 1581.68 L1814.2 1577.74 Z" fill="#000000" fill-rule="evenodd" fill-opacity="1" /><path clip-path="url(#clip070)" d="M 0 0 M1843.21 1577.74 L1859.53 1577.74 L1859.53 1581.68 L1837.58 1581.68 L1837.58 1577.74 Q1840.25 1574.99 1844.83 1570.36 Q1849.44 1565.71 1850.62 1564.37 Q1852.86 1561.84 1853.74 1560.11 Q1854.64 1558.35 1854.64 1556.66 Q1854.64 1553.9 1852.7 1552.17 Q1850.78 1550.43 1847.68 1550.43 Q1845.48 1550.43 1843.02 1551.19 Q1840.59 1551.96 1837.81 1553.51 L1837.81 1548.79 Q1840.64 1547.65 1843.09 1547.07 Q1845.55 1546.49 1847.58 1546.49 Q1852.95 1546.49 1856.15 1549.18 Q1859.34 1551.87 1859.34 1556.36 Q1859.34 1558.49 1858.53 1560.41 Q1857.75 1562.3 1855.64 1564.9 Q1855.06 1565.57 1851.96 1568.79 Q1848.86 1571.98 1843.21 1577.74 Z" fill="#000000" fill-rule="evenodd" fill-opacity="1" /><path clip-path="url(#clip070)" d="M 0 0 M1874.6 1550.2 Q1870.99 1550.2 1869.16 1553.76 Q1867.35 1557.31 1867.35 1564.43 Q1867.35 1571.54 1869.16 1575.11 Q1870.99 1578.65 1874.6 1578.65 Q1878.23 1578.65 1880.04 1575.11 Q1881.87 1571.54 1881.87 1564.43 Q1881.87 1557.31 1880.04 1553.76 Q1878.23 1550.2 1874.6 1550.2 M1874.6 1546.49 Q1880.41 1546.49 1883.46 1551.1 Q1886.54 1555.68 1886.54 1564.43 Q1886.54 1573.16 1883.46 1577.77 Q1880.41 1582.35 1874.6 1582.35 Q1868.79 1582.35 1865.71 1577.77 Q1862.65 1573.16 1862.65 1564.43 Q1862.65 1555.68 1865.71 1551.1 Q1868.79 1546.49 1874.6 1546.49 Z" fill="#000000" fill-rule="evenodd" fill-opacity="1" /><path clip-path="url(#clip070)" d="M 0 0 M2128.81 1577.74 L2136.45 1577.74 L2136.45 1551.38 L2128.14 1553.05 L2128.14 1548.79 L2136.4 1547.12 L2141.08 1547.12 L2141.08 1577.74 L2148.72 1577.74 L2148.72 1581.68 L2128.81 1581.68 L2128.81 1577.74 Z" fill="#000000" fill-rule="evenodd" fill-opacity="1" /><path clip-path="url(#clip070)" d="M 0 0 M2167.95 1563.05 Q2171.31 1563.76 2173.19 1566.03 Q2175.08 1568.3 2175.08 1571.63 Q2175.08 1576.75 2171.57 1579.55 Q2168.05 1582.35 2161.57 1582.35 Q2159.39 1582.35 2157.07 1581.91 Q2154.78 1581.49 2152.33 1580.64 L2152.33 1576.12 Q2154.27 1577.26 2156.59 1577.84 Q2158.9 1578.42 2161.43 1578.42 Q2165.82 1578.42 2168.12 1576.68 Q2170.43 1574.94 2170.43 1571.63 Q2170.43 1568.58 2168.28 1566.87 Q2166.15 1565.13 2162.33 1565.13 L2158.3 1565.13 L2158.3 1561.29 L2162.51 1561.29 Q2165.96 1561.29 2167.79 1559.92 Q2169.62 1558.53 2169.62 1555.94 Q2169.62 1553.28 2167.72 1551.87 Q2165.85 1550.43 2162.33 1550.43 Q2160.41 1550.43 2158.21 1550.85 Q2156.01 1551.26 2153.37 1552.14 L2153.37 1547.98 Q2156.03 1547.24 2158.35 1546.87 Q2160.69 1546.49 2162.75 1546.49 Q2168.07 1546.49 2171.17 1548.93 Q2174.27 1551.33 2174.27 1555.45 Q2174.27 1558.32 2172.63 1560.31 Q2170.99 1562.28 2167.95 1563.05 Z" fill="#000000" fill-rule="evenodd" fill-opacity="1" /><path clip-path="url(#clip070)" d="M 0 0 M2190.15 1550.2 Q2186.54 1550.2 2184.71 1553.76 Q2182.91 1557.31 2182.91 1564.43 Q2182.91 1571.54 2184.71 1575.11 Q2186.54 1578.65 2190.15 1578.65 Q2193.79 1578.65 2195.59 1575.11 Q2197.42 1571.54 2197.42 1564.43 Q2197.42 1557.31 2195.59 1553.76 Q2193.79 1550.2 2190.15 1550.2 M2190.15 1546.49 Q2195.96 1546.49 2199.02 1551.1 Q2202.1 1555.68 2202.1 1564.43 Q2202.1 1573.16 2199.02 1577.77 Q2195.96 1582.35 2190.15 1582.35 Q2184.34 1582.35 2181.26 1577.77 Q2178.21 1573.16 2178.21 1564.43 Q2178.21 1555.68 2181.26 1551.1 Q2184.34 1546.49 2190.15 1546.49 Z" fill="#000000" fill-rule="evenodd" fill-opacity="1" /><polyline clip-path="url(#clip072)" style="stroke:#000000; stroke-width:2; stroke-opacity:0.1; fill:none" points="
  86.9921,1479.3 2352.76,1479.3 
  "/>
<polyline clip-path="url(#clip072)" style="stroke:#000000; stroke-width:2; stroke-opacity:0.1; fill:none" points="
  86.9921,1186.59 2352.76,1186.59 
  "/>
<polyline clip-path="url(#clip072)" style="stroke:#000000; stroke-width:2; stroke-opacity:0.1; fill:none" points="
  86.9921,893.89 2352.76,893.89 
  "/>
<polyline clip-path="url(#clip072)" style="stroke:#000000; stroke-width:2; stroke-opacity:0.1; fill:none" points="
  86.9921,601.186 2352.76,601.186 
  "/>
<polyline clip-path="url(#clip072)" style="stroke:#000000; stroke-width:2; stroke-opacity:0.1; fill:none" points="
  86.9921,308.482 2352.76,308.482 
  "/>
<polyline clip-path="url(#clip070)" style="stroke:#000000; stroke-width:4; stroke-opacity:1; fill:none" points="
  86.9921,1521.01 86.9921,47.2441 
  "/>
<polyline clip-path="url(#clip070)" style="stroke:#000000; stroke-width:4; stroke-opacity:1; fill:none" points="
  86.9921,1479.3 114.181,1479.3 
  "/>
<polyline clip-path="url(#clip070)" style="stroke:#000000; stroke-width:4; stroke-opacity:1; fill:none" points="
  86.9921,1186.59 114.181,1186.59 
  "/>
<polyline clip-path="url(#clip070)" style="stroke:#000000; stroke-width:4; stroke-opacity:1; fill:none" points="
  86.9921,893.89 114.181,893.89 
  "/>
<polyline clip-path="url(#clip070)" style="stroke:#000000; stroke-width:4; stroke-opacity:1; fill:none" points="
  86.9921,601.186 114.181,601.186 
  "/>
<polyline clip-path="url(#clip070)" style="stroke:#000000; stroke-width:4; stroke-opacity:1; fill:none" points="
  86.9921,308.482 114.181,308.482 
  "/>
<path clip-path="url(#clip070)" d="M 0 0 M39.0477 1465.1 Q35.4367 1465.1 33.608 1468.66 Q31.8024 1472.2 31.8024 1479.33 Q31.8024 1486.44 33.608 1490 Q35.4367 1493.55 39.0477 1493.55 Q42.682 1493.55 44.4875 1490 Q46.3162 1486.44 46.3162 1479.33 Q46.3162 1472.2 44.4875 1468.66 Q42.682 1465.1 39.0477 1465.1 M39.0477 1461.39 Q44.8579 1461.39 47.9134 1466 Q50.9921 1470.58 50.9921 1479.33 Q50.9921 1488.06 47.9134 1492.67 Q44.8579 1497.25 39.0477 1497.25 Q33.2376 1497.25 30.1589 1492.67 Q27.1034 1488.06 27.1034 1479.33 Q27.1034 1470.58 30.1589 1466 Q33.2376 1461.39 39.0477 1461.39 Z" fill="#000000" fill-rule="evenodd" fill-opacity="1" /><path clip-path="url(#clip070)" d="M 0 0 M7.65902 1199.94 L23.9784 1199.94 L23.9784 1203.87 L2.03405 1203.87 L2.03405 1199.94 Q4.69608 1197.18 9.27939 1192.55 Q13.8858 1187.9 15.0664 1186.56 Q17.3118 1184.04 18.1914 1182.3 Q19.0941 1180.54 19.0941 1178.85 Q19.0941 1176.1 17.1497 1174.36 Q15.2284 1172.62 12.1266 1172.62 Q9.92753 1172.62 7.47384 1173.39 Q5.0433 1174.15 2.26554 1175.7 L2.26554 1170.98 Q5.08959 1169.85 7.54328 1169.27 Q9.99698 1168.69 12.034 1168.69 Q17.4043 1168.69 20.5988 1171.37 Q23.7932 1174.06 23.7932 1178.55 Q23.7932 1180.68 22.983 1182.6 Q22.196 1184.5 20.0895 1187.09 Q19.5108 1187.76 16.409 1190.98 Q13.3071 1194.17 7.65902 1199.94 Z" fill="#000000" fill-rule="evenodd" fill-opacity="1" /><path clip-path="url(#clip070)" d="M 0 0 M39.0477 1172.39 Q35.4367 1172.39 33.608 1175.96 Q31.8024 1179.5 31.8024 1186.63 Q31.8024 1193.73 33.608 1197.3 Q35.4367 1200.84 39.0477 1200.84 Q42.682 1200.84 44.4875 1197.3 Q46.3162 1193.73 46.3162 1186.63 Q46.3162 1179.5 44.4875 1175.96 Q42.682 1172.39 39.0477 1172.39 M39.0477 1168.69 Q44.8579 1168.69 47.9134 1173.3 Q50.9921 1177.88 50.9921 1186.63 Q50.9921 1195.36 47.9134 1199.96 Q44.8579 1204.55 39.0477 1204.55 Q33.2376 1204.55 30.1589 1199.96 Q27.1034 1195.36 27.1034 1186.63 Q27.1034 1177.88 30.1589 1173.3 Q33.2376 1168.69 39.0477 1168.69 Z" fill="#000000" fill-rule="evenodd" fill-opacity="1" /><path clip-path="url(#clip070)" d="M 0 0 M14.3951 880.684 L2.58961 899.133 L14.3951 899.133 L14.3951 880.684 M13.1683 876.61 L19.0479 876.61 L19.0479 899.133 L23.9784 899.133 L23.9784 903.022 L19.0479 903.022 L19.0479 911.17 L14.3951 911.17 L14.3951 903.022 L-1.20667 903.022 L-1.20667 898.508 L13.1683 876.61 Z" fill="#000000" fill-rule="evenodd" fill-opacity="1" /><path clip-path="url(#clip070)" d="M 0 0 M39.0477 879.689 Q35.4367 879.689 33.608 883.253 Q31.8024 886.795 31.8024 893.925 Q31.8024 901.031 33.608 904.596 Q35.4367 908.138 39.0477 908.138 Q42.682 908.138 44.4875 904.596 Q46.3162 901.031 46.3162 893.925 Q46.3162 886.795 44.4875 883.253 Q42.682 879.689 39.0477 879.689 M39.0477 875.985 Q44.8579 875.985 47.9134 880.591 Q50.9921 885.175 50.9921 893.925 Q50.9921 902.651 47.9134 907.258 Q44.8579 911.841 39.0477 911.841 Q33.2376 911.841 30.1589 907.258 Q27.1034 902.651 27.1034 893.925 Q27.1034 885.175 30.1589 880.591 Q33.2376 875.985 39.0477 875.985 Z" fill="#000000" fill-rule="evenodd" fill-opacity="1" /><path clip-path="url(#clip070)" d="M 0 0 M12.4507 599.323 Q9.30253 599.323 7.45069 601.475 Q5.622 603.628 5.622 607.378 Q5.622 611.105 7.45069 613.281 Q9.30253 615.434 12.4507 615.434 Q15.5988 615.434 17.4275 613.281 Q19.2793 611.105 19.2793 607.378 Q19.2793 603.628 17.4275 601.475 Q15.5988 599.323 12.4507 599.323 M21.733 584.67 L21.733 588.929 Q19.9738 588.096 18.1682 587.656 Q16.3858 587.216 14.6266 587.216 Q9.99698 587.216 7.54328 590.341 Q5.11274 593.466 4.76552 599.786 Q6.13126 597.772 8.19143 596.707 Q10.2516 595.619 12.7284 595.619 Q17.9367 595.619 20.946 598.79 Q23.9784 601.938 23.9784 607.378 Q23.9784 612.702 20.8303 615.92 Q17.6821 619.137 12.4507 619.137 Q6.45533 619.137 3.28405 614.554 Q0.112769 609.948 0.112769 601.221 Q0.112769 593.026 4.00164 588.165 Q7.89051 583.281 14.4414 583.281 Q16.2006 583.281 17.983 583.628 Q19.7886 583.976 21.733 584.67 Z" fill="#000000" fill-rule="evenodd" fill-opacity="1" /><path clip-path="url(#clip070)" d="M 0 0 M39.0477 586.985 Q35.4367 586.985 33.608 590.55 Q31.8024 594.091 31.8024 601.221 Q31.8024 608.327 33.608 611.892 Q35.4367 615.434 39.0477 615.434 Q42.682 615.434 44.4875 611.892 Q46.3162 608.327 46.3162 601.221 Q46.3162 594.091 44.4875 590.55 Q42.682 586.985 39.0477 586.985 M39.0477 583.281 Q44.8579 583.281 47.9134 587.888 Q50.9921 592.471 50.9921 601.221 Q50.9921 609.948 47.9134 614.554 Q44.8579 619.137 39.0477 619.137 Q33.2376 619.137 30.1589 614.554 Q27.1034 609.948 27.1034 601.221 Q27.1034 592.471 30.1589 587.888 Q33.2376 583.281 39.0477 583.281 Z" fill="#000000" fill-rule="evenodd" fill-opacity="1" /><path clip-path="url(#clip070)" d="M 0 0 M12.1266 309.35 Q8.79328 309.35 6.87199 311.133 Q4.97385 312.915 4.97385 316.04 Q4.97385 319.165 6.87199 320.947 Q8.79328 322.73 12.1266 322.73 Q15.4599 322.73 17.3812 320.947 Q19.3025 319.142 19.3025 316.04 Q19.3025 312.915 17.3812 311.133 Q15.4831 309.35 12.1266 309.35 M7.45069 307.36 Q4.44145 306.619 2.75164 304.559 Q1.08499 302.498 1.08499 299.536 Q1.08499 295.392 4.02479 292.985 Q6.98773 290.577 12.1266 290.577 Q17.2886 290.577 20.2284 292.985 Q23.1682 295.392 23.1682 299.536 Q23.1682 302.498 21.4784 304.559 Q19.8117 306.619 16.8256 307.36 Q20.2053 308.147 22.0802 310.438 Q23.9784 312.73 23.9784 316.04 Q23.9784 321.063 20.8997 323.748 Q17.8442 326.434 12.1266 326.434 Q6.40903 326.434 3.33034 323.748 Q0.274805 321.063 0.274805 316.04 Q0.274805 312.73 2.17294 310.438 Q4.07108 308.147 7.45069 307.36 M5.73774 299.975 Q5.73774 302.661 7.4044 304.165 Q9.0942 305.67 12.1266 305.67 Q15.1358 305.67 16.8256 304.165 Q18.5386 302.661 18.5386 299.975 Q18.5386 297.29 16.8256 295.786 Q15.1358 294.281 12.1266 294.281 Q9.0942 294.281 7.4044 295.786 Q5.73774 297.29 5.73774 299.975 Z" fill="#000000" fill-rule="evenodd" fill-opacity="1" /><path clip-path="url(#clip070)" d="M 0 0 M39.0477 294.281 Q35.4367 294.281 33.608 297.846 Q31.8024 301.387 31.8024 308.517 Q31.8024 315.623 33.608 319.188 Q35.4367 322.73 39.0477 322.73 Q42.682 322.73 44.4875 319.188 Q46.3162 315.623 46.3162 308.517 Q46.3162 301.387 44.4875 297.846 Q42.682 294.281 39.0477 294.281 M39.0477 290.577 Q44.8579 290.577 47.9134 295.184 Q50.9921 299.767 50.9921 308.517 Q50.9921 317.244 47.9134 321.85 Q44.8579 326.434 39.0477 326.434 Q33.2376 326.434 30.1589 321.85 Q27.1034 317.244 27.1034 308.517 Q27.1034 299.767 30.1589 295.184 Q33.2376 290.577 39.0477 290.577 Z" fill="#000000" fill-rule="evenodd" fill-opacity="1" /><path clip-path="url(#clip072)" d="
M211.613 1464.66 L211.613 1479.3 L274.629 1479.3 L274.629 1464.66 L211.613 1464.66 L211.613 1464.66  Z
  " fill="#009af9" fill-rule="evenodd" fill-opacity="0.3"/>
<polyline clip-path="url(#clip072)" style="stroke:#000000; stroke-width:4; stroke-opacity:0.3; fill:none" points="
  211.613,1464.66 211.613,1479.3 274.629,1479.3 274.629,1464.66 211.613,1464.66 
  "/>
<path clip-path="url(#clip072)" d="
M274.629 1450.03 L274.629 1479.3 L337.646 1479.3 L337.646 1450.03 L274.629 1450.03 L274.629 1450.03  Z
  " fill="#009af9" fill-rule="evenodd" fill-opacity="0.3"/>
<polyline clip-path="url(#clip072)" style="stroke:#000000; stroke-width:4; stroke-opacity:0.3; fill:none" points="
  274.629,1450.03 274.629,1479.3 337.646,1479.3 337.646,1450.03 274.629,1450.03 
  "/>
<path clip-path="url(#clip072)" d="
M337.646 1420.76 L337.646 1479.3 L400.662 1479.3 L400.662 1420.76 L337.646 1420.76 L337.646 1420.76  Z
  " fill="#009af9" fill-rule="evenodd" fill-opacity="0.3"/>
<polyline clip-path="url(#clip072)" style="stroke:#000000; stroke-width:4; stroke-opacity:0.3; fill:none" points="
  337.646,1420.76 337.646,1479.3 400.662,1479.3 400.662,1420.76 337.646,1420.76 
  "/>
<path clip-path="url(#clip072)" d="
M400.662 1450.03 L400.662 1479.3 L463.678 1479.3 L463.678 1450.03 L400.662 1450.03 L400.662 1450.03  Z
  " fill="#009af9" fill-rule="evenodd" fill-opacity="0.3"/>
<polyline clip-path="url(#clip072)" style="stroke:#000000; stroke-width:4; stroke-opacity:0.3; fill:none" points="
  400.662,1450.03 400.662,1479.3 463.678,1479.3 463.678,1450.03 400.662,1450.03 
  "/>
<path clip-path="url(#clip072)" d="
M463.678 1420.76 L463.678 1479.3 L526.695 1479.3 L526.695 1420.76 L463.678 1420.76 L463.678 1420.76  Z
  " fill="#009af9" fill-rule="evenodd" fill-opacity="0.3"/>
<polyline clip-path="url(#clip072)" style="stroke:#000000; stroke-width:4; stroke-opacity:0.3; fill:none" points="
  463.678,1420.76 463.678,1479.3 526.695,1479.3 526.695,1420.76 463.678,1420.76 
  "/>
<path clip-path="url(#clip072)" d="
M526.695 1435.39 L526.695 1479.3 L589.711 1479.3 L589.711 1435.39 L526.695 1435.39 L526.695 1435.39  Z
  " fill="#009af9" fill-rule="evenodd" fill-opacity="0.3"/>
<polyline clip-path="url(#clip072)" style="stroke:#000000; stroke-width:4; stroke-opacity:0.3; fill:none" points="
  526.695,1435.39 526.695,1479.3 589.711,1479.3 589.711,1435.39 526.695,1435.39 
  "/>
<path clip-path="url(#clip072)" d="
M589.711 1362.22 L589.711 1479.3 L652.727 1479.3 L652.727 1362.22 L589.711 1362.22 L589.711 1362.22  Z
  " fill="#009af9" fill-rule="evenodd" fill-opacity="0.3"/>
<polyline clip-path="url(#clip072)" style="stroke:#000000; stroke-width:4; stroke-opacity:0.3; fill:none" points="
  589.711,1362.22 589.711,1479.3 652.727,1479.3 652.727,1362.22 589.711,1362.22 
  "/>
<path clip-path="url(#clip072)" d="
M652.727 1245.13 L652.727 1479.3 L715.744 1479.3 L715.744 1245.13 L652.727 1245.13 L652.727 1245.13  Z
  " fill="#009af9" fill-rule="evenodd" fill-opacity="0.3"/>
<polyline clip-path="url(#clip072)" style="stroke:#000000; stroke-width:4; stroke-opacity:0.3; fill:none" points="
  652.727,1245.13 652.727,1479.3 715.744,1479.3 715.744,1245.13 652.727,1245.13 
  "/>
<path clip-path="url(#clip072)" d="
M715.744 1010.97 L715.744 1479.3 L778.76 1479.3 L778.76 1010.97 L715.744 1010.97 L715.744 1010.97  Z
  " fill="#009af9" fill-rule="evenodd" fill-opacity="0.3"/>
<polyline clip-path="url(#clip072)" style="stroke:#000000; stroke-width:4; stroke-opacity:0.3; fill:none" points="
  715.744,1010.97 715.744,1479.3 778.76,1479.3 778.76,1010.97 715.744,1010.97 
  "/>
<path clip-path="url(#clip072)" d="
M778.76 1025.61 L778.76 1479.3 L841.776 1479.3 L841.776 1025.61 L778.76 1025.61 L778.76 1025.61  Z
  " fill="#009af9" fill-rule="evenodd" fill-opacity="0.3"/>
<polyline clip-path="url(#clip072)" style="stroke:#000000; stroke-width:4; stroke-opacity:0.3; fill:none" points="
  778.76,1025.61 778.76,1479.3 841.776,1479.3 841.776,1025.61 778.76,1025.61 
  "/>
<path clip-path="url(#clip072)" d="
M841.776 688.997 L841.776 1479.3 L904.793 1479.3 L904.793 688.997 L841.776 688.997 L841.776 688.997  Z
  " fill="#009af9" fill-rule="evenodd" fill-opacity="0.3"/>
<polyline clip-path="url(#clip072)" style="stroke:#000000; stroke-width:4; stroke-opacity:0.3; fill:none" points="
  841.776,688.997 841.776,1479.3 904.793,1479.3 904.793,688.997 841.776,688.997 
  "/>
<path clip-path="url(#clip072)" d="
M904.793 615.821 L904.793 1479.3 L967.809 1479.3 L967.809 615.821 L904.793 615.821 L904.793 615.821  Z
  " fill="#009af9" fill-rule="evenodd" fill-opacity="0.3"/>
<polyline clip-path="url(#clip072)" style="stroke:#000000; stroke-width:4; stroke-opacity:0.3; fill:none" points="
  904.793,615.821 904.793,1479.3 967.809,1479.3 967.809,615.821 904.793,615.821 
  "/>
<path clip-path="url(#clip072)" d="
M967.809 528.01 L967.809 1479.3 L1030.83 1479.3 L1030.83 528.01 L967.809 528.01 L967.809 528.01  Z
  " fill="#009af9" fill-rule="evenodd" fill-opacity="0.3"/>
<polyline clip-path="url(#clip072)" style="stroke:#000000; stroke-width:4; stroke-opacity:0.3; fill:none" points="
  967.809,528.01 967.809,1479.3 1030.83,1479.3 1030.83,528.01 967.809,528.01 
  "/>
<path clip-path="url(#clip072)" d="
M1030.83 557.281 L1030.83 1479.3 L1093.84 1479.3 L1093.84 557.281 L1030.83 557.281 L1030.83 557.281  Z
  " fill="#009af9" fill-rule="evenodd" fill-opacity="0.3"/>
<polyline clip-path="url(#clip072)" style="stroke:#000000; stroke-width:4; stroke-opacity:0.3; fill:none" points="
  1030.83,557.281 1030.83,1479.3 1093.84,1479.3 1093.84,557.281 1030.83,557.281 
  "/>
<path clip-path="url(#clip072)" d="
M1093.84 293.847 L1093.84 1479.3 L1156.86 1479.3 L1156.86 293.847 L1093.84 293.847 L1093.84 293.847  Z
  " fill="#009af9" fill-rule="evenodd" fill-opacity="0.3"/>
<polyline clip-path="url(#clip072)" style="stroke:#000000; stroke-width:4; stroke-opacity:0.3; fill:none" points="
  1093.84,293.847 1093.84,1479.3 1156.86,1479.3 1156.86,293.847 1093.84,293.847 
  "/>
<path clip-path="url(#clip072)" d="
M1156.86 440.199 L1156.86 1479.3 L1219.87 1479.3 L1219.87 440.199 L1156.86 440.199 L1156.86 440.199  Z
  " fill="#009af9" fill-rule="evenodd" fill-opacity="0.3"/>
<polyline clip-path="url(#clip072)" style="stroke:#000000; stroke-width:4; stroke-opacity:0.3; fill:none" points="
  1156.86,440.199 1156.86,1479.3 1219.87,1479.3 1219.87,440.199 1156.86,440.199 
  "/>
<path clip-path="url(#clip072)" d="
M1219.87 440.199 L1219.87 1479.3 L1282.89 1479.3 L1282.89 440.199 L1219.87 440.199 L1219.87 440.199  Z
  " fill="#009af9" fill-rule="evenodd" fill-opacity="0.3"/>
<polyline clip-path="url(#clip072)" style="stroke:#000000; stroke-width:4; stroke-opacity:0.3; fill:none" points="
  1219.87,440.199 1219.87,1479.3 1282.89,1479.3 1282.89,440.199 1219.87,440.199 
  "/>
<path clip-path="url(#clip072)" d="
M1282.89 191.401 L1282.89 1479.3 L1345.91 1479.3 L1345.91 191.401 L1282.89 191.401 L1282.89 191.401  Z
  " fill="#009af9" fill-rule="evenodd" fill-opacity="0.3"/>
<polyline clip-path="url(#clip072)" style="stroke:#000000; stroke-width:4; stroke-opacity:0.3; fill:none" points="
  1282.89,191.401 1282.89,1479.3 1345.91,1479.3 1345.91,191.401 1282.89,191.401 
  "/>
<path clip-path="url(#clip072)" d="
M1345.91 513.375 L1345.91 1479.3 L1408.92 1479.3 L1408.92 513.375 L1345.91 513.375 L1345.91 513.375  Z
  " fill="#009af9" fill-rule="evenodd" fill-opacity="0.3"/>
<polyline clip-path="url(#clip072)" style="stroke:#000000; stroke-width:4; stroke-opacity:0.3; fill:none" points="
  1345.91,513.375 1345.91,1479.3 1408.92,1479.3 1408.92,513.375 1345.91,513.375 
  "/>
<path clip-path="url(#clip072)" d="
M1408.92 659.727 L1408.92 1479.3 L1471.94 1479.3 L1471.94 659.727 L1408.92 659.727 L1408.92 659.727  Z
  " fill="#009af9" fill-rule="evenodd" fill-opacity="0.3"/>
<polyline clip-path="url(#clip072)" style="stroke:#000000; stroke-width:4; stroke-opacity:0.3; fill:none" points="
  1408.92,659.727 1408.92,1479.3 1471.94,1479.3 1471.94,659.727 1408.92,659.727 
  "/>
<path clip-path="url(#clip072)" d="
M1471.94 762.173 L1471.94 1479.3 L1534.96 1479.3 L1534.96 762.173 L1471.94 762.173 L1471.94 762.173  Z
  " fill="#009af9" fill-rule="evenodd" fill-opacity="0.3"/>
<polyline clip-path="url(#clip072)" style="stroke:#000000; stroke-width:4; stroke-opacity:0.3; fill:none" points="
  1471.94,762.173 1471.94,1479.3 1534.96,1479.3 1534.96,762.173 1471.94,762.173 
  "/>
<path clip-path="url(#clip072)" d="
M1534.96 645.092 L1534.96 1479.3 L1597.97 1479.3 L1597.97 645.092 L1534.96 645.092 L1534.96 645.092  Z
  " fill="#009af9" fill-rule="evenodd" fill-opacity="0.3"/>
<polyline clip-path="url(#clip072)" style="stroke:#000000; stroke-width:4; stroke-opacity:0.3; fill:none" points="
  1534.96,645.092 1534.96,1479.3 1597.97,1479.3 1597.97,645.092 1534.96,645.092 
  "/>
<path clip-path="url(#clip072)" d="
M1597.97 1171.96 L1597.97 1479.3 L1660.99 1479.3 L1660.99 1171.96 L1597.97 1171.96 L1597.97 1171.96  Z
  " fill="#009af9" fill-rule="evenodd" fill-opacity="0.3"/>
<polyline clip-path="url(#clip072)" style="stroke:#000000; stroke-width:4; stroke-opacity:0.3; fill:none" points="
  1597.97,1171.96 1597.97,1479.3 1660.99,1479.3 1660.99,1171.96 1597.97,1171.96 
  "/>
<path clip-path="url(#clip072)" d="
M1660.99 1040.24 L1660.99 1479.3 L1724 1479.3 L1724 1040.24 L1660.99 1040.24 L1660.99 1040.24  Z
  " fill="#009af9" fill-rule="evenodd" fill-opacity="0.3"/>
<polyline clip-path="url(#clip072)" style="stroke:#000000; stroke-width:4; stroke-opacity:0.3; fill:none" points="
  1660.99,1040.24 1660.99,1479.3 1724,1479.3 1724,1040.24 1660.99,1040.24 
  "/>
<path clip-path="url(#clip072)" d="
M1724 1084.15 L1724 1479.3 L1787.02 1479.3 L1787.02 1084.15 L1724 1084.15 L1724 1084.15  Z
  " fill="#009af9" fill-rule="evenodd" fill-opacity="0.3"/>
<polyline clip-path="url(#clip072)" style="stroke:#000000; stroke-width:4; stroke-opacity:0.3; fill:none" points="
  1724,1084.15 1724,1479.3 1787.02,1479.3 1787.02,1084.15 1724,1084.15 
  "/>
<path clip-path="url(#clip072)" d="
M1787.02 1376.85 L1787.02 1479.3 L1850.04 1479.3 L1850.04 1376.85 L1787.02 1376.85 L1787.02 1376.85  Z
  " fill="#009af9" fill-rule="evenodd" fill-opacity="0.3"/>
<polyline clip-path="url(#clip072)" style="stroke:#000000; stroke-width:4; stroke-opacity:0.3; fill:none" points="
  1787.02,1376.85 1787.02,1479.3 1850.04,1479.3 1850.04,1376.85 1787.02,1376.85 
  "/>
<path clip-path="url(#clip072)" d="
M1850.04 1303.68 L1850.04 1479.3 L1913.05 1479.3 L1913.05 1303.68 L1850.04 1303.68 L1850.04 1303.68  Z
  " fill="#009af9" fill-rule="evenodd" fill-opacity="0.3"/>
<polyline clip-path="url(#clip072)" style="stroke:#000000; stroke-width:4; stroke-opacity:0.3; fill:none" points="
  1850.04,1303.68 1850.04,1479.3 1913.05,1479.3 1913.05,1303.68 1850.04,1303.68 
  "/>
<path clip-path="url(#clip072)" d="
M1913.05 1332.95 L1913.05 1479.3 L1976.07 1479.3 L1976.07 1332.95 L1913.05 1332.95 L1913.05 1332.95  Z
  " fill="#009af9" fill-rule="evenodd" fill-opacity="0.3"/>
<polyline clip-path="url(#clip072)" style="stroke:#000000; stroke-width:4; stroke-opacity:0.3; fill:none" points="
  1913.05,1332.95 1913.05,1479.3 1976.07,1479.3 1976.07,1332.95 1913.05,1332.95 
  "/>
<path clip-path="url(#clip072)" d="
M1976.07 1435.39 L1976.07 1479.3 L2039.09 1479.3 L2039.09 1435.39 L1976.07 1435.39 L1976.07 1435.39  Z
  " fill="#009af9" fill-rule="evenodd" fill-opacity="0.3"/>
<polyline clip-path="url(#clip072)" style="stroke:#000000; stroke-width:4; stroke-opacity:0.3; fill:none" points="
  1976.07,1435.39 1976.07,1479.3 2039.09,1479.3 2039.09,1435.39 1976.07,1435.39 
  "/>
<path clip-path="url(#clip072)" d="
M2039.09 1391.49 L2039.09 1479.3 L2102.1 1479.3 L2102.1 1391.49 L2039.09 1391.49 L2039.09 1391.49  Z
  " fill="#009af9" fill-rule="evenodd" fill-opacity="0.3"/>
<polyline clip-path="url(#clip072)" style="stroke:#000000; stroke-width:4; stroke-opacity:0.3; fill:none" points="
  2039.09,1391.49 2039.09,1479.3 2102.1,1479.3 2102.1,1391.49 2039.09,1391.49 
  "/>
<path clip-path="url(#clip072)" d="
M2102.1 1464.66 L2102.1 1479.3 L2165.12 1479.3 L2165.12 1464.66 L2102.1 1464.66 L2102.1 1464.66  Z
  " fill="#009af9" fill-rule="evenodd" fill-opacity="0.3"/>
<polyline clip-path="url(#clip072)" style="stroke:#000000; stroke-width:4; stroke-opacity:0.3; fill:none" points="
  2102.1,1464.66 2102.1,1479.3 2165.12,1479.3 2165.12,1464.66 2102.1,1464.66 
  "/>
<path clip-path="url(#clip072)" d="
M211.613 1450.03 L211.613 1479.3 L274.629 1479.3 L274.629 1450.03 L211.613 1450.03 L211.613 1450.03  Z
  " fill="#e26f46" fill-rule="evenodd" fill-opacity="0.3"/>
<polyline clip-path="url(#clip072)" style="stroke:#000000; stroke-width:4; stroke-opacity:0.3; fill:none" points="
  211.613,1450.03 211.613,1479.3 274.629,1479.3 274.629,1450.03 211.613,1450.03 
  "/>
<path clip-path="url(#clip072)" d="
M274.629 1450.03 L274.629 1479.3 L337.646 1479.3 L337.646 1450.03 L274.629 1450.03 L274.629 1450.03  Z
  " fill="#e26f46" fill-rule="evenodd" fill-opacity="0.3"/>
<polyline clip-path="url(#clip072)" style="stroke:#000000; stroke-width:4; stroke-opacity:0.3; fill:none" points="
  274.629,1450.03 274.629,1479.3 337.646,1479.3 337.646,1450.03 274.629,1450.03 
  "/>
<path clip-path="url(#clip072)" d="
M337.646 1435.39 L337.646 1479.3 L400.662 1479.3 L400.662 1435.39 L337.646 1435.39 L337.646 1435.39  Z
  " fill="#e26f46" fill-rule="evenodd" fill-opacity="0.3"/>
<polyline clip-path="url(#clip072)" style="stroke:#000000; stroke-width:4; stroke-opacity:0.3; fill:none" points="
  337.646,1435.39 337.646,1479.3 400.662,1479.3 400.662,1435.39 337.646,1435.39 
  "/>
<path clip-path="url(#clip072)" d="
M400.662 1420.76 L400.662 1479.3 L463.678 1479.3 L463.678 1420.76 L400.662 1420.76 L400.662 1420.76  Z
  " fill="#e26f46" fill-rule="evenodd" fill-opacity="0.3"/>
<polyline clip-path="url(#clip072)" style="stroke:#000000; stroke-width:4; stroke-opacity:0.3; fill:none" points="
  400.662,1420.76 400.662,1479.3 463.678,1479.3 463.678,1420.76 400.662,1420.76 
  "/>
<path clip-path="url(#clip072)" d="
M463.678 1420.76 L463.678 1479.3 L526.695 1479.3 L526.695 1420.76 L463.678 1420.76 L463.678 1420.76  Z
  " fill="#e26f46" fill-rule="evenodd" fill-opacity="0.3"/>
<polyline clip-path="url(#clip072)" style="stroke:#000000; stroke-width:4; stroke-opacity:0.3; fill:none" points="
  463.678,1420.76 463.678,1479.3 526.695,1479.3 526.695,1420.76 463.678,1420.76 
  "/>
<path clip-path="url(#clip072)" d="
M526.695 1362.22 L526.695 1479.3 L589.711 1479.3 L589.711 1362.22 L526.695 1362.22 L526.695 1362.22  Z
  " fill="#e26f46" fill-rule="evenodd" fill-opacity="0.3"/>
<polyline clip-path="url(#clip072)" style="stroke:#000000; stroke-width:4; stroke-opacity:0.3; fill:none" points="
  526.695,1362.22 526.695,1479.3 589.711,1479.3 589.711,1362.22 526.695,1362.22 
  "/>
<path clip-path="url(#clip072)" d="
M589.711 1289.04 L589.711 1479.3 L652.727 1479.3 L652.727 1289.04 L589.711 1289.04 L589.711 1289.04  Z
  " fill="#e26f46" fill-rule="evenodd" fill-opacity="0.3"/>
<polyline clip-path="url(#clip072)" style="stroke:#000000; stroke-width:4; stroke-opacity:0.3; fill:none" points="
  589.711,1289.04 589.711,1479.3 652.727,1479.3 652.727,1289.04 589.711,1289.04 
  "/>
<path clip-path="url(#clip072)" d="
M652.727 1157.32 L652.727 1479.3 L715.744 1479.3 L715.744 1157.32 L652.727 1157.32 L652.727 1157.32  Z
  " fill="#e26f46" fill-rule="evenodd" fill-opacity="0.3"/>
<polyline clip-path="url(#clip072)" style="stroke:#000000; stroke-width:4; stroke-opacity:0.3; fill:none" points="
  652.727,1157.32 652.727,1479.3 715.744,1479.3 715.744,1157.32 652.727,1157.32 
  "/>
<path clip-path="url(#clip072)" d="
M715.744 1171.96 L715.744 1479.3 L778.76 1479.3 L778.76 1171.96 L715.744 1171.96 L715.744 1171.96  Z
  " fill="#e26f46" fill-rule="evenodd" fill-opacity="0.3"/>
<polyline clip-path="url(#clip072)" style="stroke:#000000; stroke-width:4; stroke-opacity:0.3; fill:none" points="
  715.744,1171.96 715.744,1479.3 778.76,1479.3 778.76,1171.96 715.744,1171.96 
  "/>
<path clip-path="url(#clip072)" d="
M778.76 1025.61 L778.76 1479.3 L841.776 1479.3 L841.776 1025.61 L778.76 1025.61 L778.76 1025.61  Z
  " fill="#e26f46" fill-rule="evenodd" fill-opacity="0.3"/>
<polyline clip-path="url(#clip072)" style="stroke:#000000; stroke-width:4; stroke-opacity:0.3; fill:none" points="
  778.76,1025.61 778.76,1479.3 841.776,1479.3 841.776,1025.61 778.76,1025.61 
  "/>
<path clip-path="url(#clip072)" d="
M841.776 937.795 L841.776 1479.3 L904.793 1479.3 L904.793 937.795 L841.776 937.795 L841.776 937.795  Z
  " fill="#e26f46" fill-rule="evenodd" fill-opacity="0.3"/>
<polyline clip-path="url(#clip072)" style="stroke:#000000; stroke-width:4; stroke-opacity:0.3; fill:none" points="
  841.776,937.795 841.776,1479.3 904.793,1479.3 904.793,937.795 841.776,937.795 
  "/>
<path clip-path="url(#clip072)" d="
M904.793 776.808 L904.793 1479.3 L967.809 1479.3 L967.809 776.808 L904.793 776.808 L904.793 776.808  Z
  " fill="#e26f46" fill-rule="evenodd" fill-opacity="0.3"/>
<polyline clip-path="url(#clip072)" style="stroke:#000000; stroke-width:4; stroke-opacity:0.3; fill:none" points="
  904.793,776.808 904.793,1479.3 967.809,1479.3 967.809,776.808 904.793,776.808 
  "/>
<path clip-path="url(#clip072)" d="
M967.809 571.916 L967.809 1479.3 L1030.83 1479.3 L1030.83 571.916 L967.809 571.916 L967.809 571.916  Z
  " fill="#e26f46" fill-rule="evenodd" fill-opacity="0.3"/>
<polyline clip-path="url(#clip072)" style="stroke:#000000; stroke-width:4; stroke-opacity:0.3; fill:none" points="
  967.809,571.916 967.809,1479.3 1030.83,1479.3 1030.83,571.916 967.809,571.916 
  "/>
<path clip-path="url(#clip072)" d="
M1030.83 440.199 L1030.83 1479.3 L1093.84 1479.3 L1093.84 440.199 L1030.83 440.199 L1030.83 440.199  Z
  " fill="#e26f46" fill-rule="evenodd" fill-opacity="0.3"/>
<polyline clip-path="url(#clip072)" style="stroke:#000000; stroke-width:4; stroke-opacity:0.3; fill:none" points="
  1030.83,440.199 1030.83,1479.3 1093.84,1479.3 1093.84,440.199 1030.83,440.199 
  "/>
<path clip-path="url(#clip072)" d="
M1093.84 425.564 L1093.84 1479.3 L1156.86 1479.3 L1156.86 425.564 L1093.84 425.564 L1093.84 425.564  Z
  " fill="#e26f46" fill-rule="evenodd" fill-opacity="0.3"/>
<polyline clip-path="url(#clip072)" style="stroke:#000000; stroke-width:4; stroke-opacity:0.3; fill:none" points="
  1093.84,425.564 1093.84,1479.3 1156.86,1479.3 1156.86,425.564 1093.84,425.564 
  "/>
<path clip-path="url(#clip072)" d="
M1156.86 454.834 L1156.86 1479.3 L1219.87 1479.3 L1219.87 454.834 L1156.86 454.834 L1156.86 454.834  Z
  " fill="#e26f46" fill-rule="evenodd" fill-opacity="0.3"/>
<polyline clip-path="url(#clip072)" style="stroke:#000000; stroke-width:4; stroke-opacity:0.3; fill:none" points="
  1156.86,454.834 1156.86,1479.3 1219.87,1479.3 1219.87,454.834 1156.86,454.834 
  "/>
<path clip-path="url(#clip072)" d="
M1219.87 88.9544 L1219.87 1479.3 L1282.89 1479.3 L1282.89 88.9544 L1219.87 88.9544 L1219.87 88.9544  Z
  " fill="#e26f46" fill-rule="evenodd" fill-opacity="0.3"/>
<polyline clip-path="url(#clip072)" style="stroke:#000000; stroke-width:4; stroke-opacity:0.3; fill:none" points="
  1219.87,88.9544 1219.87,1479.3 1282.89,1479.3 1282.89,88.9544 1219.87,88.9544 
  "/>
<path clip-path="url(#clip072)" d="
M1282.89 425.564 L1282.89 1479.3 L1345.91 1479.3 L1345.91 425.564 L1282.89 425.564 L1282.89 425.564  Z
  " fill="#e26f46" fill-rule="evenodd" fill-opacity="0.3"/>
<polyline clip-path="url(#clip072)" style="stroke:#000000; stroke-width:4; stroke-opacity:0.3; fill:none" points="
  1282.89,425.564 1282.89,1479.3 1345.91,1479.3 1345.91,425.564 1282.89,425.564 
  "/>
<path clip-path="url(#clip072)" d="
M1345.91 323.117 L1345.91 1479.3 L1408.92 1479.3 L1408.92 323.117 L1345.91 323.117 L1345.91 323.117  Z
  " fill="#e26f46" fill-rule="evenodd" fill-opacity="0.3"/>
<polyline clip-path="url(#clip072)" style="stroke:#000000; stroke-width:4; stroke-opacity:0.3; fill:none" points="
  1345.91,323.117 1345.91,1479.3 1408.92,1479.3 1408.92,323.117 1345.91,323.117 
  "/>
<path clip-path="url(#clip072)" d="
M1408.92 513.375 L1408.92 1479.3 L1471.94 1479.3 L1471.94 513.375 L1408.92 513.375 L1408.92 513.375  Z
  " fill="#e26f46" fill-rule="evenodd" fill-opacity="0.3"/>
<polyline clip-path="url(#clip072)" style="stroke:#000000; stroke-width:4; stroke-opacity:0.3; fill:none" points="
  1408.92,513.375 1408.92,1479.3 1471.94,1479.3 1471.94,513.375 1408.92,513.375 
  "/>
<path clip-path="url(#clip072)" d="
M1471.94 820.714 L1471.94 1479.3 L1534.96 1479.3 L1534.96 820.714 L1471.94 820.714 L1471.94 820.714  Z
  " fill="#e26f46" fill-rule="evenodd" fill-opacity="0.3"/>
<polyline clip-path="url(#clip072)" style="stroke:#000000; stroke-width:4; stroke-opacity:0.3; fill:none" points="
  1471.94,820.714 1471.94,1479.3 1534.96,1479.3 1534.96,820.714 1471.94,820.714 
  "/>
<path clip-path="url(#clip072)" d="
M1534.96 747.538 L1534.96 1479.3 L1597.97 1479.3 L1597.97 747.538 L1534.96 747.538 L1534.96 747.538  Z
  " fill="#e26f46" fill-rule="evenodd" fill-opacity="0.3"/>
<polyline clip-path="url(#clip072)" style="stroke:#000000; stroke-width:4; stroke-opacity:0.3; fill:none" points="
  1534.96,747.538 1534.96,1479.3 1597.97,1479.3 1597.97,747.538 1534.96,747.538 
  "/>
<path clip-path="url(#clip072)" d="
M1597.97 908.525 L1597.97 1479.3 L1660.99 1479.3 L1660.99 908.525 L1597.97 908.525 L1597.97 908.525  Z
  " fill="#e26f46" fill-rule="evenodd" fill-opacity="0.3"/>
<polyline clip-path="url(#clip072)" style="stroke:#000000; stroke-width:4; stroke-opacity:0.3; fill:none" points="
  1597.97,908.525 1597.97,1479.3 1660.99,1479.3 1660.99,908.525 1597.97,908.525 
  "/>
<path clip-path="url(#clip072)" d="
M1660.99 981.701 L1660.99 1479.3 L1724 1479.3 L1724 981.701 L1660.99 981.701 L1660.99 981.701  Z
  " fill="#e26f46" fill-rule="evenodd" fill-opacity="0.3"/>
<polyline clip-path="url(#clip072)" style="stroke:#000000; stroke-width:4; stroke-opacity:0.3; fill:none" points="
  1660.99,981.701 1660.99,1479.3 1724,1479.3 1724,981.701 1660.99,981.701 
  "/>
<path clip-path="url(#clip072)" d="
M1724 1215.86 L1724 1479.3 L1787.02 1479.3 L1787.02 1215.86 L1724 1215.86 L1724 1215.86  Z
  " fill="#e26f46" fill-rule="evenodd" fill-opacity="0.3"/>
<polyline clip-path="url(#clip072)" style="stroke:#000000; stroke-width:4; stroke-opacity:0.3; fill:none" points="
  1724,1215.86 1724,1479.3 1787.02,1479.3 1787.02,1215.86 1724,1215.86 
  "/>
<path clip-path="url(#clip072)" d="
M1787.02 1347.58 L1787.02 1479.3 L1850.04 1479.3 L1850.04 1347.58 L1787.02 1347.58 L1787.02 1347.58  Z
  " fill="#e26f46" fill-rule="evenodd" fill-opacity="0.3"/>
<polyline clip-path="url(#clip072)" style="stroke:#000000; stroke-width:4; stroke-opacity:0.3; fill:none" points="
  1787.02,1347.58 1787.02,1479.3 1850.04,1479.3 1850.04,1347.58 1787.02,1347.58 
  "/>
<path clip-path="url(#clip072)" d="
M1850.04 1318.31 L1850.04 1479.3 L1913.05 1479.3 L1913.05 1318.31 L1850.04 1318.31 L1850.04 1318.31  Z
  " fill="#e26f46" fill-rule="evenodd" fill-opacity="0.3"/>
<polyline clip-path="url(#clip072)" style="stroke:#000000; stroke-width:4; stroke-opacity:0.3; fill:none" points="
  1850.04,1318.31 1850.04,1479.3 1913.05,1479.3 1913.05,1318.31 1850.04,1318.31 
  "/>
<path clip-path="url(#clip072)" d="
M1913.05 1376.85 L1913.05 1479.3 L1976.07 1479.3 L1976.07 1376.85 L1913.05 1376.85 L1913.05 1376.85  Z
  " fill="#e26f46" fill-rule="evenodd" fill-opacity="0.3"/>
<polyline clip-path="url(#clip072)" style="stroke:#000000; stroke-width:4; stroke-opacity:0.3; fill:none" points="
  1913.05,1376.85 1913.05,1479.3 1976.07,1479.3 1976.07,1376.85 1913.05,1376.85 
  "/>
<path clip-path="url(#clip072)" d="
M1976.07 1464.66 L1976.07 1479.3 L2039.09 1479.3 L2039.09 1464.66 L1976.07 1464.66 L1976.07 1464.66  Z
  " fill="#e26f46" fill-rule="evenodd" fill-opacity="0.3"/>
<polyline clip-path="url(#clip072)" style="stroke:#000000; stroke-width:4; stroke-opacity:0.3; fill:none" points="
  1976.07,1464.66 1976.07,1479.3 2039.09,1479.3 2039.09,1464.66 1976.07,1464.66 
  "/>
<path clip-path="url(#clip072)" d="
M2039.09 1464.66 L2039.09 1479.3 L2102.1 1479.3 L2102.1 1464.66 L2039.09 1464.66 L2039.09 1464.66  Z
  " fill="#e26f46" fill-rule="evenodd" fill-opacity="0.3"/>
<polyline clip-path="url(#clip072)" style="stroke:#000000; stroke-width:4; stroke-opacity:0.3; fill:none" points="
  2039.09,1464.66 2039.09,1479.3 2102.1,1479.3 2102.1,1464.66 2039.09,1464.66 
  "/>
<path clip-path="url(#clip072)" d="
M2102.1 1450.03 L2102.1 1479.3 L2165.12 1479.3 L2165.12 1450.03 L2102.1 1450.03 L2102.1 1450.03  Z
  " fill="#e26f46" fill-rule="evenodd" fill-opacity="0.3"/>
<polyline clip-path="url(#clip072)" style="stroke:#000000; stroke-width:4; stroke-opacity:0.3; fill:none" points="
  2102.1,1450.03 2102.1,1479.3 2165.12,1479.3 2165.12,1450.03 2102.1,1450.03 
  "/>
<path clip-path="url(#clip072)" d="
M2165.12 1464.66 L2165.12 1479.3 L2228.13 1479.3 L2228.13 1464.66 L2165.12 1464.66 L2165.12 1464.66  Z
  " fill="#e26f46" fill-rule="evenodd" fill-opacity="0.3"/>
<polyline clip-path="url(#clip072)" style="stroke:#000000; stroke-width:4; stroke-opacity:0.3; fill:none" points="
  2165.12,1464.66 2165.12,1479.3 2228.13,1479.3 2228.13,1464.66 2165.12,1464.66 
  "/>
</svg>
